<svg version="1.2" xmlns="http://www.w3.org/2000/svg" viewBox="0 0 26 26" width="100" height="100">
	<style>
		.s0 { fill: #000000 } 
	</style>
	<path id="Icon fa-solid-circle-arrow-right" fill-rule="evenodd" class="s0" d="m13 0c7.18 0 13 5.82 13 13 0 7.18-5.82 13-13 13-7.18 0-13-5.82-13-13 0-7.18 5.82-13 13-13zm6.96 13.86c0.47-0.47 0.47-1.25 0-1.72l-5.69-5.69c-0.47-0.47-1.24-0.47-1.72 0-0.48 0.48-0.48 1.25 0 1.73l3.6 3.6h-9.24c-0.68 0-1.22 0.54-1.22 1.22 0 0.68 0.54 1.22 1.22 1.22h9.24l-3.6 3.61c-0.48 0.47-0.47 1.24 0 1.72 0.47 0.48 1.24 0.48 1.72 0z"/>
</svg>