<svg width="119" height="144" viewBox="0 0 119 144" fill="none" xmlns="http://www.w3.org/2000/svg">
<path d="M74.7194 109.816C74.7194 118.957 67.2662 126.407 58.122 126.407C48.9152 126.407 41.462 118.957 41.462 109.816" stroke="white" stroke-width="5" stroke-miterlimit="100" stroke-linecap="round"/>
<path d="M62.0679 32.3061L53.9884 32.2435C35.4495 32.2435 19.3531 47.2696 19.2279 65.4887V86.4626C19.2279 90.8452 18.6642 95.1026 16.2842 98.7965L14.7184 101.176C12.2758 104.87 14.9063 109.816 19.2279 109.816H96.9537C101.338 109.816 103.906 104.87 101.526 101.176L99.8974 98.7965C97.5174 95.1026 96.9537 90.8452 96.9537 86.4626V65.4887C96.7658 47.2696 80.6068 32.3061 62.0679 32.3061Z" stroke="white" stroke-width="5" stroke-miterlimit="100" stroke-linecap="round"/>
<path d="M58.122 15.6522C64.1973 15.6522 69.2078 20.5983 69.2078 26.7339V32.2435H47.0363V26.7339C47.0363 20.5983 51.9841 15.6522 58.122 15.6522Z" stroke="white" stroke-width="5" stroke-miterlimit="100" stroke-linecap="round"/>
</svg>
