<?xml version="1.0" encoding="UTF-8"?>
<svg id="Layer_1" xmlns="http://www.w3.org/2000/svg" version="1.1" viewBox="0 0 200 200">
  <!-- Generator: Adobe Illustrator 29.5.0, SVG Export Plug-In . SVG Version: 2.1.0 Build 137)  -->
  <defs>
    <style>
      .st0 {
        fill: #8df;
      }
    </style>
  </defs>
  <path id="bidding-5" class="st0" d="M112.3,34.5l2.5.5-2.1,8.8c-31.7-7.7-63.6,11.8-71.3,43.5-7.7,31.7,11.8,63.6,43.5,71.3,31.7,7.7,63.6-11.8,71.3-43.5,2-8.4,2.2-17.2.5-25.7l-.5-2.3,8.8-2.2c9,36.6-13.4,73.5-50,82.4-36.6,9-73.5-13.4-82.4-50-9-36.6,13.4-73.5,50-82.4,9.8-2.4,20-2.6,29.8-.6h0v.2h-.1ZM104.9,65.4l2,.4-2.1,8.8c-14.7-3.4-29.3,5.7-32.7,20.4s5.7,29.3,20.4,32.7c14.7,3.4,29.3-5.7,32.7-20.4.8-3.6.9-7.3.3-10.9l-.3-1.7,8.8-2.2c4.8,19.5-7.2,39.2-26.7,44s-39.2-7.2-44-26.7c-4.8-19.5,7.2-39.2,26.7-44,4.9-1.2,9.9-1.4,14.9-.5h0ZM143.7,30.6l6.4,19.3,19.3,6.4-28.9,28.9-14.4-4.8-24.1,24.1-6.4-6.4,24.1-24.1-4.8-14.5,28.9-28.9h0ZM139.7,47.4l-14.5,14.5,3.2,9.6,9.6,3.2,14.5-14.5-9.6-3.2s-3.2-9.6-3.2-9.6Z"/>
</svg>