<?xml version="1.0" encoding="UTF-8"?>
<svg id="Layer_1" xmlns="http://www.w3.org/2000/svg" version="1.1" viewBox="0 0 200 200">
  <!-- Generator: Adobe Illustrator 29.5.0, SVG Export Plug-In . SVG Version: 2.1.0 Build 137)  -->
  <defs>
    <style>
      .st0 {
        fill: #8df;
      }
    </style>
  </defs>
  <g id="blockchain-10009">
    <path id="Path_44" class="st0" d="M59.2,75.6l40.8-19.8,40.8,19.8-40.8,19.8s-40.8-19.8-40.8-19.8Z"/>
    <path id="Path_45" class="st0" d="M100.1,95.4v48.7l40.8-19.8v-48.7s-40.8,19.8-40.8,19.8Z"/>
    <path id="Path_46" class="st0" d="M100.1,98.5c-.5,0-.9,0-1.3-.3l-40.8-19.8c-1.5-.7-2.2-2.6-1.4-4.1.3-.6.8-1.1,1.4-1.4l40.8-19.8c.9-.4,1.8-.4,2.7,0l40.8,19.8c1.5.7,2.2,2.6,1.4,4.1-.3.6-.8,1.1-1.4,1.4l-40.8,19.8c-.4.2-.9.3-1.3.3h0ZM66.3,75.6l33.8,16.4,33.8-16.4-33.8-16.4-33.8,16.4Z"/>
    <path id="Path_47" class="st0" d="M100.1,147.2c-.5,0-.9-.1-1.3-.3l-40.8-19.8c-1.1-.5-1.7-1.6-1.7-2.8v-48.7c0-1.7,1.4-3.1,3.1-3.1s.9,0,1.3.3l39.5,19.2,39.5-19.2c1.5-.7,3.4,0,4.1,1.5.2.4.3.9.3,1.3v48.7c0,1.2-.7,2.3-1.7,2.8l-40.8,19.8c-.4.2-.8.3-1.3.3h-.2ZM62.3,122.3l37.7,18.3,37.7-18.3v-41.8l-36.4,17.7c-.9.4-1.8.4-2.7,0l-36.4-17.7v41.8h.1Z"/>
    <path id="Path_48" class="st0" d="M100.1,147.2c-1.7,0-3.1-1.4-3.1-3.1v-48.7c0-1.7,1.4-3.1,3.1-3.1s3.1,1.4,3.1,3.1v48.7c0,1.7-1.4,3.1-3.1,3.1Z"/>
    <path id="Path_49" class="st0" d="M161.3,126.3c-1.7,0-3.1-1.4-3.1-3.1v-10.9c0-1.7,1.4-3.1,3.1-3.1s3.1,1.4,3.1,3.1v10.9c0,1.7-1.4,3.1-3.1,3.1Z"/>
    <path id="Path_50" class="st0" d="M161.3,101.2c-1.7,0-3.1-1.4-3.1-3.1h0v-32.7l-58.1-28.3-59.9,29.1c-1.5.8-3.4.3-4.2-1.2s-.3-3.4,1.2-4.2h.3l61.2-29.8c.9-.4,1.8-.4,2.7,0l61.2,29.8c1.1.5,1.7,1.6,1.7,2.8v34.7c0,1.7-1.4,3.1-3.1,3.1h.1v-.2h0Z"/>
    <path id="Path_51" class="st0" d="M38.8,90c-1.7,0-3.1-1.4-3.1-3.1v-10.9c0-1.7,1.4-3.1,3.1-3.1s3.1,1.4,3.1,3.1v10.9c0,1.7-1.4,3.1-3.1,3.1Z"/>
    <path id="Path_52" class="st0" d="M100.1,169.3c-.5,0-.9-.1-1.3-.3l-61.2-29.8c-1.1-.5-1.7-1.6-1.7-2.8v-35.3c0-1.7,1.4-3.1,3.1-3.1s3.1,1.4,3.1,3.1v33.4l58.1,28.3,59.9-29.1c1.6-.7,3.4,0,4.1,1.6.6,1.5,0,3.2-1.4,3.9l-61.2,29.8c-.4.2-.9.3-1.3.3h-.2Z"/>
  </g>
</svg>