<?xml version="1.0" encoding="UTF-8"?>
<svg id="Layer_1" xmlns="http://www.w3.org/2000/svg" version="1.1" viewBox="0 0 200 200">
  <!-- Generator: Adobe Illustrator 29.5.0, SVG Export Plug-In . SVG Version: 2.1.0 Build 137)  -->
  <defs>
    <style>
      .st0 {
        fill: #8df;
      }
    </style>
  </defs>
  <g id="blog">
    <g id="Group_5">
      <path id="Path_56" class="st0" d="M168.5,88.7c.9-1.9.9-4.1,0-6.1l-6.1-6.1c-.9-.9-1.7-.9-3.5-.9s-2.5.2-3.5.9l-46.8,46v12.1h13.9l45.9-46h.1Z"/>
      <path id="Path_57" class="st0" d="M56.6,56.6h86.7v8.7H56.6s0-8.7,0-8.7Z"/>
      <path id="Path_58" class="st0" d="M56.6,82.7h80.7l6.1-6.1v-2.6H56.6v8.6h0Z"/>
      <path id="Path_59" class="st0" d="M56.6,126h43.3v8.7h-43.3s0-8.7,0-8.7Z"/>
      <path id="Path_60" class="st0" d="M56.6,100h63.3l8.6-8.7H56.6v8.7Z"/>
      <path id="Path_61" class="st0" d="M160.7,108.6v34.7c0,9.6-7.8,17.3-17.3,17.3H56.6c-9.6,0-17.3-7.8-17.3-17.3V56.6c0-9.6,7.8-17.3,17.3-17.3h86.7c9.6,0,17.3,7.8,17.3,17.3v10.4c2.9.4,5.6,1.6,7.8,3.5l.9.9v-14.7c.3-14.1-11-25.8-25.1-26.1H56.6c-14.1-.3-25.8,11-26.1,25.1v87.6c-.3,14.1,11,25.7,25.1,26h87.7c14.1.3,25.7-11,26-25.1v-44.3l-8.7,8.6h.1Z"/>
      <path id="Path_62" class="st0" d="M56.6,117.3h46l.9-.9,7.8-7.8h-54.7s0,8.7,0,8.7Z"/>
    </g>
  </g>
</svg>