<svg width="147" height="147" viewBox="0 0 147 147" fill="none" xmlns="http://www.w3.org/2000/svg">
<g clip-path="url(#clip0_33_43)">
<path d="M119.108 105.162C120.111 105.202 121.089 105.468 121.971 105.938L122.343 106.152L122.353 106.158C123.335 106.795 124.149 107.66 124.728 108.678C125.306 109.697 125.631 110.839 125.675 112.009C125.719 113.18 125.481 114.344 124.98 115.403C124.48 116.462 123.733 117.385 122.801 118.094L122.791 118.102C122.75 118.132 122.706 118.161 122.661 118.191L122.659 118.192L80.0674 145.947C78.9911 146.659 77.7794 147.141 76.5078 147.362C75.2361 147.583 73.9323 147.539 72.6787 147.231C72.5683 147.204 72.4599 147.169 72.3535 147.129L45.3867 136.951C44.3336 136.631 43.2384 136.469 42.1377 136.469H36.9346C36.2756 137.358 35.4271 138.09 34.4463 138.607C33.3862 139.165 32.2059 139.457 31.0078 139.457H28.71C26.751 139.455 24.8726 138.677 23.4873 137.291C22.1019 135.906 21.3225 134.027 21.3203 132.068V115.989L21.3301 115.622C21.4226 113.797 22.1885 112.065 23.4873 110.766C24.8726 109.381 26.7508 108.601 28.71 108.599H31.0078C32.1176 108.599 33.2135 108.85 34.2129 109.332C35.1165 109.769 35.9189 110.386 36.5752 111.142L57.207 106.474L57.4951 106.414C58.9361 106.15 60.4268 106.348 61.752 106.985H61.7529L83.3936 117.248L83.3975 117.25C84.923 117.991 86.1476 119.222 86.8857 120.737L115.803 105.886H115.804C116.825 105.365 117.963 105.115 119.108 105.162ZM118.88 110.747C118.699 110.74 118.518 110.779 118.356 110.862L118.357 110.863L87.5107 126.704C87.3423 127.383 87.0914 128.04 86.7607 128.659C86.1733 129.815 85.2829 130.789 84.1846 131.479C83.0831 132.17 81.8139 132.549 80.5137 132.574H80.5029C79.5705 132.572 78.6482 132.378 77.7939 132.004V132.003L57.877 123.367V123.368C57.5393 123.222 57.2336 123.01 56.9775 122.747C56.7214 122.483 56.5192 122.17 56.3838 121.829C56.2485 121.487 56.1816 121.122 56.1875 120.754C56.1934 120.387 56.2726 120.023 56.4189 119.686C56.5653 119.349 56.7766 119.043 57.041 118.788C57.3054 118.532 57.6179 118.331 57.96 118.197C58.3021 118.062 58.6675 117.996 59.0352 118.002C59.4027 118.009 59.7655 118.088 60.1025 118.235H60.1016L80.001 126.863C80.3488 126.989 80.7321 126.976 81.0703 126.826C81.41 126.674 81.6773 126.396 81.8154 126.051L81.8252 126.028L81.8369 126.005C82.0275 125.64 82.1428 125.239 82.1768 124.829C82.2107 124.417 82.1624 124.003 82.0342 123.611L82.0303 123.601L82.0273 123.59C81.9499 123.314 81.8171 123.056 81.6367 122.833C81.4581 122.613 81.237 122.43 80.9863 122.297L59.3564 112.039L59.3525 112.038C59.0689 111.9 58.7472 111.862 58.4395 111.93L58.4385 111.929L38.3984 116.464V130.875H42.1377L42.7715 130.887C44.0388 130.935 45.2964 131.127 46.5205 131.458L47.1299 131.635L47.1309 131.636C47.1809 131.652 47.2327 131.669 47.2842 131.689L74.1406 141.825C74.6268 141.924 75.1278 141.929 75.6152 141.835C76.1126 141.74 76.5863 141.546 77.0078 141.265L77.0117 141.262L119.507 113.57C119.7 113.407 119.853 113.202 119.953 112.97C120.056 112.732 120.101 112.474 120.085 112.215L120.084 112.203V112.191C120.08 111.934 120.014 111.68 119.891 111.455C119.769 111.231 119.594 111.041 119.383 110.899C119.23 110.807 119.058 110.754 118.88 110.747ZM28.7109 114.193C28.2348 114.193 27.7782 114.383 27.4414 114.719C27.1045 115.056 26.9146 115.513 26.9141 115.99V132.067L26.9229 132.245C26.9641 132.656 27.1466 133.043 27.4414 133.337C27.7783 133.674 28.2355 133.863 28.7119 133.864H31.0068C31.4833 133.863 31.9404 133.674 32.2773 133.337C32.6143 133 32.8042 132.543 32.8047 132.067V115.99L32.7959 115.813C32.7548 115.401 32.5723 115.014 32.2773 114.719C31.9825 114.425 31.5958 114.243 31.1846 114.202L31.0078 114.193H28.7109Z" fill="black" stroke="black"/>
<path d="M49.6914 95.526L49.7178 95.6881C49.7966 96.0626 49.9942 96.4034 50.2822 96.6598C50.6113 96.9526 51.0361 97.1148 51.4766 97.1149H64.9609V93.5211H49.458L49.6914 95.526ZM82.0391 97.1149H95.5234C95.9639 97.1149 96.3888 96.9527 96.7178 96.6598C97.0467 96.3669 97.2567 95.9635 97.3076 95.526L97.541 93.5211H82.0391V97.1149ZM70.5547 97.1149H76.4453V56.7721H70.5547V97.1149ZM82.0391 87.9274H98.1934L100.485 68.2565H82.0391V87.9274ZM48.8057 87.9274H64.9609V68.2565H46.5146L48.8057 87.9274ZM82.0391 62.6627H104.011L104.008 56.7721H82.0391V62.6627ZM42.9922 62.6627H64.9609V56.7721H42.9922V62.6627ZM65.46 40.694C64.07 40.6942 62.7368 41.2473 61.7539 42.2301C60.7711 43.2131 60.2188 44.5462 60.2188 45.9362C60.2188 47.3264 60.7709 48.6601 61.7539 49.6432C62.737 50.6263 64.0707 51.1783 65.4609 51.1783H70.7031V45.9371L70.6963 45.6774C70.6306 44.3822 70.0873 43.1535 69.166 42.2321C68.1832 41.2492 66.8499 40.6956 65.46 40.694ZM82.5615 40.7946C81.5448 40.5924 80.491 40.6967 79.5332 41.0934C78.5754 41.4901 77.7567 42.162 77.1807 43.024C76.6047 43.8861 76.2969 44.8994 76.2969 45.9362V51.1783H81.5391L81.9268 51.1647C82.8269 51.0979 83.697 50.7993 84.4512 50.2955C85.3132 49.7195 85.9851 48.8999 86.3818 47.942C86.7785 46.9842 86.8829 45.9305 86.6807 44.9137C86.4784 43.8968 85.9792 42.9623 85.2461 42.2291C84.513 41.496 83.5784 40.9968 82.5615 40.7946ZM109.602 63.1637C109.598 64.2918 109.22 65.3871 108.526 66.277C107.913 67.0643 107.084 67.6512 106.144 67.9694C106.141 68.0048 106.142 68.0405 106.138 68.0758L106.137 68.0797L102.864 96.1735C102.655 97.9733 101.791 99.6336 100.438 100.839C99.0842 102.043 97.3353 102.709 95.5234 102.709H51.4766C49.6647 102.709 47.9158 102.043 46.5625 100.839C45.2091 99.6336 44.3452 97.9733 44.1357 96.1735L40.8633 68.0797L40.8623 68.0758C40.8585 68.0404 40.858 68.0048 40.8555 67.9694C39.9158 67.6511 39.0869 67.064 38.4736 66.277C37.7803 65.3871 37.4018 64.2918 37.3984 63.1637V56.2711L37.4053 56.0192C37.4691 54.7608 37.9964 53.5666 38.8916 52.6715C39.8463 51.7168 41.1411 51.18 42.4912 51.1783H55.9844C54.7882 49.0207 54.3587 46.5101 54.7871 44.0621C55.2682 41.314 56.7912 38.8573 59.0391 37.2047C61.2869 35.5521 64.086 34.8314 66.8525 35.192C69.4205 35.5268 71.7762 36.7702 73.5 38.6852C75.2238 36.7699 77.5794 35.526 80.1475 35.191C82.9141 34.8303 85.7129 35.5521 87.9609 37.2047C90.209 38.8574 91.7329 41.3137 92.2139 44.0621C92.6422 46.5103 92.212 49.0207 91.0156 51.1783H104.509C105.859 51.18 107.154 51.7168 108.108 52.6715C109.063 53.6262 109.6 54.921 109.602 56.2711V63.1637Z" fill="black" stroke="black"/>
<path d="M27.3235 10.2079C27.965 9.8396 28.7263 9.74088 29.4407 9.93248L29.4524 9.93541L29.4631 9.93932C34.5135 11.5511 39.0026 14.5633 42.4084 18.6258C45.8142 22.6883 47.9976 27.6336 48.7034 32.8876H48.7014C48.8114 33.6178 48.6295 34.3621 48.1926 34.9579C47.754 35.5559 47.0955 35.9554 46.3625 36.0682C45.6296 36.1809 44.8815 35.9979 44.2834 35.5594C43.6854 35.1208 43.2859 34.4624 43.1731 33.7294L43.1721 33.7186C42.6233 29.5301 40.9027 25.5813 38.2092 22.327C35.5158 19.0727 31.9586 16.6443 27.9465 15.3221V15.3212C27.2437 15.1199 26.6472 14.6525 26.2854 14.0165C25.9196 13.3735 25.8233 12.612 26.0178 11.8983C26.2124 11.1845 26.6819 10.5763 27.3235 10.2079Z" fill="black" stroke="black"/>
<path d="M22.7961 24.7709C27.2545 24.4969 36.7313 26.4017 40.4915 35.7006C40.7694 36.3882 40.7625 37.1584 40.4729 37.8412C40.1832 38.524 39.6342 39.0642 38.9465 39.3422C38.2589 39.6201 37.4887 39.6133 36.8059 39.3236C36.2086 39.0701 35.7209 38.6179 35.4221 38.0482L35.3059 37.7973C33.7236 33.8841 30.7873 32.023 28.178 31.1352C25.5574 30.2436 23.2889 30.3444 23.1321 30.3539H23.1301C22.3915 30.3954 21.6662 30.1426 21.1135 29.6508C20.5609 29.1588 20.2252 28.4675 20.1809 27.7289C20.1366 26.9903 20.3872 26.2639 20.8772 25.7094C21.3671 25.1551 22.0568 24.8179 22.7952 24.7709H22.7961Z" fill="black" stroke="black"/>
<path d="M21.8301 37.4425C22.0448 37.3827 22.2716 37.383 22.4863 37.4425C22.6474 37.4872 22.7973 37.5641 22.9268 37.6681L23.0498 37.7814L24.5176 39.338L26.6797 39.0509C26.7317 39.044 26.7845 39.0406 26.8369 39.0402C27.048 39.0356 27.2567 39.0874 27.4414 39.1896C27.6262 39.2919 27.7805 39.4418 27.8887 39.6232C27.9967 39.8044 28.0553 40.0108 28.0576 40.2218C28.0598 40.433 28.0057 40.6417 27.9014 40.8253L27.8975 40.8312L26.8291 42.6466L27.7734 44.5353C27.8617 44.7194 27.9013 44.9233 27.8887 45.1271C27.8759 45.3307 27.8115 45.5277 27.7012 45.6993C27.5908 45.871 27.4379 46.0114 27.2578 46.1075C27.0805 46.2021 26.8825 46.2494 26.6816 46.2472V46.2482C26.6802 46.2482 26.6782 46.2472 26.6768 46.2472C26.6755 46.2472 26.6741 46.2482 26.6729 46.2482V46.2472C26.634 46.2469 26.5952 46.2462 26.5566 46.2423L26.4336 46.2238L24.2949 45.798L22.7236 47.257C22.4998 47.466 22.2055 47.5823 21.8994 47.5841C21.8971 47.5841 21.8949 47.5841 21.8926 47.5841L21.8896 47.5851V47.5841C21.5955 47.5873 21.3099 47.4843 21.0869 47.2921C20.8612 47.0976 20.7159 46.8259 20.6777 46.5304L20.6768 46.5236L20.4365 44.4435L18.5234 43.4523V43.4513C18.3235 43.3498 18.1557 43.1939 18.041 43.0011C17.9251 42.8061 17.8681 42.5813 17.876 42.3546C17.8839 42.1279 17.9568 41.9083 18.0859 41.7218C18.2134 41.5378 18.3899 41.3933 18.5957 41.3058L20.5752 40.4386L20.958 38.3781L20.959 38.3712L20.9609 38.3634C21.0082 38.1455 21.1146 37.9446 21.2676 37.7823C21.4206 37.6201 21.6152 37.5024 21.8301 37.4425Z" fill="black" stroke="black"/>
<path d="M47.0958 2.99014C47.3105 2.93035 47.5373 2.93061 47.7521 2.99014C47.9132 3.03484 48.0631 3.11173 48.1925 3.21573L48.3156 3.32901L49.7833 4.88565L51.9454 4.59854C51.9975 4.59165 52.0502 4.58828 52.1027 4.5878C52.3137 4.58329 52.5225 4.63499 52.7072 4.73721C52.8919 4.83954 53.0462 4.98944 53.1544 5.17081C53.2625 5.35204 53.3211 5.55845 53.3234 5.76944C53.3256 5.98061 53.2714 6.18932 53.1671 6.37296L53.1632 6.37881L52.0948 8.19424L53.0392 10.0829C53.1275 10.267 53.1671 10.471 53.1544 10.6747C53.1417 10.8783 53.0772 11.0754 52.9669 11.247C52.8565 11.4187 52.7037 11.5591 52.5236 11.6552C52.346 11.7499 52.1476 11.7972 51.9464 11.7948V11.7958C51.9448 11.7958 51.9432 11.7948 51.9415 11.7948C51.9404 11.7948 51.9388 11.7958 51.9376 11.7958V11.7948C51.8991 11.7945 51.8607 11.7938 51.8224 11.7899L51.6993 11.7714L49.5607 11.3456L47.9894 12.8046C47.7655 13.0136 47.4712 13.1299 47.1652 13.1317C47.1629 13.1318 47.1606 13.1317 47.1583 13.1317L47.1554 13.1327V13.1317C46.8613 13.135 46.5757 13.0319 46.3527 12.8398C46.127 12.6452 45.9816 12.3736 45.9435 12.078L45.9425 12.0712L45.7023 9.99112L43.7892 8.99991V8.99893C43.5893 8.89742 43.4214 8.74152 43.3068 8.54874C43.1909 8.35372 43.1339 8.12898 43.1417 7.90225C43.1496 7.67551 43.2225 7.45597 43.3517 7.26944C43.4791 7.08546 43.6556 6.94096 43.8615 6.85342L45.8409 5.98624L46.2238 3.92569L46.2247 3.91885L46.2267 3.91104C46.274 3.69308 46.3803 3.49224 46.5333 3.32999C46.6864 3.16776 46.881 3.05005 47.0958 2.99014Z" fill="black" stroke="black"/>
<path d="M10.3359 -0.5C10.8378 -0.5 11.3309 -0.365242 11.7627 -0.109375C12.1943 0.146468 12.5491 0.513988 12.79 0.954102L15.2393 5.43262L19.7178 7.88184C20.1579 8.12278 20.5254 8.47753 20.7812 8.90918C21.0371 9.34093 21.1719 9.83406 21.1719 10.3359C21.1718 10.8376 21.037 11.3301 20.7812 11.7617C20.5254 12.1935 20.158 12.5491 19.7178 12.79L15.2383 15.2383L12.79 19.7168C12.5492 20.1569 12.1943 20.5244 11.7627 20.7803C11.3309 21.0362 10.8378 21.1709 10.3359 21.1709C9.83405 21.1709 9.34094 21.0362 8.90918 20.7803C8.47762 20.5244 8.12272 20.1569 7.88184 19.7168L5.43262 15.2383L0.954102 12.79C0.513855 12.5491 0.146504 12.1935 -0.109375 11.7617C-0.365103 11.3301 -0.499952 10.8376 -0.5 10.3359C-0.5 9.83406 -0.365256 9.34093 -0.109375 8.90918C0.146459 8.47753 0.51397 8.12279 0.954102 7.88184L5.43164 5.43262L7.88184 0.954102C8.12282 0.513897 8.47843 0.146479 8.91016 -0.109375C9.34179 -0.365067 9.83424 -0.499995 10.3359 -0.5ZM9.94727 8.83594C9.72265 9.24623 9.39927 9.59256 9.00781 9.84473L8.83594 9.94727L8.12598 10.335L8.83594 10.7236V10.7246C9.30491 10.9813 9.69056 11.367 9.94727 11.8359L10.3359 12.5459L10.7246 11.8359C10.9813 11.367 11.367 10.9813 11.8359 10.7246V10.7236L12.5449 10.335L11.8359 9.94727C11.367 9.69058 10.9813 9.30489 10.7246 8.83594L10.3359 8.12402L9.94727 8.83594Z" fill="black" stroke="black"/>
<path d="M117.558 9.93227C118.273 9.73885 119.036 9.8373 119.679 10.2057C120.322 10.5742 120.792 11.1831 120.987 11.8981C121.181 12.613 121.084 13.3757 120.717 14.0192C120.354 14.6554 119.755 15.1211 119.051 15.3209L119.052 15.3229C115.04 16.6455 111.483 19.0736 108.79 22.3278C106.097 25.5819 104.377 29.5302 103.828 33.7184L103.826 33.7291C103.771 34.0921 103.644 34.4406 103.453 34.7545C103.263 35.0685 103.012 35.342 102.716 35.5592C102.42 35.7762 102.084 35.9329 101.728 36.0202C101.371 36.1075 101 36.1239 100.637 36.068C100.274 36.0121 99.9255 35.8855 99.6116 35.695C99.2976 35.5044 99.024 35.2538 98.8069 34.9577C98.5898 34.6615 98.4332 34.3251 98.3459 33.9684C98.2587 33.6118 98.2423 33.2414 98.2981 32.8786C99.0052 27.628 101.187 22.6857 104.591 18.6256C107.997 14.5632 112.486 11.551 117.536 9.9391L117.547 9.9352L117.558 9.93227Z" fill="black" stroke="black"/>
<path d="M106.509 35.7012C110.268 26.4029 119.729 24.4942 124.204 24.7705L124.479 24.8018C125.113 24.905 125.696 25.2234 126.125 25.709C126.616 26.2639 126.866 26.9912 126.822 27.7305C126.777 28.4698 126.441 29.1615 125.887 29.6534C125.334 30.1444 124.609 30.3956 123.87 30.3535V30.3545C123.695 30.3454 121.424 30.2482 118.807 31.1416C116.201 32.0311 113.274 33.8916 111.695 37.7969C111.417 38.4845 110.876 39.0336 110.194 39.3233C109.511 39.6129 108.741 39.6198 108.053 39.3418C107.366 39.0638 106.816 38.5235 106.527 37.8409C106.237 37.1582 106.231 36.3886 106.509 35.7012Z" fill="black" stroke="black"/>
<path d="M124.514 37.4425C124.729 37.383 124.955 37.3827 125.17 37.4425C125.385 37.5025 125.579 37.6201 125.733 37.7824C125.847 37.904 125.935 38.0474 125.992 38.2033L126.039 38.3634L126.04 38.3712L126.042 38.3781L126.424 40.4386L128.404 41.3058H128.403C128.61 41.3933 128.787 41.5376 128.914 41.7218C129.043 41.9084 129.116 42.1279 129.124 42.3546C129.132 42.5814 129.075 42.8061 128.959 43.0011C128.844 43.1941 128.676 43.3498 128.476 43.4513L126.563 44.4435L126.323 46.5236L126.322 46.5304C126.284 46.826 126.139 47.0976 125.913 47.2921C125.69 47.4845 125.404 47.5876 125.109 47.5841L125.11 47.5851C125.109 47.5851 125.108 47.5841 125.107 47.5841C125.104 47.5841 125.102 47.5852 125.1 47.5851V47.5841C124.793 47.5821 124.498 47.4657 124.275 47.256V47.255L122.704 45.798L120.567 46.2238C120.485 46.2401 120.402 46.249 120.319 46.2492L120.318 46.2472C120.118 46.2495 119.92 46.2022 119.742 46.1076C119.562 46.0114 119.409 45.8711 119.299 45.6994C119.189 45.5277 119.124 45.3308 119.111 45.1271C119.099 44.9233 119.138 44.7194 119.227 44.5353L119.231 44.5275L120.17 42.6466L119.103 40.8322L119.099 40.8253C118.994 40.6417 118.94 40.433 118.943 40.2218C118.945 40.0108 119.003 39.8044 119.111 39.6232C119.22 39.4418 119.374 39.2919 119.559 39.1896C119.74 39.0891 119.945 39.0376 120.152 39.0402C120.208 39.0403 120.265 39.0436 120.32 39.0509V39.0519L122.482 39.338L123.95 37.7814C124.104 37.6193 124.299 37.5022 124.514 37.4425Z" fill="black" stroke="black"/>
<path d="M99.248 2.99017C99.4628 2.93065 99.6896 2.93037 99.9043 2.99017C100.119 3.05009 100.314 3.16777 100.467 3.33002C100.581 3.45162 100.67 3.59499 100.727 3.75092L100.773 3.91107L100.774 3.91888L100.776 3.92572L101.158 5.98627L103.139 6.85345H103.138C103.344 6.94097 103.521 7.08524 103.648 7.26947C103.778 7.45599 103.85 7.67553 103.858 7.90228C103.866 8.12902 103.809 8.35376 103.693 8.54877C103.579 8.74181 103.41 8.89745 103.21 8.99896L101.297 9.99115L101.058 12.0712L101.057 12.0781C101.019 12.3736 100.873 12.6452 100.647 12.8398C100.424 13.0322 100.138 13.1352 99.8438 13.1318L99.8447 13.1328C99.8434 13.1328 99.8421 13.1318 99.8408 13.1318C99.8385 13.1317 99.8363 13.1328 99.834 13.1328V13.1318C99.5282 13.1298 99.2344 13.0135 99.0107 12.8046L97.4375 11.3456L95.2998 11.7704L95.3008 11.7714C95.2192 11.7878 95.1359 11.7967 95.0527 11.7968V11.7949C94.8518 11.7971 94.653 11.7499 94.4756 11.6552C94.2957 11.5591 94.1435 11.4186 94.0332 11.247C93.9229 11.0754 93.8584 10.8784 93.8457 10.6747C93.8331 10.471 93.8727 10.267 93.9609 10.0829L93.9648 10.0751L94.9043 8.19427L93.8369 6.37885L93.833 6.37299C93.7287 6.18937 93.6745 5.98064 93.6768 5.76947C93.6791 5.55849 93.7376 5.35209 93.8457 5.17084C93.9539 4.98945 94.1082 4.83957 94.293 4.73724C94.4746 4.63669 94.6792 4.5852 94.8867 4.58783C94.9427 4.58789 94.9992 4.59122 95.0547 4.59857L97.2158 4.88568L98.6846 3.32904C98.8379 3.16694 99.0331 3.04983 99.248 2.99017Z" fill="black" stroke="black"/>
<path d="M136.664 -0.499985C137.166 -0.500022 137.658 -0.365045 138.09 -0.10936C138.522 0.14649 138.877 0.513876 139.118 0.954117L141.567 5.43263L146.046 7.88185C146.486 8.1228 146.854 8.47755 147.109 8.90919C147.365 9.34094 147.5 9.83407 147.5 10.336C147.5 10.8376 147.365 11.3301 147.109 11.7617C146.853 12.1935 146.486 12.5491 146.046 12.7901L141.566 15.2383L139.118 19.7168C138.877 20.157 138.522 20.5244 138.091 20.7803C137.659 21.0362 137.166 21.1719 136.664 21.1719C136.162 21.1718 135.669 21.0363 135.237 20.7803C134.806 20.5243 134.451 20.157 134.21 19.7168L131.762 15.2393L127.283 12.7901C126.843 12.5493 126.476 12.1943 126.22 11.7627C125.964 11.331 125.828 10.8379 125.828 10.336C125.828 9.83396 125.964 9.34098 126.22 8.90919C126.476 8.47754 126.843 8.12263 127.283 7.88185L131.761 5.43166L134.21 0.955093C134.451 0.51486 134.806 0.147602 135.237 -0.108383C135.669 -0.364378 136.162 -0.499915 136.664 -0.499985ZM136.276 8.83498C136.02 9.30459 135.634 9.69065 135.164 9.94728L134.454 10.335L135.164 10.7236C135.633 10.9801 136.019 11.3666 136.275 11.836L136.664 12.5449L137.053 11.836C137.309 11.367 137.695 10.9813 138.164 10.7246V10.7236L138.874 10.335L138.164 9.94728C137.695 9.6906 137.309 9.3049 137.053 8.83595L136.664 8.12502L136.276 8.83498Z" fill="black" stroke="black"/>
<path d="M73.5 9.83565C74.0019 9.83565 74.495 9.97039 74.9268 10.2263C75.3584 10.4821 75.7132 10.8496 75.9541 11.2897L78.4033 15.7683L82.8818 18.2175C83.322 18.4584 83.6895 18.8132 83.9453 19.2448C84.2012 19.6766 84.3359 20.1697 84.3359 20.6716C84.3359 21.1733 84.2011 21.6657 83.9453 22.0974C83.6894 22.5291 83.3221 22.8847 82.8818 23.1257L78.4023 25.5739L75.9541 30.0524C75.7132 30.4926 75.3583 30.8601 74.9268 31.1159C74.495 31.3718 74.0019 31.5075 73.5 31.5075C72.9982 31.5075 72.5059 31.3717 72.0742 31.1159C71.6425 30.86 71.2869 30.4927 71.0459 30.0524L68.5967 25.5739L64.1182 23.1257C63.6779 22.8847 63.3106 22.5291 63.0547 22.0974C62.799 21.6658 62.6641 21.1733 62.6641 20.6716C62.6641 20.1697 62.7988 19.6766 63.0547 19.2448C63.3105 18.8132 63.678 18.4584 64.1182 18.2175L68.5957 15.7683L71.0459 11.2897C71.2869 10.8496 71.6425 10.4821 72.0742 10.2263C72.5059 9.97058 72.9983 9.83566 73.5 9.83565ZM73.1113 19.1716C72.8867 19.5819 72.5633 19.9282 72.1719 20.1804L72 20.2829L71.2891 20.6706L72 21.0593V21.0603C72.469 21.317 72.8546 21.7026 73.1113 22.1716L73.5 22.8815L73.8887 22.1716C74.1454 21.7026 74.5311 21.317 75 21.0603V21.0593L75.71 20.6706L75 20.2829C74.531 20.0262 74.1454 19.6405 73.8887 19.1716L73.5 18.4597L73.1113 19.1716Z" fill="black" stroke="black"/>
<path d="M129.125 76.944C129.125 77.6856 128.83 78.3971 128.306 78.9215C127.781 79.4459 127.07 79.7408 126.328 79.7408C125.587 79.7408 124.875 79.4458 124.351 78.9215C123.892 78.4626 123.609 77.8605 123.545 77.2203L123.531 76.944C123.507 75.1364 124.082 73.3716 125.165 71.9244L125.175 71.9108C125.598 71.3832 125.828 70.7274 125.828 70.0514C125.828 69.3755 125.598 68.7196 125.175 68.192L125.168 68.1832L125.161 68.1735C124.102 66.7166 123.532 64.9619 123.531 63.1608C123.531 61.3595 124.102 59.604 125.161 58.1471L125.172 58.1315L125.185 58.1178C125.618 57.6078 125.847 56.9547 125.828 56.2858V56.2721C125.828 55.5303 126.123 54.8191 126.648 54.2946C127.172 53.7701 127.884 53.4752 128.625 53.4752C129.367 53.4753 130.078 53.7701 130.603 54.2946C131.126 54.8175 131.42 55.526 131.422 56.2653L131.419 56.6041C131.373 58.2942 130.805 59.9319 129.788 61.2897L129.782 61.2965L129.778 61.3033C129.355 61.8303 129.125 62.4854 129.125 63.1608C129.125 63.7517 129.301 64.3274 129.628 64.8151L129.778 65.0192L129.785 65.028L129.792 65.0377C130.851 66.4949 131.422 68.25 131.422 70.0514C131.422 71.8529 130.851 73.6088 129.792 75.066L129.781 75.0807L129.769 75.0953C129.336 75.6065 129.107 76.2596 129.125 76.9293V76.944Z" fill="black" stroke="black"/>
<path d="M118.789 76.944C118.789 77.6856 118.494 78.3971 117.97 78.9215C117.446 79.4459 116.734 79.7408 115.992 79.7408C115.251 79.7408 114.539 79.4458 114.015 78.9215C113.556 78.4626 113.273 77.8605 113.209 77.2203L113.196 76.944C113.171 75.1364 113.746 73.3716 114.829 71.9244L114.839 71.9108C115.262 71.3832 115.492 70.7274 115.492 70.0514C115.492 69.3755 115.262 68.7196 114.839 68.192L114.832 68.1832L114.825 68.1735C113.766 66.7166 113.196 64.9619 113.196 63.1608C113.196 61.3595 113.766 59.604 114.825 58.1471L114.836 58.1315L114.849 58.1178C115.282 57.6078 115.511 56.9547 115.492 56.2858V56.2721C115.492 55.5303 115.787 54.8191 116.312 54.2946C116.836 53.7701 117.548 53.4752 118.289 53.4752C119.031 53.4753 119.742 53.7701 120.267 54.2946C120.79 54.8175 121.084 55.526 121.086 56.2653L121.083 56.6041C121.037 58.2942 120.469 59.9319 119.452 61.2897L119.447 61.2965L119.442 61.3033C119.019 61.8303 118.789 62.4854 118.789 63.1608C118.789 63.7517 118.965 64.3274 119.292 64.8151L119.442 65.0192L119.449 65.028L119.456 65.0377C120.515 66.4949 121.086 68.25 121.086 70.0514C121.086 71.8529 120.516 73.6088 119.456 75.066L119.446 75.0807L119.433 75.0953C119 75.6065 118.771 76.2596 118.789 76.9293V76.944Z" fill="black" stroke="black"/>
<path d="M18.3752 53.4752C19.117 53.4753 19.8283 53.7701 20.3528 54.2946C20.8772 54.8191 21.1721 55.5304 21.1721 56.2721V56.2858C21.1557 56.871 21.3285 57.444 21.6624 57.9196L21.8157 58.1178L21.8274 58.1315L21.8391 58.1471C22.8983 59.604 23.469 61.3595 23.469 63.1608C23.4689 64.9619 22.8982 66.7167 21.8391 68.1735L21.8323 68.1832L21.8245 68.192C21.4019 68.7196 21.1722 69.3755 21.1721 70.0514C21.1721 70.7272 21.402 71.3832 21.8245 71.9108L21.8303 71.9176L21.8352 71.9244C22.9187 73.3716 23.4932 75.1364 23.469 76.944L23.4553 77.2203C23.3917 77.8605 23.1085 78.4626 22.6497 78.9215C22.1252 79.4459 21.4138 79.7408 20.6721 79.7408C19.9305 79.7408 19.2191 79.4458 18.6946 78.9215C18.1702 78.3971 17.8754 77.6856 17.8752 76.944V76.9293C17.8937 76.2594 17.664 75.6066 17.2307 75.0953L17.2209 75.0836L17.2122 75.0719C16.127 73.6228 15.5526 71.8547 15.5784 70.0446C15.5558 68.2394 16.1299 66.4771 17.2122 65.0319L17.217 65.025L17.2219 65.0192C17.6444 64.4921 17.8752 63.8363 17.8752 63.1608C17.8752 62.4853 17.6444 61.8304 17.2219 61.3033L17.2122 61.2897C16.1274 59.8413 15.5529 58.0746 15.5784 56.2653C15.5802 55.5259 15.8748 54.8175 16.3977 54.2946C16.9222 53.7701 17.6335 53.4752 18.3752 53.4752Z" fill="black" stroke="black"/>
<path d="M28.7112 53.4752C29.4529 53.4753 30.1643 53.7701 30.6887 54.2946C31.2132 54.8191 31.5081 55.5304 31.5081 56.2721V56.2858C31.4916 56.871 31.6645 57.444 31.9983 57.9196L32.1516 58.1178L32.1633 58.1315L32.175 58.1471C33.2343 59.604 33.8049 61.3595 33.8049 63.1608C33.8048 64.9619 33.2341 66.7167 32.175 68.1735L32.1682 68.1832L32.1604 68.192C31.7379 68.7196 31.5081 69.3755 31.5081 70.0514C31.5081 70.7272 31.738 71.3832 32.1604 71.9108L32.1663 71.9176L32.1711 71.9244C33.2547 73.3716 33.8291 75.1364 33.8049 76.944L33.7913 77.2203C33.7276 77.8605 33.4445 78.4626 32.9856 78.9215C32.4611 79.4459 31.7497 79.7408 31.0081 79.7408C30.2664 79.7408 29.555 79.4458 29.0305 78.9215C28.5061 78.3971 28.2113 77.6856 28.2112 76.944V76.9293C28.2297 76.2594 28 75.6066 27.5667 75.0953L27.5569 75.0836L27.5481 75.0719C26.463 73.6228 25.8886 71.8547 25.9143 70.0446C25.8918 68.2394 26.4658 66.4771 27.5481 65.0319L27.553 65.025L27.5579 65.0192C27.9804 64.4921 28.2112 63.8363 28.2112 63.1608C28.2112 62.4853 27.9803 61.8304 27.5579 61.3033L27.5481 61.2897C26.4634 59.8413 25.8889 58.0746 25.9143 56.2653C25.9161 55.5259 26.2107 54.8175 26.7336 54.2946C27.2581 53.7701 27.9695 53.4752 28.7112 53.4752Z" fill="black" stroke="black"/>
</g>
<defs>
<clipPath id="clip0_33_43">
<rect width="147" height="147" fill="white"/>
</clipPath>
</defs>
</svg>
