<svg version="1.2" xmlns="http://www.w3.org/2000/svg" viewBox="0 0 45 45" width="45" height="45">
	<defs>
		<clipPath clipPathUnits="userSpaceOnUse" id="cp1">
			<path d="m13 9.5h18.9v25.5h-18.9z"/>
		</clipPath>
	</defs>
	<style>
		.s0 { fill: #656565 } 
		.s1 { fill: #ffc426 } 
	</style>
	<path id="Ellipse 1" fill-rule="evenodd" class="s0" d="m22.5 45c-12.44 0-22.5-10.06-22.5-22.5 0-12.44 10.06-22.5 22.5-22.5 12.44 0 22.5 10.06 22.5 22.5 0 12.44-10.06 22.5-22.5 22.5z"/>
	<g id="Group 21">
		<g id="Group 20" clip-path="url(#cp1)">
			<path id="Path 46" fill-rule="evenodd" class="s1" d="m26.13 9.87q0.28 0.29 0.32 0.68 0.03 0.27-0.13 0.7-0.6 1.52-1.28 3.04-0.02 0.06 0.04 0.09l1.98 0.85q0.07 0.02 0.11-0.05 0.59-1.42 1.22-2.84 0.22-0.51 0.45-0.71 0.38-0.32 0.86-0.27 0.6 0.07 0.93 0.54 0.24 0.35 0.19 0.81-0.03 0.23-0.26 0.76-0.58 1.34-1.15 2.69-0.02 0.06 0.04 0.09 1.02 0.49 1.64 1.34 0.59 0.79 0.75 1.8 0.24 1.43-0.52 2.75-0.28 0.48-0.69 0.88-0.4 0.39-0.9 0.66-1.48 0.79-3.2 0.33-0.19-0.05-0.02 0.04 1.72 0.98 2.05 2.84 0.18 1-0.09 1.94-0.23 0.79-0.75 1.44-0.49 0.62-1.21 1.02-1.64 0.91-3.58 0.22-0.05-0.01-0.07 0.03-0.59 1.35-1.15 2.68-0.34 0.78-1.08 0.78-0.62 0-1-0.44-0.29-0.34-0.27-0.81 0.02-0.28 0.23-0.79 0.51-1.18 1.01-2.39 0.01-0.04-0.03-0.06l-2.01-0.87q-0.04-0.01-0.07 0.03-0.51 1.19-1.02 2.38-0.22 0.52-0.39 0.71-0.32 0.35-0.77 0.37-0.61 0.04-1.01-0.38-0.31-0.32-0.31-0.8 0-0.29 0.2-0.78 0.5-1.21 1.04-2.42 0.02-0.09-0.06-0.13-0.98-0.39-1.95-0.83-0.54-0.25-0.78-0.51-0.5-0.55-0.43-1.27 0.03-0.36 0.39-1.2 4.89-11.48 4.93-11.55 0.79-1.28 2.25-0.79 1.06 0.47 2.14 0.91 0.04 0.01 0.06-0.03 0.67-1.56 1.34-3.12 0.24-0.56 0.84-0.69 0.7-0.16 1.17 0.33zm-0.54 16.5q-0.11-0.08-0.23-0.13-2.15-0.93-4.33-1.87-0.84-0.37-1.15-0.66-0.56-0.53-0.7-1.31-0.08-0.47 0.03-0.95 0.11-0.51 0.37-0.9 0.97-1.41 2.72-0.99 0.19 0.05 4.44 1.88 0.72 0.31 1.1 0.32 0.77 0.02 1.14-0.61 0.34-0.58 0.12-1.2-0.23-0.65-1-0.9-1.75-0.76-3.5-1.5-1.29-0.55-1.84-0.68-2.06-0.49-3.84 0.6-0.85 0.53-1.43 1.31-0.6 0.8-0.88 1.76-0.27 0.94-0.17 1.94 0.22 2.25 2.01 3.6 0.47 0.35 1.35 0.74 2.14 0.94 4.29 1.84 0.76 0.36 1.36 0.04 0.58-0.32 0.71-0.98 0.15-0.76-0.57-1.35z"/>
		</g>
	</g>
</svg>