<?xml version="1.0" encoding="UTF-8"?>
<svg id="Layer_1" xmlns="http://www.w3.org/2000/svg" version="1.1" viewBox="0 0 200 200">
  <!-- Generator: Adobe Illustrator 29.5.0, SVG Export Plug-In . SVG Version: 2.1.0 Build 137)  -->
  <defs>
    <style>
      .st0 {
        fill: #8df;
      }
    </style>
  </defs>
  <g id="cecentralized">
    <path id="Path_24" class="st0" d="M147.4,96c2.7,4.9,9,6.6,13.9,3.9s6.6-9,3.9-13.9-9-6.6-13.9-3.9c-2.6,1.5-4.5,4.2-5.1,7.2l-28.2,4.9c-.6-2.2-1.6-4.3-2.9-6.1l18.1-21.5c5.3,2,11.2-.7,13.2-6,2-5.3-.7-11.2-6-13.2-5.3-2-11.2.7-13.2,6-1.1,2.9-.9,6.1.8,8.8l-17.8,21.2c-2.1-1.3-4.4-2.3-6.7-2.6v-27.4c5.3-1.9,8.1-7.8,6.2-13.1s-7.8-8.1-13.1-6.2c-5.3,1.9-8.1,7.8-6.2,13.1,1,2.9,3.3,5.2,6.2,6.2v27.4c-2.4.5-4.6,1.3-6.7,2.6l-17.8-21.2c2.8-4.8,1.2-11.2-3.6-14s-11.2-1.2-14,3.6-1.2,11.2,3.6,14c2.6,1.6,5.9,1.9,8.8.8l18.1,21.6c-1.3,1.8-2.3,3.9-2.9,6.1l-28.2-5c-.9-5.6-6.2-9.4-11.8-8.4s-9.4,6.2-8.4,11.8,6.2,9.4,11.8,8.4c3-.5,5.7-2.4,7.2-5.1l28.8,5.1c.2,2,.8,3.9,1.5,5.7l-25.8,14.9c-4.3-3.7-10.8-3.1-14.5,1.1-3.7,4.3-3.1,10.8,1.1,14.5s10.8,3.1,14.5-1.1c2-2.4,2.8-5.5,2.3-8.5l26.3-15.1c1.2,1.2,2.6,2.3,4.2,3.1l-10.5,28.8c-5.7,0-10.3,4.4-10.3,10.1s4.4,10.3,10.1,10.3,10.3-4.4,10.3-10.1-1.3-6.1-3.7-8l10.6-29c1.6.2,3.3.2,4.9,0l10.6,29c-4.4,3.6-5,10-1.4,14.4,3.6,4.4,10,5,14.4,1.4,4.4-3.6,5-10,1.4-14.4-2-2.4-4.9-3.8-8-3.7l-10.5-28.8c1.5-.9,2.9-1.9,4.2-3.1l26.3,15.1c-1,5.6,2.6,10.9,8.2,11.9,5.6,1,10.9-2.6,11.9-8.2s-2.6-10.9-8.2-11.9c-3-.6-6.1.3-8.5,2.3l-25.8-14.9c.9-1.8,1.3-3.7,1.5-5.7l28.8-5.1h0Z"/>
  </g>
</svg>