<svg version="1.2" xmlns="http://www.w3.org/2000/svg" viewBox="0 0 16 16" width="100" height="100">
	<defs>
		<linearGradient id="g1" x2="1" gradientUnits="userSpaceOnUse" gradientTransform="matrix(0,15.405,-15.405,0,8,0)">
			<stop offset="0" stop-color="#fccb34"/>
			<stop offset="1" stop-color="#ce6e01"/>
		</linearGradient>
	</defs>
	<style>
		.s0 { fill: url(#g1) } 
	</style>
	<path id="Icon fa-solid-coins" class="s0" d="m15.7 2.41c0 0.54-0.43 1.04-1.15 1.44-0.88 0.49-2.18 0.83-3.68 0.93q-0.17-0.08-0.34-0.15c-1.19-0.5-2.76-0.78-4.46-0.78q-0.37 0-0.73 0.02l-0.04-0.02c-0.72-0.4-1.15-0.9-1.15-1.44 0-1.33 2.59-2.41 5.78-2.41 3.19 0 5.77 1.08 5.77 2.41zm-10.57 2.44q0.46-0.04 0.94-0.04c1.88 0 3.54 0.37 4.59 0.95 0.75 0.41 1.19 0.91 1.19 1.46q0 0.18-0.06 0.35c-0.14 0.4-0.51 0.76-1.05 1.07q-0.01 0-0.02 0.01-0.01 0-0.02 0.01c-1.06 0.59-2.74 0.97-4.63 0.97-1.79 0-3.39-0.34-4.45-0.88q-0.09-0.04-0.17-0.09c-0.72-0.4-1.15-0.9-1.15-1.44 0-1.05 1.6-1.94 3.85-2.27q0.47-0.07 0.98-0.1zm7.68 2.37c0-0.66-0.31-1.2-0.72-1.61q1.29-0.2 2.29-0.61 0.75-0.31 1.32-0.77v1.07c0 0.58-0.49 1.11-1.32 1.53q-0.66 0.33-1.57 0.55 0-0.08 0-0.16zm-0.96 2.89c0 0.54-0.43 1.04-1.15 1.44q-0.08 0.05-0.17 0.09c-1.06 0.54-2.66 0.88-4.46 0.88-1.89 0-3.56-0.38-4.62-0.97-0.72-0.4-1.15-0.9-1.15-1.44v-1.07q0.57 0.47 1.32 0.77c1.19 0.5 2.76 0.78 4.45 0.78 1.7 0 3.27-0.28 4.46-0.78q0.35-0.14 0.67-0.33 0.28-0.15 0.52-0.33 0.07-0.05 0.13-0.11zm0.96 0v-1.74q0.86-0.19 1.57-0.48 0.75-0.3 1.32-0.77v1.07q0 0.48-0.45 0.93c-0.49 0.49-1.35 0.89-2.44 1.15q0-0.07 0-0.16zm-6.74 3.37c1.7 0 3.27-0.28 4.46-0.77q0.75-0.31 1.32-0.77v1.06c0 1.33-2.59 2.41-5.78 2.41-3.19 0-5.77-1.08-5.77-2.41v-1.06q0.57 0.46 1.32 0.77c1.19 0.49 2.76 0.77 4.45 0.77z"/>
</svg>