<?xml version="1.0" encoding="UTF-8"?>
<svg id="Layer_1" xmlns="http://www.w3.org/2000/svg" version="1.1" viewBox="0 0 200 200">
  <!-- Generator: Adobe Illustrator 29.4.0, SVG Export Plug-In . SVG Version: 2.1.0 Build 152)  -->
  <defs>
    <style>
      .st0, .st1 {
        fill: #3d44c1;
      }

      .st1 {
        fill-rule: evenodd;
      }
    </style>
  </defs>
  <g id="roll-the-dice-playable-icn">
    <g id="Group_4">
      <path id="Path_8" class="st0" d="M63.7,76.7c0-7.7,6.2-14,14-14h0c7.7,0,14,6.2,14,14h0c-.2,7.7-6.4,13.9-14,14h0c-7.6.2-13.8-5.8-14-13.4v-.7h0Z"/>
      <path id="Path_9" class="st0" d="M77.7,109.3c-7.7,0-14,6.2-14,14h0c.2,7.7,6.4,13.9,14,14h0c7.7,0,14-6.2,14-14h0c.2-7.6-5.8-13.8-13.4-14h-.7,0Z"/>
      <path id="Path_10" class="st0" d="M108,76.7c0-7.7,6.2-14,14-14h0c7.7,0,14,6.2,14,14h0c-.2,7.7-6.4,13.9-14,14h0c-7.6.2-13.8-5.8-14-13.4v-.7h0Z"/>
      <path id="Path_11" class="st0" d="M122,109.3c-7.7,0-14,6.2-14,14h0c.2,7.7,6.4,13.9,14,14h0c7.7,0,14-6.2,14-14h0c.2-7.6-5.8-13.8-13.4-14h-.7,0Z"/>
    </g>
    <path id="Path_12" class="st1" d="M50.4,30.6c-10.9,0-19.7,8.7-19.8,19.5v99.5c0,10.9,8.7,19.7,19.5,19.8h99.5c10.9,0,19.7-8.7,19.8-19.5V50.4c0-10.9-8.7-19.7-19.5-19.8h-.3s-99.2,0-99.2,0ZM156.4,50.4c0-3.7-3-6.7-6.7-6.8H50.4c-3.7,0-6.7,3-6.8,6.7h0v99.2c0,3.7,3,6.7,6.7,6.8h99.2c3.7,0,6.7-3,6.8-6.7h0V50.4h0Z"/>
  </g>
</svg>