<svg version="1.2" xmlns="http://www.w3.org/2000/svg" viewBox="0 0 21 20" width="21" height="20">
	<style>
		.s0 { fill: #ffc426 } 
	</style>
	<path id="Icon core-graph" fill-rule="evenodd" class="s0" d="m20.15 3.24c0 1.45-1.17 2.62-2.61 2.62q-0.08 0-0.16-0.01l-1.71 5.98c1.18 0.75 1.56 2.29 0.87 3.5-0.7 1.21-2.22 1.67-3.46 1.03-1.25-0.64-1.77-2.14-1.19-3.41l-3.06-2.54c-0.66 0.6-1.58 0.82-2.45 0.58l-1.75 3.5c1.07 0.74 1.44 2.14 0.87 3.3-0.56 1.17-1.89 1.74-3.13 1.36-1.24-0.39-2.01-1.62-1.81-2.9 0.2-1.28 1.3-2.22 2.59-2.22q0.12 0 0.25 0.01l1.85-3.7c-0.93-0.9-1.05-2.35-0.3-3.4 0.76-1.05 2.17-1.39 3.32-0.79 1.15 0.59 1.7 1.93 1.28 3.16l3.16 2.62c0.45-0.33 0.99-0.51 1.56-0.51q0.08 0 0.16 0l1.7-5.97c-0.98-0.63-1.43-1.82-1.11-2.94 0.33-1.12 1.35-1.88 2.52-1.88 1.44 0 2.61 1.17 2.61 2.61zm-15.69 13.41c0-0.73-0.59-1.31-1.31-1.31-0.72 0-1.31 0.58-1.31 1.31 0 0.72 0.59 1.3 1.31 1.3 0.72 0 1.31-0.58 1.31-1.3zm3.92-8.18c0-0.72-0.58-1.3-1.31-1.3-0.72 0-1.3 0.58-1.3 1.3 0 0.73 0.58 1.31 1.3 1.31 0.73 0 1.31-0.58 1.31-1.31zm7.19 5.56c0-0.72-0.58-1.31-1.3-1.31-0.73 0-1.31 0.59-1.31 1.31 0 0.72 0.58 1.31 1.31 1.31 0.72 0 1.3-0.59 1.3-1.31zm3.27-10.79c0-0.72-0.58-1.3-1.3-1.3-0.73 0-1.31 0.58-1.31 1.3 0 0.73 0.58 1.31 1.31 1.31 0.72 0 1.3-0.59 1.3-1.31z"/>
</svg>