<svg xmlns="http://www.w3.org/2000/svg" version="1.1" xmlns:xlink="http://www.w3.org/1999/xlink" width="512" height="512" x="0" y="0" viewBox="0 0 64 64" style="enable-background:new 0 0 512 512" xml:space="preserve" class=""><g><path d="M50 8H14c-3.309 0-6 2.691-6 6v36c0 3.309 2.691 6 6 6h36c3.309 0 6-2.691 6-6V14c0-3.309-2.691-6-6-6zm-36 4h36c1.103 0 2 .897 2 2v8H12v-8c0-1.103.897-2 2-2zm-2 38V26h10v26h-8c-1.103 0-2-.897-2-2zm38 2H26V26h26v24c0 1.103-.897 2-2 2z" fill="#88ddff" opacity="1" data-original="#000000"></path></g></svg>