<?xml version="1.0" encoding="UTF-8"?>
<svg id="Layer_1" xmlns="http://www.w3.org/2000/svg" version="1.1" viewBox="0 0 200 200">
  <!-- Generator: Adobe Illustrator 29.5.0, SVG Export Plug-In . SVG Version: 2.1.0 Build 137)  -->
  <defs>
    <style>
      .st0 {
        stroke-width: 5px;
      }

      .st0, .st1 {
        fill: none;
        stroke: #8df;
        stroke-linecap: round;
        stroke-linejoin: round;
      }

      .st1 {
        stroke-width: 7px;
      }
    </style>
  </defs>
  <g>
    <polygon class="st0" points="119.3 109.3 100 121.3 80.6 109.3 80.6 89.7 100 78.7 119.3 89.7 119.3 109.3"/>
    <polyline class="st0" points="80.6 89.7 100 100.9 119.3 89.7"/>
    <line class="st0" x1="100" y1="100.9" x2="100" y2="121.3"/>
  </g>
  <g>
    <g>
      <line class="st1" x1="100.2" y1="70.2" x2="100.2" y2="54.5"/>
      <circle class="st1" cx="100.2" cy="44.9" r="8"/>
    </g>
    <g>
      <line class="st1" x1="100.2" y1="129.8" x2="100.2" y2="145.5"/>
      <circle class="st1" cx="100.2" cy="155.1" r="8"/>
    </g>
  </g>
  <g>
    <g>
      <line class="st1" x1="125.9" y1="115.1" x2="139.4" y2="123"/>
      <circle class="st1" cx="147.7" cy="127.9" r="8"/>
    </g>
    <g>
      <line class="st1" x1="74.4" y1="84.9" x2="60.9" y2="77"/>
      <circle class="st1" cx="52.7" cy="72.1" r="8"/>
    </g>
  </g>
  <g>
    <g>
      <line class="st1" x1="74.4" y1="115.1" x2="60.9" y2="123"/>
      <circle class="st1" cx="52.7" cy="127.9" r="8"/>
    </g>
    <g>
      <line class="st1" x1="125.9" y1="84.9" x2="139.4" y2="77"/>
      <circle class="st1" cx="147.7" cy="72.1" r="8"/>
    </g>
  </g>
  <g>
    <g>
      <line class="st1" x1="74.4" y1="115.1" x2="60.9" y2="123"/>
      <circle class="st1" cx="52.7" cy="127.9" r="8"/>
    </g>
    <g>
      <line class="st1" x1="125.9" y1="84.9" x2="139.4" y2="77"/>
      <circle class="st1" cx="147.7" cy="72.1" r="8"/>
    </g>
  </g>
  <g>
    <g>
      <line class="st1" x1="112.2" y1="78.7" x2="118" y2="69.2"/>
      <circle class="st1" cx="121.5" cy="63.3" r="5.7"/>
    </g>
    <g>
      <line class="st1" x1="87.8" y1="120.1" x2="82" y2="129.7"/>
      <circle class="st1" cx="78.4" cy="135.5" r="5.7"/>
    </g>
  </g>
  <g>
    <g>
      <line class="st1" x1="87.8" y1="78.7" x2="82" y2="69.2"/>
      <circle class="st1" cx="78.4" cy="63.3" r="5.7"/>
    </g>
    <g>
      <line class="st1" x1="112.2" y1="120.1" x2="118" y2="129.7"/>
      <circle class="st1" cx="121.5" cy="135.5" r="5.7"/>
    </g>
  </g>
  <g>
    <g>
      <line class="st1" x1="74.1" y1="99.8" x2="62.9" y2="100.1"/>
      <circle class="st1" cx="56.1" cy="100.2" r="5.7"/>
    </g>
    <g>
      <line class="st1" x1="125.9" y1="99.1" x2="137" y2="98.8"/>
      <circle class="st1" cx="143.8" cy="98.6" r="5.7"/>
    </g>
  </g>
</svg>