<svg xmlns="http://www.w3.org/2000/svg" version="1.1" xmlns:xlink="http://www.w3.org/1999/xlink" width="512" height="512" x="0" y="0" viewBox="0 0 32 32" style="enable-background:new 0 0 512 512" xml:space="preserve" fill-rule="evenodd" class=""><g><path d="M25 19h2a3 3 0 0 1 3 3v5a3 3 0 0 1-3 3H5a3 3 0 0 1-3-3v-5a3 3 0 0 1 3-3h2V5a3 3 0 0 1 3-3h12a3 3 0 0 1 3 3zM7 21H5a1 1 0 0 0-1 1v5a1 1 0 0 0 1 1h22a1 1 0 0 0 1-1v-5a1 1 0 0 0-1-1h-2v2h1a1 1 0 0 1 0 2H6a1 1 0 1 1 0-2h1zm16 2V5a1 1 0 0 0-1-1H10a1 1 0 0 0-1 1v18zm-7.555-2.167-3-2.001a1 1 0 0 1 1.11-1.664l1.445.963V13a1 1 0 0 1 2 0v5.131l1.445-.963a1.001 1.001 0 0 1 1.11 1.663l-3 2.001c-.164.108-.356.168-.555.168s-.391-.06-.555-.168z" fill="#88ddff" opacity="1" data-original="#000000"></path></g></svg>