<svg version="1.2" xmlns="http://www.w3.org/2000/svg" viewBox="0 0 24 24" width="24" height="24">
	<style>
		.s0 { fill: #ffc428 } 
	</style>
	<g id="withdraw-svgrepo-com">
		<path id="Path 36" fill-rule="evenodd" class="s0" d="m0.1 3.45c0-1.79 1.46-3.24 3.25-3.24h17.3c1.79 0 3.25 1.45 3.25 3.24v10.82c0 1.79-1.46 3.24-3.25 3.24h-1.08c-0.6 0-1.08-0.48-1.08-1.08 0-0.6 0.48-1.08 1.08-1.08h1.08c0.6 0 1.08-0.49 1.08-1.08v-6.49h-19.46v6.49c0 0.59 0.48 1.08 1.08 1.08h1.08c0.6 0 1.08 0.48 1.08 1.08 0 0.6-0.48 1.08-1.08 1.08h-1.08c-1.79 0-3.25-1.45-3.25-3.24zm21.63 2.16v-2.16c0-0.6-0.48-1.08-1.08-1.08h-17.3c-0.6 0-1.08 0.48-1.08 1.08v2.16z"/>
		<path id="Path 37" class="s0" d="m10.92 22.92c0 0.6 0.48 1.08 1.08 1.08 0.6 0 1.08-0.48 1.08-1.08v-6.05l1.4 1.4c0.42 0.42 1.11 0.42 1.53 0 0.42-0.42 0.42-1.11 0-1.53l-3.24-3.24c-0.43-0.42-1.11-0.42-1.53 0l-3.25 3.25c-0.42 0.42-0.42 1.1 0 1.53 0.43 0.42 1.11 0.42 1.53 0l1.4-1.4z"/>
	</g>
</svg>