<svg version="1.2" xmlns="http://www.w3.org/2000/svg" viewBox="0 0 42 43" width="100" height="102">
	<defs>
		<linearGradient id="g1" x2="1" gradientUnits="userSpaceOnUse" gradientTransform="matrix(6.988,43,-42.173,6.854,14.011,0)">
			<stop offset="0" stop-color="#491780"/>
			<stop offset="1" stop-color="#14003a"/>
		</linearGradient>
		<linearGradient id="g2" x2="1" gradientUnits="userSpaceOnUse" gradientTransform="matrix(0,17.547,-17.547,0,20.773,11)">
			<stop offset="0" stop-color="#b663fa"/>
			<stop offset="1" stop-color="#6100b1"/>
		</linearGradient>
	</defs>
	<style>
		.s0 { fill: url(#g1);stroke: #5a1389;stroke-miterlimit:100;stroke-width: .8 } 
		.s1 { fill: url(#g2) } 
	</style>
	<path id="Rectangle 150 copy" fill-rule="evenodd" class="s0" d="m21 0c11.6 0 21 9.4 21 21v1c0 11.6-9.4 21-21 21-11.6 0-21-9.4-21-21v-1c0-11.6 9.4-21 21-21z"/>
	<path id="Icon fa-solid-user-large" class="s1" d="m20.77 20.87c2.73 0 4.94-2.21 4.94-4.94 0-2.72-2.21-4.93-4.94-4.93-2.72 0-4.93 2.21-4.93 4.93 0 2.73 2.21 4.94 4.93 4.94zm-3.24 1.1c-3.06 0-5.53 2.47-5.53 5.52 0 0.59 0.47 1.06 1.05 1.06h15.44c0.59 0 1.06-0.48 1.06-1.06 0-3.05-2.48-5.52-5.53-5.52z"/>
</svg>