<svg xmlns="http://www.w3.org/2000/svg" version="1.1" xmlns:xlink="http://www.w3.org/1999/xlink" width="512" height="512" x="0" y="0" viewBox="0 0 128 128" style="enable-background:new 0 0 512 512" xml:space="preserve" class=""><g><path d="M106.665 102.484a5.924 5.924 0 0 0-.364-9.682 5.371 5.371 0 0 0-5.267-.214l-25.587 13.14a6.139 6.139 0 0 0-3.019-3.24L53.585 93.55a5.605 5.605 0 0 0-3.675-.414L31.686 97.26A5.988 5.988 0 0 0 27 94.998h-2a6.006 6.006 0 0 0-6 6v14a6.006 6.006 0 0 0 6 6h2a5.996 5.996 0 0 0 4.94-2.603h4.751a10.16 10.16 0 0 1 2.973.444l23.491 8.867a2.017 2.017 0 0 0 .234.072 7.707 7.707 0 0 0 6.09-1.058l37.089-24.17c.033-.02.065-.043.097-.066ZM29 114.997a2.002 2.002 0 0 1-2 2h-2a2.002 2.002 0 0 1-2-2v-14a2.002 2.002 0 0 1 2-2h2a2.002 2.002 0 0 1 2 2Zm75.325-15.759-37.03 24.13a3.747 3.747 0 0 1-2.854.548l-23.422-8.841a2.1 2.1 0 0 0-.11-.038 14.137 14.137 0 0 0-4.218-.642H33v-13.331l17.792-4.026a1.658 1.658 0 0 1 1.08.127l18.842 8.937a2.27 2.27 0 0 1 1.13 1.397 3.133 3.133 0 0 1-.199 2.421 1.68 1.68 0 0 1-2.14.953l-17.345-7.52a2 2 0 1 0-1.592 3.669l17.346 7.521a5.48 5.48 0 0 0 2.185.46 5.799 5.799 0 0 0 5.064-3.179 6.927 6.927 0 0 0 .66-1.792l27.038-13.886a1.358 1.358 0 0 1 1.328.052 1.817 1.817 0 0 1 .81 1.485 1.862 1.862 0 0 1-.674 1.555ZM33 48.999v6a3.997 3.997 0 0 0 3.008 3.86 2 2 0 0 0 .006.371l2.85 24.462a5.999 5.999 0 0 0 5.96 5.306h38.353a5.999 5.999 0 0 0 5.96-5.306l2.85-24.462a2 2 0 0 0 .005-.37A3.997 3.997 0 0 0 95 54.998v-6a4.005 4.005 0 0 0-4-4H78.478A8.993 8.993 0 0 0 64 34.355a8.993 8.993 0 0 0-14.478 10.644H37a4.005 4.005 0 0 0-4 4Zm24 35.999H44.823a2 2 0 0 1-1.987-1.768l-.26-2.232H57Zm0-8H42.11l-2.097-18H57Zm28.163 6.232a2 2 0 0 1-1.986 1.768H71v-4h14.423Zm.726-6.232H71v-18h16.987Zm5.111-28 .002 6H71v-6ZM66 40a5 5 0 1 1 5 5h-5Zm1 9v35.999h-6v-36Zm-10-14a5.006 5.006 0 0 1 5 5v5h-5a5 5 0 1 1 0-10Zm0 14v6H37v-6ZM25.523 9.07a2 2 0 0 0-1.052 3.858 19.974 19.974 0 0 1 13.552 16.376 2 2 0 0 0 3.954-.609A23.948 23.948 0 0 0 25.523 9.07ZM19.876 22.003a2 2 0 0 0 .24 3.993c.33-.02 8.155-.357 11.03 6.753a2 2 0 0 0 3.708-1.5c-3.174-7.85-11.189-9.478-14.978-9.246ZM16.33 37.45l1.872.97.235 2.04a.617.617 0 0 0 .624.539.625.625 0 0 0 .43-.17l1.532-1.421 2.08.414a.668.668 0 0 0 .13.014.606.606 0 0 0 .558-.869l-.925-1.849 1.05-1.785a.605.605 0 0 0-.538-.903.685.685 0 0 0-.09.005l-2.103.28-1.43-1.518a.632.632 0 0 0-1.078.3l-.375 2.022-1.935.847a.596.596 0 0 0-.037 1.083ZM45.378 4.43a.685.685 0 0 0-.09.006l-2.103.28-1.43-1.518a.632.632 0 0 0-1.078.3l-.375 2.022-1.935.847a.596.596 0 0 0-.037 1.083l1.872.97.235 2.041a.617.617 0 0 0 .624.539.625.625 0 0 0 .43-.17l1.532-1.422 2.08.415a.667.667 0 0 0 .13.013.606.606 0 0 0 .558-.868l-.925-1.849 1.05-1.785a.605.605 0 0 0-.538-.904ZM16.96 7.245 12.949 5.05 10.755 1.04a2 2 0 0 0-3.51 0L5.051 5.051 1.04 7.245a2 2 0 0 0 0 3.51l4.011 2.193 2.194 4.012a2 2 0 0 0 3.51 0l2.194-4.012 4.011-2.193a2 2 0 0 0 0-3.51ZM10.515 9.72a2.002 2.002 0 0 0-.795.795L9 11.832l-.72-1.317a2.002 2.002 0 0 0-.795-.795L6.167 9l1.318-.72a2.002 2.002 0 0 0 .795-.795L9 6.167l.72 1.318a2.002 2.002 0 0 0 .795.795l1.318.72ZM102.477 9.07a23.948 23.948 0 0 0-16.454 19.625 2 2 0 1 0 3.954.608 19.975 19.975 0 0 1 13.55-16.374 2 2 0 0 0-1.05-3.86ZM108.124 22.003c-3.803-.234-11.805 1.397-14.978 9.247a2 2 0 1 0 3.708 1.499c2.87-7.097 10.67-6.772 11.028-6.753a2 2 0 0 0 .242-3.993ZM111.633 36.366l-1.935-.847-.375-2.022a.632.632 0 0 0-1.077-.3l-1.43 1.518-2.105-.28a.686.686 0 0 0-.089-.005.605.605 0 0 0-.539.903l1.05 1.785-.924 1.85a.606.606 0 0 0 .558.868.667.667 0 0 0 .13-.013l2.08-.415 1.533 1.422a.625.625 0 0 0 .429.17.617.617 0 0 0 .624-.54l.235-2.04 1.872-.97a.596.596 0 0 0-.037-1.084ZM89.633 6.367l-1.935-.847-.375-2.022a.632.632 0 0 0-1.077-.3l-1.43 1.518-2.105-.28a.684.684 0 0 0-.089-.006.605.605 0 0 0-.539.904l1.05 1.785-.924 1.849a.606.606 0 0 0 .558.868.668.668 0 0 0 .13-.013l2.08-.414 1.533 1.422a.625.625 0 0 0 .429.169.617.617 0 0 0 .624-.539l.235-2.041 1.872-.97a.596.596 0 0 0-.037-1.083ZM126.96 7.245l-4.011-2.194-2.194-4.011a2 2 0 0 0-3.51 0l-2.193 4.011-4.011 2.194a2 2 0 0 0 0 3.51l4.01 2.193 2.194 4.011a2 2 0 0 0 3.51 0l2.194-4.01 4.011-2.194a2 2 0 0 0 0-3.51Zm-6.445 2.475a2.002 2.002 0 0 0-.795.795l-.72 1.317-.72-1.317a1.998 1.998 0 0 0-.795-.795L116.168 9l1.317-.72a1.998 1.998 0 0 0 .795-.796l.72-1.316.72 1.317a2.002 2.002 0 0 0 .795.795l1.318.72ZM60.051 21.948l2.194 4.011a2 2 0 0 0 3.51 0l2.194-4.01 4.011-2.195a2 2 0 0 0 0-3.51l-4.011-2.193-2.194-4.011a2 2 0 0 0-3.51 0l-2.194 4.01-4.011 2.195a2 2 0 0 0 0 3.51Zm2.434-4.669a2.002 2.002 0 0 0 .795-.795l.72-1.317.72 1.317a2.002 2.002 0 0 0 .795.795l1.318.72-1.318.72a2.002 2.002 0 0 0-.795.796L64 20.832l-.72-1.317a2.002 2.002 0 0 0-.795-.795L61.167 18ZM114 48.999a2 2 0 0 0-4 0 2.796 2.796 0 0 1-.664 1.889 6.988 6.988 0 0 0 0 8.218 3.025 3.025 0 0 1 0 3.783 6.698 6.698 0 0 0-1.336 4.11 2 2 0 0 0 4 0 2.804 2.804 0 0 1 .664-1.892 6.99 6.99 0 0 0 0-8.22 3.022 3.022 0 0 1 0-3.78A6.696 6.696 0 0 0 114 49ZM99 66.998a2 2 0 0 0 4 0 2.804 2.804 0 0 1 .664-1.89 6.99 6.99 0 0 0 0-8.22 3.022 3.022 0 0 1 0-3.78 6.696 6.696 0 0 0 1.336-4.11 2 2 0 0 0-4 0 2.796 2.796 0 0 1-.664 1.89 6.988 6.988 0 0 0 0 8.218 3.025 3.025 0 0 1 0 3.783A6.698 6.698 0 0 0 99 66.999ZM14 60.997a6.698 6.698 0 0 0 1.336 4.11A2.804 2.804 0 0 1 16 66.998a2 2 0 0 0 4 0 6.698 6.698 0 0 0-1.336-4.11 3.025 3.025 0 0 1 0-3.782 6.988 6.988 0 0 0 0-8.218 2.796 2.796 0 0 1-.664-1.89 2 2 0 0 0-4 0 6.696 6.696 0 0 0 1.336 4.11 3.022 3.022 0 0 1 0 3.78A6.698 6.698 0 0 0 14 60.997ZM23 60.997a6.698 6.698 0 0 0 1.336 4.11A2.804 2.804 0 0 1 25 66.998a2 2 0 0 0 4 0 6.698 6.698 0 0 0-1.336-4.11 3.025 3.025 0 0 1 0-3.782 6.988 6.988 0 0 0 0-8.218 2.796 2.796 0 0 1-.664-1.89 2 2 0 0 0-4 0 6.696 6.696 0 0 0 1.336 4.11 3.022 3.022 0 0 1 0 3.78A6.698 6.698 0 0 0 23 60.997Z" fill="#ffc428" opacity="1" data-original="#000000" class=""></path></g></svg>