<svg version="1.2" xmlns="http://www.w3.org/2000/svg" viewBox="0 0 17 17" width="100" height="100">
	<style>
		.s0 { fill: #b0a5bd } 
	</style>
	<path id="Icon fa-regular-circle-user" fill-rule="evenodd" class="s0" d="m0 8.66c0-4.61 3.73-8.34 8.34-8.34 4.61 0 8.34 3.73 8.34 8.34 0 4.61-3.73 8.34-8.34 8.34-4.61 0-8.34-3.73-8.34-8.34zm9.38 3.65h-2.08c-1.27 0-2.32 0.9-2.56 2.09 1.05 0.66 2.28 1.04 3.6 1.04 1.33 0 2.56-0.38 3.6-1.04-0.24-1.19-1.29-2.09-2.56-2.09zm5.74-3.65c0-3.75-3.03-6.78-6.78-6.78-3.74 0-6.78 3.03-6.78 6.78 0 1.81 0.72 3.46 1.88 4.68 0.62-1.52 2.12-2.6 3.86-2.6h2.08c1.75 0 3.24 1.08 3.87 2.6 1.16-1.22 1.87-2.87 1.87-4.68zm-6.78-4.69c1.59 0 2.87 1.28 2.87 2.86 0 1.59-1.28 2.87-2.87 2.87-1.58 0-2.87-1.28-2.87-2.87 0-1.58 1.29-2.86 2.87-2.86zm1.31 2.86c0-0.72-0.59-1.3-1.31-1.3-0.72 0-1.3 0.58-1.3 1.3 0 0.72 0.58 1.31 1.3 1.31 0.72 0 1.31-0.59 1.31-1.31z"/>
</svg>