<svg version="1.2" xmlns="http://www.w3.org/2000/svg" viewBox="0 0 18 16" width="100" height="89">
	<style>
		.s0 { fill: none;stroke: #b0a5bd;stroke-linecap: round;stroke-miterlimit:100;stroke-width: 1.7 } 
	</style>
	<path id="Icon akar-sign-out" fill-rule="evenodd" class="s0" d="m9.75 7.66h6.75"/>
	<path id="Icon akar-sign-out" fill-rule="evenodd" class="s0" d="m16.5 7.66l-2.5-3"/>
	<path id="Icon akar-sign-out" fill-rule="evenodd" class="s0" d="m16.5 7.66l-2.5 3"/>
	<path id="Icon akar-sign-out" fill-rule="evenodd" class="s0" d="m10.5 3.91v-1.37c0-0.42-0.18-0.82-0.48-1.11-0.31-0.28-0.73-0.42-1.14-0.39l-6 0.5c-0.78 0.07-1.38 0.72-1.38 1.5v9.24c0 0.78 0.6 1.43 1.38 1.49l6 0.5c0.41 0.04 0.83-0.1 1.14-0.39 0.3-0.28 0.48-0.68 0.48-1.1v-1.37"/>
	<path id="Icon akar-sign-out" fill-rule="evenodd" class="s0" d="m10.5 3.91v-1.37c0-0.42-0.18-0.82-0.48-1.11-0.31-0.28-0.73-0.42-1.14-0.39l-6 0.5c-0.78 0.07-1.38 0.72-1.38 1.5v9.24c0 0.78 0.6 1.43 1.38 1.49l6 0.5c0.41 0.04 0.83-0.1 1.14-0.39 0.3-0.28 0.48-0.68 0.48-1.1v-1.37"/>
</svg>