<svg version="1.2" xmlns="http://www.w3.org/2000/svg" viewBox="0 0 27 27" width="27" height="27">
	<style>
		.s0 { fill: #ffc428 } 
	</style>
	<g id="Icon ion-md-help-circle-outline">
		<path id="Path 29" fill-rule="evenodd" class="s0" d="m26.62 13.81c0 7.15-5.79 12.93-12.93 12.93-7.15 0-12.93-5.78-12.93-12.93 0-7.14 5.78-12.93 12.93-12.93 7.14 0 12.93 5.79 12.93 12.93zm-20.23-7.3c-1.95 1.95-3.02 4.55-3.02 7.3 0 2.76 1.07 5.35 3.02 7.3 1.95 1.95 4.54 3.02 7.3 3.02 2.75 0 5.35-1.07 7.3-3.02 1.94-1.95 3.02-4.54 3.02-7.3 0-2.75-1.08-5.35-3.02-7.3-1.95-1.94-4.55-3.02-7.3-3.02-2.76 0-5.35 1.08-7.3 3.02z"/>
		<path id="Path 30" class="s0" d="m12.38 18.97h2.61v2.61h-2.61z"/>
		<path id="Path 31" class="s0" d="m14.98 17.67h-2.58c0-4.17 3.87-3.87 3.87-6.46 0-1.42-1.16-2.59-2.58-2.59-1.43 0-2.59 1.21-2.59 2.58h-2.58c0-2.86 2.31-5.16 5.17-5.16 2.86 0 5.17 2.31 5.17 5.17 0 3.23-3.88 3.6-3.88 6.46z"/>
	</g>
</svg>