<svg version="1.2" xmlns="http://www.w3.org/2000/svg" viewBox="0 0 27 26" width="27" height="26">
	<style>
		.s0 { fill: #c2c2c4 } 
	</style>
	<g id="Icon ion-md-help-circle-outline">
		<path id="Path 29" fill-rule="evenodd" class="s0" d="m26.43 13.07c0 7.14-5.79 12.93-12.93 12.93-7.14 0-12.93-5.79-12.93-12.93 0-7.15 5.79-12.93 12.93-12.93 7.14 0 12.93 5.78 12.93 12.93zm-20.23-7.3c-1.95 1.95-3.02 4.54-3.02 7.3 0 2.75 1.07 5.34 3.02 7.3 1.95 1.94 4.55 3.02 7.3 3.02 2.75 0 5.35-1.08 7.3-3.02 1.95-1.96 3.02-4.55 3.02-7.3 0-2.76-1.07-5.35-3.02-7.3-1.95-1.95-4.55-3.02-7.3-3.02-2.75 0-5.35 1.07-7.3 3.02z"/>
		<path id="Path 30" class="s0" d="m12.19 18.23h2.62v2.61h-2.62z"/>
		<path id="Path 31" class="s0" d="m14.79 16.92h-2.58c0-4.16 3.88-3.86 3.88-6.45 0-1.42-1.17-2.59-2.59-2.59-1.42 0-2.59 1.21-2.59 2.58h-2.58c0-2.86 2.31-5.16 5.17-5.16 2.86 0 5.17 2.3 5.17 5.16 0 3.24-3.88 3.6-3.88 6.46z"/>
	</g>
</svg>