<svg xmlns="http://www.w3.org/2000/svg" width="23.797" height="21.814" viewBox="0 0 23.797 21.814">
  <g id="Icon_ion-home-outline" data-name="Icon ion-home-outline" transform="translate(-1.614 -2.926)">
    <path id="Path_120" data-name="Path 120" d="M5.625,14.906V26.772a.8.8,0,0,0,.8.8h4.827V20.738a1.207,1.207,0,0,1,1.207-1.207h4.022a1.207,1.207,0,0,1,1.207,1.207v6.838h4.827a.8.8,0,0,0,.8-.8V14.906" transform="translate(-0.962 -3.285)" fill="none" stroke="#ccbfd6" stroke-linecap="round" stroke-linejoin="round" stroke-width="0.9"/>
    <path id="Path_121" data-name="Path 121" d="M24.774,13.833,14.06,3.576a.849.849,0,0,0-1.1,0L2.25,13.833m18.5-3.871V4.18H18.339V7.649" transform="translate(0 0)" fill="none" stroke="#ccbfd6" stroke-linecap="round" stroke-linejoin="round" stroke-width="0.9"/>
  </g>
</svg>
