<svg version="1.2" xmlns="http://www.w3.org/2000/svg" viewBox="0 0 34 35" width="100" height="103">
	<defs>
		<linearGradient id="g1" x2="1" gradientUnits="userSpaceOnUse" gradientTransform="matrix(5.657,35,-34.172,5.523,11.343,0)">
			<stop offset="0" stop-color="#491780"/>
			<stop offset="1" stop-color="#14003a"/>
		</linearGradient>
		<linearGradient id="g2" x2="1" gradientUnits="userSpaceOnUse" gradientTransform="matrix(0,18,-22.5,0,19.683,6.5)">
			<stop offset="0" stop-color="#fbe594"/>
			<stop offset="1" stop-color="#e97445"/>
		</linearGradient>
	</defs>
	<style>
		.s0 { fill: url(#g1);stroke: #5a138a;stroke-miterlimit:100;stroke-width: .8 } 
		.s1 { fill: url(#g2) } 
	</style>
	<path id="Rectangle 151 copy" fill-rule="evenodd" class="s0" d="m17 0c9.39 0 17 7.61 17 17v1c0 9.39-7.61 17-17 17-9.39 0-17-7.61-17-17v-1c0-9.39 7.61-17 17-17z"/>
	<path id="Icon fa-solid-user-plus" class="s1" d="m11.81 11c0-2.49 2.01-4.5 4.5-4.5 2.48 0 4.5 2.01 4.5 4.5 0 2.49-2.02 4.5-4.5 4.5-2.49 0-4.5-2.01-4.5-4.5zm-3.38 12.46c0-3.47 2.81-6.27 6.27-6.27h3.21c3.47 0 6.27 2.8 6.27 6.27 0 0.57-0.46 1.04-1.04 1.04h-13.66c-0.58 0-1.05-0.47-1.05-1.04zm17.72-5.99v-2.25h-2.25c-0.47 0-0.84-0.38-0.84-0.85 0-0.46 0.37-0.84 0.84-0.84h2.25v-2.25c0-0.47 0.38-0.84 0.85-0.84 0.46 0 0.84 0.37 0.84 0.84v2.25h2.25c0.47 0 0.84 0.38 0.84 0.84 0 0.47-0.37 0.85-0.84 0.85h-2.25v2.25c0 0.47-0.38 0.84-0.84 0.84-0.47 0-0.85-0.37-0.85-0.84z"/>
</svg>