<?xml version="1.0" encoding="UTF-8"?>
<svg id="Isolation_Mode" xmlns="http://www.w3.org/2000/svg" version="1.1" viewBox="0 0 1698.4 993.7">
  <!-- Generator: Adobe Illustrator 29.5.0, SVG Export Plug-In . SVG Version: 2.1.0 Build 137)  -->
  <defs>
    <style>
      .st0 {
        fill: #0f3ea8;
      }
    </style>
  </defs>
  <path class="st0" d="M424,681.8c63.9-12.5,128.2-34.4,192-65.3-18.6-35.3-29.1-75.4-29.1-118,0-140.1,113.9-254,254-254s208.1,73.5,241.4,175c63.5-11.9,125.2-16.3,184-13.1,16.1.9,31.4,2.3,45.7,4.1-17.4-94.5-62.9-181.4-132.3-250.8-90.5-90.5-210.8-140.3-338.8-140.3s-248.3,49.8-338.8,140.3c-90.5,90.5-140.3,210.8-140.3,338.8s13.1,129,38,187.6c8.1-1.3,16.1-2.7,24.2-4.2Z"/>
  <path class="st0" d="M22.5,645.9s286.5,183.7,679.4-51.4c487.9-291.9,768.6-117.3,768.6-117.3,0,0-198.4-20.6-402.9,88.8-142,76-288.2,222.7-640.6,224.4-192.7.9-404.4-144.4-404.4-144.4Z"/>
  <path class="st0" d="M1293.9,637.1c-16.8,9-36.9,20.5-60.2,33.9-130.7,75-349.4,200.4-552.6,200.4h-.4c-62.5,0-114.6-5.5-154.9-12.1,87.3,76.5,198,118.2,315.1,118.2s248.3-49.8,338.8-140.3c57.7-57.7,98.8-127.5,121.1-203.7-2.3,1.2-4.6,2.4-6.8,3.6Z"/>
  <path class="st0" d="M449.7,813.6s256,18.9,558.3-181.6c357.5-237.2,666.8-87.8,666.8-87.8,0,0-222.1-15.9-384.1,70.9-112.5,60.2-375.7,228.7-608.4,228.5-152.7-.1-232.6-29.9-232.6-29.9Z"/>
</svg>