<svg width="200" height="200" viewBox="0 0 200 200" fill="none" xmlns="http://www.w3.org/2000/svg">
<path d="M86.3965 75.9459C86.5647 75.9006 86.7752 75.9218 86.9531 76.0152C87.1188 76.1023 87.2104 76.2248 87.2451 76.3639L87.251 76.3883L87.2578 76.4137L99.958 120.713L100.079 120.696C101.103 124.494 98.9421 128.421 95.2549 129.568L93.6475 130.068L94.3281 131.607C97.0706 137.803 100.731 143.611 105.313 148.623C105.801 149.352 106.285 150.056 106.741 150.715C107.219 151.407 107.66 152.045 108.052 152.632C109.372 154.613 109.623 157.085 108.713 159.326C107.783 161.514 106.032 163.092 103.773 163.761L89.9883 167.757C87.2653 168.535 84.4094 166.972 83.6426 164.288L83.6416 164.287L60.6465 84.1051H60.6475C60.6015 83.9366 60.6221 83.7261 60.7158 83.5475C60.8028 83.3819 60.9245 83.2903 61.0635 83.2555L61.0898 83.2486L61.1162 83.2408L86.3965 75.9459ZM122.776 35.7965C123.825 33.3768 126.324 31.8536 128.964 32.0934L129.011 32.0983L129.058 32.0992C131.812 32.1781 134.282 34.0187 135.179 36.6647L135.261 36.9235L144.357 68.7125L144.358 68.7115C144.687 70.0312 145.943 70.6002 146.9 70.6002H147.4C150.482 70.6003 153.406 72.233 155.033 74.8024L155.036 74.8082C157.714 78.9921 156.657 84.4776 152.631 87.4H152.611L152.343 87.5074C150.95 88.0649 150.64 89.5489 150.829 90.4938L150.841 90.5533L150.857 90.6119L159.95 122.483V122.484C160.682 125.249 159.547 128.177 157.105 129.728C156.425 130.154 155.636 130.507 154.825 130.777C153.199 131.319 151.301 131.011 149.878 129.984L149.853 129.965L149.827 129.949L148.762 129.252C143.419 125.792 137.812 122.693 132.025 120.037C125.803 117.081 119.075 115.042 112.246 114.02H112.247C110.983 113.81 110.067 112.996 109.738 111.877L97.96 70.9508C97.8991 70.6452 97.9773 70.3575 98.1797 70.1334L98.2764 70.0387C104.07 65.3571 109.063 59.8575 113.045 53.5377C116.798 47.9586 120.039 41.9801 122.771 35.8072L122.776 35.7965ZM48.2793 86.8512C48.531 86.792 48.7394 86.8344 48.876 86.9078C49.0035 86.9765 49.1 87.0863 49.1445 87.2643L49.1582 87.3131L60.0527 125.294V125.295C60.0987 125.463 60.0782 125.674 59.9844 125.853C59.8974 126.019 59.7747 126.11 59.6357 126.145L59.6123 126.151L59.5879 126.158L57.4883 126.757L57.4795 126.76L57.4717 126.762C53.6922 127.888 49.7727 125.821 48.5547 122.16L48.4453 121.8C48.0759 120.357 47.2535 119.132 46.0977 118.246L45.8604 118.071C43.2413 116.168 41.373 113.476 40.6621 110.366L40.6475 110.301L40.627 110.238C39.6324 107.163 39.7287 103.836 40.9805 100.885C41.6029 99.4971 41.7603 98.0003 41.21 96.4869L40.3477 96.8004H40.1338L41.2373 96.4713C40.0755 92.5699 42.3165 88.5201 46.2002 87.4459L46.2119 87.442L48.2793 86.8512Z" stroke="white" stroke-width="3"/>
</svg>
