<?xml version="1.0" encoding="UTF-8"?>
<svg id="Layer_1" xmlns="http://www.w3.org/2000/svg" version="1.1" viewBox="0 0 200 200">
  <!-- Generator: Adobe Illustrator 29.5.0, SVG Export Plug-In . SVG Version: 2.1.0 Build 137)  -->
  <defs>
    <style>
      .st0 {
        fill: #231c47;
      }
    </style>
  </defs>
  <path id="Icon_ion-megaphone" class="st0" d="M39.8,96.8v.2c.4,1.1.3,2.2-.2,3.3h0c-1.4,3.3-1.5,7-.4,10.4.8,3.5,2.9,6.5,5.8,8.6,1,.7,1.7,1.7,2,2.9,1.3,4.7,6.2,7.4,10.9,6l2.1-.6c1.2-.3,1.8-1.6,1.5-2.7l-10.9-38c-.3-1.2-1.5-1.8-2.7-1.5l-2.1.6c-4.7,1.3-7.4,6.2-6,10.9h0ZM147.2,69.1h-.3c-.5,0-1-.3-1.1-.8l-9.1-31.8c-1-3.4-4.1-5.8-7.6-5.9-3.3-.3-6.4,1.6-7.7,4.6-2.7,6.1-5.9,12-9.6,17.5-3.9,6.2-8.8,11.6-14.5,16.2-.7.6-1,1.5-.8,2.4l11.8,41c.5,1.7,1.9,2.9,3.7,3.2,6.7,1,13.3,3,19.4,5.9,6.1,2.8,12,6.1,17.6,9.8,1.8,1.3,4.2,1.7,6.3,1,.9-.3,1.8-.7,2.6-1.2,3-1.9,4.4-5.5,3.5-8.9l-9.1-31.9c-.1-.5.1-1.1.6-1.3h.2c5-3.3,6.4-9.9,3.2-14.9-1.9-3-5.3-4.9-8.9-4.9h-.2ZM101.4,120.3l-12.7-44.3c-.3-1.2-1.6-1.8-2.7-1.5l-25.3,7.3c-1.2.3-1.8,1.6-1.5,2.7l23,80.2c1,3.5,4.7,5.5,8.2,4.5l13.8-4c2.7-.8,4.8-2.7,5.9-5.3,1.1-2.7.8-5.7-.8-8.1-.8-1.2-1.8-2.6-2.8-4.1-4.5-4.9-8.1-10.6-10.8-16.7,4.5-1.4,7.1-6.2,5.8-10.8h-.1Z"/>
</svg>