<svg xmlns="http://www.w3.org/2000/svg" version="1.1" xmlns:xlink="http://www.w3.org/1999/xlink" width="512" height="512" x="0" y="0" viewBox="0 0 32 32" style="enable-background:new 0 0 512 512" xml:space="preserve" class=""><g><path d="M22 17v1a1 1 0 1 0 2 0v-1a1 1 0 1 0-2 0z" fill="#ffc428" opacity="1" data-original="#000000" class=""></path><path d="m29.316 13.052-2.369-.79c.024-.085.053-.169.053-.262v-2c0-2.206-1.794-4-4-4s-4 1.794-4 4v2c0 .093.029.177.053.262l-2.369.79A.998.998 0 0 0 16 14c0 4.111 1.811 7.978 4.969 10.609l1.391 1.159a.998.998 0 0 0 1.28.001l1.391-1.159A13.775 13.775 0 0 0 30 14a.998.998 0 0 0-.684-.948zM21 10c0-1.103.897-2 2-2s2 .897 2 2v1.613l-1.684-.561a1.008 1.008 0 0 0-.633 0L21 11.613zm2.75 13.072-.75.626-.75-.626a11.77 11.77 0 0 1-4.228-8.358L23 13.054l4.979 1.66a11.77 11.77 0 0 1-4.229 8.358z" fill="#ffc428" opacity="1" data-original="#000000" class=""></path><path d="m14.09 18.473 1.647-1.797c.351-.384.35-.972-.002-1.354l-12-13a1.001 1.001 0 0 0-1.47 1.357l11.376 12.323-.917 1-8.991-9.683a1 1 0 0 0-1.466 1.362l9.101 9.801-7.449 8.126A1 1 0 0 0 2 27v2a1 1 0 0 0 1 1h2a1 1 0 0 0 1-1 .987.987 0 0 0-.699-.939l7.433-8.108 1.935 2.084-3.776 4.531A.995.995 0 0 0 9 27v2a1 1 0 0 0 1 1h2a1 1 0 0 0 1-1 .986.986 0 0 0-.742-.948l4.51-5.411a1 1 0 0 0-.035-1.321z" fill="#ffc428" opacity="1" data-original="#000000" class=""></path></g></svg>