<svg xmlns="http://www.w3.org/2000/svg" version="1.1" xmlns:xlink="http://www.w3.org/1999/xlink" width="512" height="512" x="0" y="0" viewBox="0 0 512 512" style="enable-background:new 0 0 512 512" xml:space="preserve" class=""><g><path d="M223.333 268.358c0-43.176-24.632-80.704-60.58-99.277 19.506-15.234 32.083-38.948 32.083-65.559 0-45.86-37.31-83.169-83.169-83.169s-83.169 37.31-83.169 83.169c0 26.611 12.577 50.325 32.083 65.559C24.632 187.654 0 225.182 0 268.358v15h223.333zm-191.952-15c7.063-37.891 40.378-66.666 80.286-66.666s73.222 28.776 80.286 66.666zm27.116-149.836c0-29.318 23.852-53.169 53.169-53.169s53.169 23.852 53.169 53.169-23.852 53.169-53.169 53.169-53.169-23.851-53.169-53.169zM423.824 341.756c29.586-19.351 49.177-52.772 49.177-90.687 0-59.711-48.579-108.29-108.29-108.29s-108.29 48.579-108.29 108.29c0 37.915 19.591 71.336 49.178 90.687-51.866 22.818-88.176 74.689-88.176 134.891v15H512v-15c0-60.202-36.31-112.074-88.176-134.891zM248.377 461.647c7.386-57.617 56.741-102.288 116.334-102.288s108.948 44.672 116.334 102.288zm194.624-210.578c0 43.169-35.121 78.29-78.29 78.29s-78.29-35.121-78.29-78.29 35.121-78.29 78.29-78.29 78.29 35.121 78.29 78.29zM121.292 381.488l19.089 19.089H30v-86.292H0v116.292h140.381l-19.089 19.09 21.213 21.213 55.303-55.303-55.303-55.302z" fill="#ffc428" opacity="1" data-original="#000000"></path></g></svg>