<svg xmlns="http://www.w3.org/2000/svg" version="1.1" xmlns:xlink="http://www.w3.org/1999/xlink" width="512" height="512" x="0" y="0" viewBox="0 0 512 512" style="enable-background:new 0 0 512 512" xml:space="preserve" class=""><g><path d="M127.467 432.733H111.4c-35.47 0-64.267-28.8-64.267-64.267 0-26.598 21.598-48.2 48.2-48.2H79.267C43.797 320.267 15 291.467 15 256s28.797-64.267 64.267-64.267h16.067c-26.602 0-48.2-21.602-48.2-48.2 0-35.467 28.797-64.267 64.267-64.267h16.067" style="stroke-width:30;stroke-linecap:round;stroke-linejoin:round;stroke-miterlimit:10;" fill="none" stroke="#ffc428" stroke-width="30" stroke-linecap="round" stroke-linejoin="round" stroke-miterlimit="10" data-original="#000000" opacity="1"></path><path d="M159.6 111.4c-17.735 0-32.133-14.396-32.133-32.133C127.467 43.8 156.264 15 191.733 15S256 43.8 256 79.267v353.467C256 468.2 227.203 497 191.733 497s-64.267-28.8-64.267-64.267c0-17.738 14.398-32.133 32.133-32.133" style="stroke-width:30;stroke-linecap:round;stroke-linejoin:round;stroke-miterlimit:10;" fill="none" stroke="#ffc428" stroke-width="30" stroke-linecap="round" stroke-linejoin="round" stroke-miterlimit="10" data-original="#000000" opacity="1"></path><path d="M256 175.667c0 22.172-17.998 40.167-40.167 40.167s-40.167-17.995-40.167-40.167M256 336.333c0-22.172-17.998-40.167-40.167-40.167s-40.167 17.995-40.167 40.167" style="stroke-width:30;stroke-linecap:round;stroke-linejoin:round;stroke-miterlimit:10;" fill="none" stroke="#ffc428" stroke-width="30" stroke-linecap="round" stroke-linejoin="round" stroke-miterlimit="10" data-original="#000000" opacity="1"></path><circle cx="384.533" cy="432.733" r="32.133" style="stroke-width:30;stroke-linecap:round;stroke-linejoin:round;stroke-miterlimit:10;" fill="none" stroke="#ffc428" stroke-width="30" stroke-linecap="round" stroke-linejoin="round" stroke-miterlimit="10" data-original="#000000" opacity="1"></circle><circle cx="384.533" cy="79.267" r="32.133" style="stroke-width:30;stroke-linecap:round;stroke-linejoin:round;stroke-miterlimit:10;" fill="none" stroke="#ffc428" stroke-width="30" stroke-linecap="round" stroke-linejoin="round" stroke-miterlimit="10" data-original="#000000" opacity="1"></circle><circle cx="464.867" cy="191.733" r="32.133" style="stroke-width:30;stroke-linecap:round;stroke-linejoin:round;stroke-miterlimit:10;" fill="none" stroke="#ffc428" stroke-width="30" stroke-linecap="round" stroke-linejoin="round" stroke-miterlimit="10" data-original="#000000" opacity="1"></circle><circle cx="464.867" cy="320.267" r="32.133" style="stroke-width:30;stroke-linecap:round;stroke-linejoin:round;stroke-miterlimit:10;" fill="none" stroke="#ffc428" stroke-width="30" stroke-linecap="round" stroke-linejoin="round" stroke-miterlimit="10" data-original="#000000" opacity="1"></circle><path d="m361.816 410.015-41.549-41.548H256M361.816 101.985l-41.549 41.548H256M256 223.867h96.4l32.133-32.134h48.2M256 288.133h96.4l32.133 32.134h48.2" style="stroke-width:30;stroke-linecap:round;stroke-linejoin:round;stroke-miterlimit:10;" fill="none" stroke="#ffc428" stroke-width="30" stroke-linecap="round" stroke-linejoin="round" stroke-miterlimit="10" data-original="#000000" opacity="1"></path></g></svg>