<svg xmlns="http://www.w3.org/2000/svg" version="1.1" xmlns:xlink="http://www.w3.org/1999/xlink" width="512" height="512" x="0" y="0" viewBox="0 0 512 512" style="enable-background:new 0 0 512 512" xml:space="preserve" class=""><g><path d="M474.5 376h-90V226H347v-90h165v90h-37.5zm-60-30h30V196H482v-30H377v30h37.5zM90 376H0V136h90zm-60-30h30V166H30zM225 301c-24.813 0-45-20.187-45-45s20.187-45 45-45 45 20.187 45 45-20.187 45-45 45zm0-60c-8.271 0-15 6.729-15 15s6.729 15 15 15 15-6.729 15-15-6.729-15-15-15z" fill="#ffc428" opacity="1" data-original="#000000" class=""></path><path d="M225 361c-57.897 0-105-47.103-105-105s47.103-105 105-105 105 47.103 105 105-47.103 105-105 105zm0-180c-41.355 0-75 33.645-75 75s33.645 75 75 75 75-33.645 75-75-33.645-75-75-75zM304.347 146.767C281.186 129.91 253.748 121 225 121s-56.186 8.91-79.347 25.767L128 122.511C156.324 101.896 189.866 91 225 91s68.676 10.896 97 31.511z" fill="#ffc428" opacity="1" data-original="#000000" class=""></path><path d="M339.617 98.222C306.158 73.871 266.524 61 225 61s-81.158 12.871-114.617 37.222L92.729 73.966C131.352 45.857 177.09 31 225 31s93.648 14.857 132.271 42.966zM225 421c-35.134 0-68.676-10.896-97-31.511l17.653-24.256C168.814 382.09 196.252 391 225 391s56.186-8.91 79.347-25.767L322 389.489C293.676 410.104 260.134 421 225 421z" fill="#ffc428" opacity="1" data-original="#000000" class=""></path><path d="M225 481c-47.91 0-93.648-14.857-132.271-42.966l17.653-24.256C143.842 438.129 183.476 451 225 451s81.158-12.871 114.617-37.222l17.653 24.256C318.648 466.143 272.91 481 225 481z" fill="#ffc428" opacity="1" data-original="#000000" class=""></path></g></svg>