<svg xmlns="http://www.w3.org/2000/svg" version="1.1" xmlns:xlink="http://www.w3.org/1999/xlink" width="512" height="512" x="0" y="0" viewBox="0 0 682.667 682.667" style="enable-background:new 0 0 512 512" xml:space="preserve"><g><defs><clipPath id="a" clipPathUnits="userSpaceOnUse"><path d="M0 512h512V0H0Z" fill="#ffc428" opacity="1" data-original="#000000"></path></clipPath><clipPath id="b" clipPathUnits="userSpaceOnUse"><path d="M0 512h512V0H0Z" fill="#ffc428" opacity="1" data-original="#000000"></path></clipPath></defs><g clip-path="url(#a)" transform="matrix(1.33333 0 0 -1.33333 0 682.667)"><path d="M0 0h-45v-120H0" style="stroke-width:30;stroke-linecap:square;stroke-linejoin:miter;stroke-miterlimit:10;stroke-dasharray:none;stroke-opacity:1" transform="translate(166 135)" fill="none" stroke="#ffc428" stroke-width="30" stroke-linecap="square" stroke-linejoin="miter" stroke-miterlimit="10" stroke-dasharray="none" stroke-opacity="" data-original="#000000" opacity="1"></path></g><path d="M0 0h-30" style="stroke-width:30;stroke-linecap:square;stroke-linejoin:miter;stroke-miterlimit:10;stroke-dasharray:none;stroke-opacity:1" transform="matrix(1.33333 0 0 -1.33333 201.333 582.667)" fill="none" stroke="#ffc428" stroke-width="30" stroke-linecap="square" stroke-linejoin="miter" stroke-miterlimit="10" stroke-dasharray="none" stroke-opacity="" data-original="#000000" opacity="1"></path><g clip-path="url(#b)" transform="matrix(1.33333 0 0 -1.33333 0 682.667)"><path d="M0 0c0-16.568-13.432-30-30-30h-30v60h30C-13.432 30 0 16.568 0 0Z" style="stroke-width:30;stroke-linecap:square;stroke-linejoin:miter;stroke-miterlimit:10;stroke-dasharray:none;stroke-opacity:1" transform="translate(286 105)" fill="none" stroke="#ffc428" stroke-width="30" stroke-linecap="square" stroke-linejoin="miter" stroke-miterlimit="10" stroke-dasharray="none" stroke-opacity="" data-original="#000000" opacity="1"></path><path d="M0 0v60" style="stroke-width:30;stroke-linecap:square;stroke-linejoin:miter;stroke-miterlimit:10;stroke-dasharray:none;stroke-opacity:1" transform="translate(226 15)" fill="none" stroke="#ffc428" stroke-width="30" stroke-linecap="square" stroke-linejoin="miter" stroke-miterlimit="10" stroke-dasharray="none" stroke-opacity="" data-original="#000000" opacity="1"></path><path d="m0 0-30 54.65h-30" style="stroke-width:30;stroke-linecap:square;stroke-linejoin:miter;stroke-miterlimit:10;stroke-dasharray:none;stroke-opacity:1" transform="translate(286 20.35)" fill="none" stroke="#ffc428" stroke-width="30" stroke-linecap="square" stroke-linejoin="miter" stroke-miterlimit="10" stroke-dasharray="none" stroke-opacity="" data-original="#000000" opacity="1"></path><path d="M0 0h-30v60H0c16.568 0 30-13.432 30-30C30 13.432 16.568 0 0 0Z" style="stroke-width:30;stroke-linecap:square;stroke-linejoin:miter;stroke-miterlimit:10;stroke-dasharray:none;stroke-opacity:1" transform="translate(376 75)" fill="none" stroke="#ffc428" stroke-width="30" stroke-linecap="square" stroke-linejoin="miter" stroke-miterlimit="10" stroke-dasharray="none" stroke-opacity="" data-original="#000000" opacity="1"></path><path d="M0 0v60" style="stroke-width:30;stroke-linecap:square;stroke-linejoin:miter;stroke-miterlimit:10;stroke-dasharray:none;stroke-opacity:1" transform="translate(346 15)" fill="none" stroke="#ffc428" stroke-width="30" stroke-linecap="square" stroke-linejoin="miter" stroke-miterlimit="10" stroke-dasharray="none" stroke-opacity="" data-original="#000000" opacity="1"></path><path d="M0 0c0 11.098-2.003 21.641-4.836 31.85l29.74 17.169-30 51.962-29.418-16.985C-49.516 99.263-68.666 110.193-90 115.739V150h-60v-34.261c-21.334-5.546-40.484-16.476-55.486-31.743l-29.418 16.985-30-51.962 29.74-17.169C-237.997 21.641-240 11.098-240 0c0-11.098 2.003-21.641 4.836-31.849l-29.74-17.17 30-51.962 29.418 16.985c15.002-15.267 34.152-26.197 55.486-31.743V-150h60v34.261c21.334 5.546 40.484 16.476 55.486 31.743l29.418-16.985 30 51.962-29.74 17.17C-2.003-21.641 0-11.098 0 0Z" style="stroke-width:30;stroke-linecap:square;stroke-linejoin:miter;stroke-miterlimit:10;stroke-dasharray:none;stroke-opacity:1" transform="translate(286 347)" fill="none" stroke="#ffc428" stroke-width="30" stroke-linecap="square" stroke-linejoin="miter" stroke-miterlimit="10" stroke-dasharray="none" stroke-opacity="" data-original="#000000" opacity="1"></path><path d="M0 0h60v34.261c21.334 5.546 40.484 16.476 55.486 31.743l29.418-16.985 30 51.962-29.74 17.17C147.997 128.359 150 138.902 150 150c0 11.098-2.003 21.641-4.836 31.85l29.74 17.169-30 51.962-29.418-16.985C100.484 249.263 81.334 260.193 60 265.739V300H0" style="stroke-width:30;stroke-linecap:square;stroke-linejoin:miter;stroke-miterlimit:10;stroke-dasharray:none;stroke-opacity:1" transform="translate(316 197)" fill="none" stroke="#ffc428" stroke-width="30" stroke-linecap="square" stroke-linejoin="miter" stroke-miterlimit="10" stroke-dasharray="none" stroke-opacity="" data-original="#000000" opacity="1"></path><path d="M0 0c0-33.137-26.863-60-60-60s-60 26.863-60 60 26.863 60 60 60S0 33.137 0 0Z" style="stroke-width:30;stroke-linecap:square;stroke-linejoin:miter;stroke-miterlimit:10;stroke-dasharray:none;stroke-opacity:1" transform="translate(226 347)" fill="none" stroke="#ffc428" stroke-width="30" stroke-linecap="square" stroke-linejoin="miter" stroke-miterlimit="10" stroke-dasharray="none" stroke-opacity="" data-original="#000000" opacity="1"></path></g></g></svg>