<svg xmlns="http://www.w3.org/2000/svg" version="1.1" xmlns:xlink="http://www.w3.org/1999/xlink" width="512" height="512" x="0" y="0" viewBox="0 0 512 512" style="enable-background:new 0 0 512 512" xml:space="preserve" class=""><g><path d="M459.69 319.41c10.09.93 19.92 5.25 27.62 12.95l.06.06c21.47-60.09 15.67-125.54-16.43-181.15C424.21 70.38 328.96 28.24 237.98 47.62v8.99c18.01 4.29 35.03 11.34 50.73 21.01l15.82-15.82a6 6 0 0 1 8.48 0l17.69 17.68c48.43 12.74 88.83 43.57 113.89 87 27 46.79 32.35 102.05 15.1 152.93zM483.83 347.22c-1.38-2.3-3.05-4.44-4.99-6.38-6.43-6.43-14.88-9.64-23.33-9.64s-16.9 3.21-23.33 9.64c-6.23 6.23-9.66 14.51-9.66 23.32 0 8.8 3.43 17.08 9.66 23.31 6.23 6.24 14.52 9.68 23.33 9.68s17.09-3.44 23.32-9.68c6.24-6.23 9.67-14.51 9.67-23.31 0-5.85-1.52-11.46-4.36-16.39-.12-.18-.22-.36-.31-.55zM330.63 423.29c.93 1.61 1.06 3.57.35 5.29a5.968 5.968 0 0 1-3.97 3.5c-40.31 10.95-83.66 7.87-122.24-8.64h-41.56c-3.31 0-5.99-2.68-5.99-5.99v-22.41c-18-4.26-35.02-11.3-50.74-20.98l-4.41 4.42c54.55 76.25 153.84 109.07 243.31 79.84 2.69-.88 5.64.25 7.05 2.71l5.75 9.97 34.2-59.26h-68.43z" fill="#ffc428" opacity="1" data-original="#000000" class=""></path><path d="M108.93 361.41c16.94 11.1 35.62 18.82 55.5 22.96 2.79.57 4.78 3.02 4.78 5.87v21.21h56.78v-21.21c0-2.85 2-5.3 4.78-5.88 10.25-2.11 20.33-5.26 30.06-9.38L219.82 334c-1.37.21-2.74.34-4.13.41-35.01 5.82-70.85-5.66-95.92-30.73-20.79-20.79-32.24-48.44-32.24-77.84s11.45-57.05 32.24-77.84c42.92-42.92 112.74-42.92 155.65 0 24.85 24.85 36.38 60.37 30.89 95.09a37.23 37.23 0 0 1-.54 4.99l40.98 40.98c4.08-9.64 7.23-19.71 9.39-30.05a5.994 5.994 0 0 1 5.87-4.77h21.19v-56.8h-21.19c-2.84 0-5.29-2-5.87-4.78-4.14-19.9-11.86-38.56-22.96-55.47a6.008 6.008 0 0 1 .78-7.53l14.98-14.98-40.17-40.16-14.98 14.98c-2 2-5.15 2.33-7.52.77-16.93-11.09-35.6-18.82-55.52-22.99a5.993 5.993 0 0 1-4.76-5.86V40.23h-56.78v21.19c0 2.83-1.99 5.28-4.77 5.86-19.91 4.17-38.59 11.9-55.51 22.99a6.007 6.007 0 0 1-7.53-.77L86.42 74.52l-40.13 40.16 14.98 14.98a5.995 5.995 0 0 1 .77 7.53c-11.11 16.89-18.84 35.55-22.98 55.47a6.003 6.003 0 0 1-5.87 4.78H12v56.8h21.19c2.84 0 5.29 2 5.87 4.78 4.13 19.9 11.86 38.56 22.95 55.47a5.994 5.994 0 0 1-.77 7.53L46.28 337l40.14 40.16 3.55-3.54.01-.01 11.42-11.43c2.01-2 5.15-2.33 7.53-.77z" fill="#ffc428" opacity="1" data-original="#000000" class=""></path><path d="M205.83 229.82a6 6 0 0 1-4.24 4.23l-42.07 11.29c-2.07.55-4.27-.04-5.79-1.56l-29.5-29.5a73.998 73.998 0 0 0 20.8 63.72c21.44 21.41 53.32 27.63 81.22 15.83a5.99 5.99 0 0 1 6.57 1.29l83.55 83.55 34.04-34.07-83.52-83.52a5.998 5.998 0 0 1-1.28-6.58c11.79-27.92 5.56-59.81-15.87-81.24a73.92 73.92 0 0 0-63.71-20.8l29.53 29.5a6.01 6.01 0 0 1 1.55 5.79z" fill="#ffc428" opacity="1" data-original="#000000" class=""></path></g></svg>