<svg xmlns="http://www.w3.org/2000/svg" version="1.1" xmlns:xlink="http://www.w3.org/1999/xlink" width="512" height="512" x="0" y="0" viewBox="0 0 512 512" style="enable-background:new 0 0 512 512" xml:space="preserve"><g><path d="M375.755 277.14h58.57c34.614 0 62.674-28.06 62.674-62.674 0-34.614-28.06-62.674-62.674-62.674h-.25c-2.996-38.637-35.274-69.062-74.68-69.062h-.016C342.023 42.871 302.29 15 256.04 15S170.056 42.872 152.7 82.732l-.096-.002c-39.406 0-71.683 30.425-74.68 69.062h-.25C43.06 151.792 15 179.852 15 214.466c0 34.614 28.06 62.674 62.674 62.674h58.57" style="stroke-width: 30; stroke-miterlimit: 10;" fill="none" stroke="#ffc428" stroke-width="30" stroke-miterlimit="10" data-original="#000000" opacity="1"></path><path d="M136.245 497h239.51V164.885H208.5l-72.255 72.255z" style="stroke-width: 30; stroke-miterlimit: 10;" fill="none" stroke="#ffc428" stroke-width="30" stroke-miterlimit="10" data-original="#000000" opacity="1"></path><path d="M218.5 164.885v82.255h-82.255M239.702 312.976h92.596M179.702 312.976h30M239.702 372.976h92.596M179.702 372.976h30M239.702 432.976h92.596M179.702 432.976h30" style="stroke-width: 30; stroke-miterlimit: 10;" fill="none" stroke="#ffc428" stroke-width="30" stroke-miterlimit="10" data-original="#000000" opacity="1"></path></g></svg>