<?xml version="1.0" encoding="UTF-8"?>
<svg id="Layer_1" xmlns="http://www.w3.org/2000/svg" version="1.1" viewBox="0 0 200 200">
  <!-- Generator: Adobe Illustrator 29.5.0, SVG Export Plug-In . SVG Version: 2.1.0 Build 137)  -->
  <defs>
    <style>
      .st0 {
        fill: #8df;
      }
    </style>
  </defs>
  <g id="_-Product-Icons">
    <g id="ic_fluent_headset_vr_24_regular">
      <path id="_-Color" class="st0" d="M100,65.3c20.3,0,40.5,2.5,60.2,7.5,5,1.3,8.7,5.6,9.2,10.8v22.5c0,15.3-12,27.8-27.2,28.6h-18.5c-5,0-9.8-2-13.4-5.5l-.9-1-4.5-5.2-.6-.6c-2.4-2.1-6-2.1-8.4,0l-.6.6-4.5,5.2c-3.3,3.8-8,6.1-13,6.5h-18.6c-15.3,0-27.8-12-28.6-27.2v-22.9c0-5.6,3.8-10.4,9.2-11.8,19.7-4.9,39.9-7.5,60.2-7.5ZM100,75.7c-19.5,0-38.8,2.4-57.7,7.2-.6.2-1.1.6-1.3,1.2v22c0,9.6,7.5,17.6,17.1,18.2h18.2c2.2,0,4.3-.8,5.9-2.3l.6-.7,4.5-5.2c6.1-7,16.7-7.6,23.6-1.5l.8.7h0l.7.8,4.6,5.2c1.4,1.6,3.4,2.7,5.6,2.9h18c9.6,0,17.6-7.5,18.2-17.1v-22.6c0-.8-.5-1.5-1.3-1.7-18.9-4.7-38.2-7.2-57.7-7.2h.2ZM133,86.1h10.4c2.9,0,5.2,2.4,5.2,5.3s-1.9,4.8-4.5,5.1h-11.1c-2.9,0-5.2-2.4-5.2-5.2s1.9-4.8,4.5-5.1h.7ZM67,86.1c2.9,0,5.2,2.3,5.2,5.2s-1.9,4.8-4.5,5.1h-11.1c-2.9,0-5.2-2.4-5.2-5.2s1.9-4.8,4.5-5.1h11.1ZM100,82.7c2.9,0,5.2,2.3,5.2,5.2s-2.3,5.2-5.2,5.2-5.2-2.3-5.2-5.2h0c0-2.9,2.3-5.2,5.2-5.2h0Z"/>
    </g>
  </g>
</svg>