<?xml version="1.0" encoding="UTF-8"?>
<svg id="Layer_1" xmlns="http://www.w3.org/2000/svg" version="1.1" viewBox="0 0 200 200">
  <!-- Generator: Adobe Illustrator 29.5.0, SVG Export Plug-In . SVG Version: 2.1.0 Build 137)  -->
  <defs>
    <style>
      .st0 {
        fill: #8df;
        stroke: #8df;
        stroke-width: 1.2px;
      }
    </style>
  </defs>
  <g id="_-Product-Icons">
    <g id="ic_fluent_news_28_regular">
      <path id="_-Color" class="st0" d="M150.4,157.6H49.6c-9.9,0-18.1-7.7-18.7-17.7V55.3c0-6.8,5.3-12.5,12.1-12.9h90.2c6.8,0,12.5,5.3,12.9,12.1v5.2h10.1c6.8,0,12.5,5.3,12.9,12.1v67.1c0,9.9-7.7,18.1-17.7,18.7h-1.1.1ZM49.6,149h100.8c5.2,0,9.6-4,10-9.3v-67c0-2.2-1.6-4-3.7-4.3h-10.7v61.9c0,2.2-1.6,4-3.7,4.3h-.6c-2.2,0-4-1.6-4.3-3.7V55.4c0-2.2-1.6-4-3.7-4.3H43.8c-2.2,0-4,1.6-4.3,3.7v84.1c0,5.2,4,9.6,9.3,10h.8ZM78.4,94.3c4,0,7.2,3.2,7.2,7.2v20.1c0,4-3.2,7.2-7.2,7.2h-20.1c-4,0-7.2-3.2-7.2-7.2v-20.1c0-4,3.2-7.2,7.2-7.2,0,0,20.1,0,20.1,0ZM101.4,120.2h20.1c2.4,0,4.3,1.9,4.3,4.3s-1.6,4-3.7,4.3h-20.7c-2.4,0-4.3-1.9-4.3-4.3s1.6-4,3.7-4.3h.6ZM76.9,102.9h-17.3v17.3h17.3s0-17.3,0-17.3ZM101.4,94.3h20.1c2.4,0,4.3,1.9,4.3,4.3s-1.6,4-3.7,4.3h-20.7c-2.4,0-4.3-1.9-4.3-4.3s1.6-4,3.7-4.3h.6ZM55.3,68.3h66.2c2.4,0,4.3,1.9,4.3,4.3s-1.6,4-3.7,4.3H55.3c-2.4,0-4.3-1.9-4.3-4.3s1.6-4,3.7-4.3h.6Z"/>
    </g>
  </g>
</svg>