<?xml version="1.0" encoding="UTF-8"?>
<svg id="Layer_1" xmlns="http://www.w3.org/2000/svg" version="1.1" viewBox="0 0 200 200">
  <!-- Generator: Adobe Illustrator 29.5.0, SVG Export Plug-In . SVG Version: 2.1.0 Build 137)  -->
  <defs>
    <style>
      .st0 {
        fill: #8df;
      }
    </style>
  </defs>
  <g id="nft">
    <path id="Path_38" class="st0" d="M100,169.4c-1.9,0-3.7-.5-5.3-1.5l-50.8-29.3c-3.3-1.9-5.3-5.4-5.3-9.2v-58.5c0-3.8,2-7.3,5.3-9.2l50.8-29.8c3.3-1.9,7.4-1.9,10.6,0l50.8,29.3c3.3,1.9,5.3,5.4,5.3,9.2v58.5c0,3.8-2,7.3-5.3,9.2l-50.8,29.3c-1.6.9-3.5,1.4-5.3,1.5v.5h0ZM100,40h-.7l-50.8,29.3c-.5.2-.7.7-.7,1.2v58.5c0,.5.3,1,.7,1.2l50.8,29.3c.5.2,1,.2,1.5,0l50.8-29.3c.5-.2.7-.7.7-1.2v-58.5c0-.5-.3-1-.7-1.2l-50.8-29.3s-.8,0-.8,0Z"/>
    <path id="Path_39" class="st0" d="M80.2,120.8c-1.6,0-3.1-.8-3.9-2.2l-11.4-18.4v16c0,2.5-2.1,4.6-4.6,4.6h0c-2.5,0-4.5-2.1-4.6-4.6v-32.2c0-2.1,1.4-3.9,3.4-4.4,1.9-.5,4,.2,5.1,1.9l11.4,18.4v-16c0-2.5,2.1-4.6,4.6-4.6h0c2.5,0,4.5,2.1,4.6,4.6v32.2c0,2.1-1.4,3.9-3.4,4.4h-1.2v.2h0Z"/>
    <path id="Path_40" class="st0" d="M95.6,120.8c-2.5,0-4.6-2.1-4.6-4.6h0v-32.2c0-2.5,2.1-4.6,4.6-4.6h12.8c2.5,0,4.6,2.1,4.6,4.6h0c0,2.5-2.1,4.5-4.6,4.6h-8.2v27.6c0,2.5-2,4.6-4.6,4.6h0Z"/>
    <path id="Path_41" class="st0" d="M108.5,104.6h-12.8c-2.5,0-4.6-2-4.6-4.6h0c0-2.5,2.1-4.5,4.6-4.6h12.8c2.5,0,4.6,2.1,4.6,4.6h0c0,2.5-2.1,4.5-4.6,4.6Z"/>
    <path id="Path_42" class="st0" d="M139.9,88.4h-18.4c-2.5,0-4.6-2.1-4.6-4.6h0c0-2.5,2.1-4.5,4.6-4.6h18.4c2.5,0,4.6,2.1,4.6,4.6h0c0,2.5-2.1,4.5-4.6,4.6Z"/>
    <path id="Path_43" class="st0" d="M130.7,120.8c-2.5,0-4.6-2.1-4.6-4.6h0v-32.2c0-2.5,2.1-4.6,4.6-4.6h0c2.5,0,4.5,2.1,4.6,4.6v32.2c0,2.5-2.1,4.6-4.6,4.6h0Z"/>
  </g>
</svg>