<svg version="1.2" xmlns="http://www.w3.org/2000/svg" viewBox="0 0 14 17" width="100" height="121">
	<style>
		.s0 { fill: #b0a5bd } 
	</style>
	<path id="Icon ion-md-notifications-outline" fill-rule="evenodd" class="s0" d="m8.14 1.88v0.57c2.32 0.53 4.07 2.66 4.07 5.15v4.5l1.62 1.63v0.82h-13.83v-0.82l1.63-1.63v-4.5c0-2.49 1.75-4.62 4.07-5.15v-0.57c0-0.7 0.52-1.23 1.22-1.23 0.69 0 1.22 0.53 1.22 1.23zm-1.26 1.62c-0.23 0-0.94 0.18-0.94 0.18-1.79 0.41-3.06 2.06-3.06 3.92v5.01l-0.36 0.37-0.31 0.31h9.41l-0.31-0.31-0.36-0.37v-5.01c0-1.86-1.26-3.51-3.05-3.92 0 0-0.67-0.18-0.94-0.18zm0.03 13.5c-0.89 0-1.62-0.74-1.62-1.63h3.25c0 0.89-0.73 1.63-1.63 1.63z"/>
</svg>