<?xml version="1.0" encoding="UTF-8"?>
<svg id="Layer_1" xmlns="http://www.w3.org/2000/svg" version="1.1" viewBox="0 0 200 200">
  <!-- Generator: Adobe Illustrator 29.4.0, SVG Export Plug-In . SVG Version: 2.1.0 Build 152)  -->
  <defs>
    <style>
      .st0 {
        fill: #3d44c1;
      }
    </style>
  </defs>
  <path class="st0" d="M46.2,169.3c-6.1,0-11-4.9-11-11v-34.4c0-6.1,4.9-11,11-11s11,4.9,11,11v34.4c0,6.1-4.9,11-11,11Z"/>
  <path class="st0" d="M99.1,169.3c-6.1,0-11-4.9-11-11V41.4c0-6.1,4.9-11,11-11s11,4.9,11,11v116.9c0,6.1-4.9,11-11,11Z"/>
  <path class="st0" d="M152.4,127.5c-6.1,0-11-4.9-11-11v-50.8c0-6.1,4.9-11,11-11s11,4.9,11,11v50.8c0,6.1-4.9,11-11,11Z"/>
</svg>