<svg version="1.2" xmlns="http://www.w3.org/2000/svg" viewBox="0 0 22 26" width="100" height="118">
	<defs>
		<linearGradient id="g1" x2="1" gradientUnits="userSpaceOnUse" gradientTransform="matrix(0,24.057,-21.05,0,11,.971)">
			<stop offset="0" stop-color="#b360f7"/>
			<stop offset="1" stop-color="#6403b4"/>
		</linearGradient>
	</defs>
	<style>
		.s0 { fill: url(#g1) } 
	</style>
	<path id="Icon fa-solid-lock" fill-rule="evenodd" class="s0" d="m4.23 9.99v-2.25c0-3.74 3.03-6.77 6.77-6.77 3.74 0 6.77 3.03 6.77 6.77v2.25h0.75c1.66 0 3 1.35 3 3.01v9.02c0 1.66-1.34 3.01-3 3.01h-15.04c-1.66 0-3.01-1.35-3.01-3.01v-9.02c0-1.66 1.35-3.01 3.01-3.01zm3.01-2.25v2.25h7.52v-2.25c0-2.08-1.69-3.76-3.76-3.76-2.08 0-3.76 1.68-3.76 3.76z"/>
</svg>