<svg version="1.2" xmlns="http://www.w3.org/2000/svg" viewBox="0 0 30 33" width="30" height="33">
	<style>
		.s0 { fill: #ffc428 } 
	</style>
	<g id="11. Phone">
		<path id="Path 38" class="s0" d="m13 7c0.55 0 1-0.45 1-1 0-0.55-0.45-1-1-1h-6c-0.55 0-1 0.45-1 1 0 0.55 0.45 1 1 1z"/>
		<path id="Path 39" fill-rule="evenodd" class="s0" d="m25.99 19c0 3.97-2.35 7.57-5.99 9.16v0.05c-0.01 2.64-2.15 4.78-4.79 4.79h-10.42c-2.64-0.01-4.78-2.15-4.79-4.79v-22.42c0.01-2.64 2.15-4.78 4.79-4.79h10.42c1.28 0 2.5 0.51 3.4 1.42 0.9 0.91 1.4 2.14 1.39 3.42v4c3.64 1.59 5.99 5.19 5.99 9.16zm-8.06 9.81q-0.96 0.19-1.93 0.19c-2.62 0-5.14-1.04-7-2.89v0.89c0 0.55-0.45 1-1 1-0.55 0-1-0.45-1-1v-16c0-0.55 0.45-1 1-1 0.55 0 1 0.45 1 1v0.89c1.86-1.85 4.38-2.89 7-2.89q1.01 0 2 0.2v-3.41c0-1.54-1.25-2.79-2.79-2.79h-10.42c-1.54 0-2.79 1.25-2.79 2.79v22.42c0 1.54 1.25 2.79 2.79 2.79h10.42c1.31 0 2.44-0.91 2.72-2.19zm5.96-8.47c0.66-3.85-1.56-7.61-5.25-8.89-3.68-1.29-7.76 0.27-9.64 3.69v7.72c1.41 2.55 4.09 4.14 7 4.14 3.9 0 7.24-2.81 7.89-6.66z"/>
		<path id="Path 40" class="s0" d="m16 16h2c0.55 0 1-0.45 1-1 0-0.55-0.45-1-1-1h-1c0-0.55-0.45-1-1-1-0.55 0-1 0.45-1 1v0.18c-1.37 0.5-2.18 1.9-1.93 3.33 0.24 1.43 1.48 2.48 2.93 2.49 0.55 0 1 0.45 1 1 0 0.55-0.45 1-1 1h-2c-0.55 0-1 0.45-1 1 0 0.55 0.45 1 1 1h1c0 0.55 0.45 1 1 1 0.55 0 1-0.45 1-1v-0.18c1.36-0.5 2.18-1.9 1.93-3.33-0.24-1.43-1.48-2.48-2.93-2.49-0.55 0-1-0.45-1-1 0-0.55 0.45-1 1-1z"/>
		<path id="Path 41" class="s0" d="m29 6h-2.59l0.3-0.29c0.39-0.39 0.39-1.03 0-1.42-0.39-0.39-1.03-0.39-1.42 0l-2 2q-0.29 0.3-0.3 0.71 0.01 0.41 0.3 0.71l2 2q0.3 0.29 0.71 0.3 0.41-0.01 0.71-0.3 0.29-0.3 0.3-0.71-0.01-0.41-0.3-0.71l-0.3-0.29h2.59c0.55 0 1-0.45 1-1 0-0.55-0.45-1-1-1z"/>
	</g>
</svg>