<svg version="1.2" xmlns="http://www.w3.org/2000/svg" viewBox="0 0 34 35" width="100" height="103">
	<defs>
		<linearGradient id="g1" x2="1" gradientUnits="userSpaceOnUse" gradientTransform="matrix(5.263,32.561,-31.791,5.138,11.737,1.219)">
			<stop offset="0" stop-color="#1b0729"/>
			<stop offset="1" stop-color="#0e031f"/>
		</linearGradient>
		<linearGradient id="g2" x2="1" gradientUnits="userSpaceOnUse" gradientTransform="matrix(0,14.332,-14.332,0,17,10.148)">
			<stop offset="0" stop-color="#fccb34"/>
			<stop offset="1" stop-color="#ce6e01"/>
		</linearGradient>
	</defs>
	<style>
		.s0 { fill: url(#g1);stroke: #220c23;stroke-miterlimit:100;stroke-width: .8 } 
		.s1 { fill: url(#g2) } 
	</style>
	<path id="Rectangle 154" fill-rule="evenodd" class="s0" d="m17 1.22c8.73 0 15.82 7.08 15.82 15.81v0.94c0 8.73-7.09 15.81-15.82 15.81-8.73 0-15.82-7.08-15.82-15.81v-0.94c0-8.73 7.09-15.81 15.82-15.81z"/>
	<path id="Icon fa-solid-coins" class="s1" d="m24.17 12.39c0 0.5-0.4 0.97-1.08 1.34-0.81 0.45-2.03 0.77-3.42 0.87q-0.16-0.08-0.32-0.14c-1.1-0.47-2.57-0.73-4.14-0.73q-0.35 0-0.69 0.02l-0.03-0.02c-0.67-0.37-1.07-0.84-1.07-1.34 0-1.24 2.4-2.24 5.37-2.24 2.97 0 5.38 1 5.38 2.24zm-9.84 2.27q0.43-0.03 0.88-0.03c1.74 0 3.28 0.34 4.27 0.88 0.69 0.37 1.1 0.84 1.1 1.36q0 0.16-0.06 0.32c-0.12 0.37-0.47 0.71-0.98 1q0 0-0.01 0-0.01 0.01-0.02 0.02c-0.98 0.54-2.54 0.89-4.3 0.89-1.67 0-3.16-0.31-4.15-0.81q-0.08-0.04-0.15-0.08c-0.68-0.38-1.08-0.84-1.08-1.34 0-0.98 1.5-1.81 3.59-2.11q0.44-0.07 0.91-0.1zm7.15 2.21c0-0.62-0.3-1.12-0.68-1.5q1.2-0.19 2.14-0.57 0.69-0.29 1.23-0.72v0.99c0 0.55-0.47 1.04-1.23 1.43q-0.62 0.31-1.47 0.52 0.01-0.08 0.01-0.15zm-0.9 2.68c0 0.51-0.4 0.97-1.07 1.35q-0.08 0.04-0.16 0.08c-0.98 0.5-2.47 0.81-4.14 0.81-1.76 0-3.32-0.35-4.3-0.89-0.68-0.38-1.08-0.84-1.08-1.35v-0.99q0.54 0.43 1.23 0.72c1.11 0.46 2.58 0.72 4.15 0.72 1.57 0 3.04-0.26 4.14-0.72q0.33-0.14 0.63-0.31 0.26-0.14 0.48-0.31 0.06-0.05 0.12-0.1zm0.9 0v-1.62q0.8-0.17 1.46-0.45 0.69-0.28 1.23-0.71v0.99q0 0.45-0.42 0.87c-0.46 0.45-1.26 0.83-2.28 1.07q0.01-0.07 0.01-0.15zm-6.27 3.14c1.57 0 3.04-0.27 4.14-0.73q0.7-0.28 1.23-0.71v0.99c0 1.24-2.4 2.24-5.37 2.24-2.97 0-5.38-1-5.38-2.24v-0.99q0.54 0.43 1.23 0.71c1.11 0.46 2.58 0.73 4.15 0.73z"/>
</svg>