<?xml version="1.0" encoding="UTF-8"?>
<svg id="Layer_1" xmlns="http://www.w3.org/2000/svg" version="1.1" viewBox="0 0 200 200">
  <!-- Generator: Adobe Illustrator 29.5.0, SVG Export Plug-In . SVG Version: 2.1.0 Build 137)  -->
  <defs>
    <style>
      .st0 {
        fill: #fff;
      }
    </style>
  </defs>
  <path id="Icon_fa-regular-user" class="st0" d="M121.6,65.5c0-11.9-9.7-21.6-21.6-21.6-11.9,0-21.6,9.7-21.6,21.6s9.7,21.6,21.6,21.6,21.6-9.7,21.6-21.6h0ZM65.5,65.5c0-19.1,15.5-34.5,34.5-34.5s34.5,15.5,34.5,34.5-15.5,34.5-34.5,34.5h0c-19.1,0-34.5-15.5-34.5-34.5ZM52.9,156.1h94.3c-2.5-17.3-17.3-30.2-34.8-30.2h-24.7c-17.5,0-32.3,12.9-34.8,30.2ZM39.6,161c0-26.6,21.5-48.1,48.1-48.1,0,0,0,0,0,0h24.7c26.6,0,48.1,21.5,48.1,48.1h0c0,4.4-3.6,8-8,8H47.6c-4.4,0-8-3.6-8-8h0Z"/>
</svg>