<svg width="147" height="147" viewBox="0 0 147 147" fill="none" xmlns="http://www.w3.org/2000/svg">
<g clip-path="url(#clip0_33_36)">
<path d="M75.458 119.366C75.1555 119.564 74.8457 119.751 74.499 119.864C74.1381 119.982 73.7592 120.013 73.3184 119.938C72.4803 119.794 71.3948 119.261 69.6963 118.23C66.3044 116.173 60.1534 111.93 48.0244 104L11.8613 140.192C11.995 140.194 12.1402 140.198 12.2959 140.2C13.263 140.213 14.6459 140.226 16.3857 140.238C19.866 140.263 24.7721 140.286 30.6289 140.307C42.3424 140.348 57.8593 140.379 73.3857 140.391C88.9122 140.402 104.448 140.394 116.199 140.358C122.075 140.341 127.004 140.317 130.513 140.284C132.267 140.268 133.665 140.249 134.647 140.229C134.833 140.225 135.003 140.218 135.158 140.214L98.9746 104L75.458 119.366ZM105.069 100.042L140.442 135.236C140.469 134.497 140.488 133 140.501 129.76C140.528 122.933 140.527 108.405 140.527 77.0234L105.069 100.042ZM6.625 77.0234C6.625 108.36 6.62483 122.888 6.65137 129.726C6.66404 132.99 6.68393 134.493 6.71094 135.235L42.083 100.042L6.625 77.0234ZM43.375 92.4609L73.5 112.133L103.625 92.4609V6.625H43.375V92.4609ZM9.80176 24.3008C12.4095 33.7704 22.552 71.608 24.9326 80.4443L36.25 87.8848V29.8955L30.1318 31.5117C29.9689 32.8206 29.55 34.0854 28.8906 35.2305C28.2307 36.3764 27.3463 37.3747 26.2949 38.1729L30.3115 53.1582C30.557 54.074 30.429 55.0499 29.9551 55.8711C29.4811 56.6923 28.7 57.2915 27.7842 57.5371C26.8682 57.7826 25.8916 57.6547 25.0703 57.1807C24.2492 56.7066 23.6498 55.9256 23.4043 55.0098L23.4033 55.0059L18.7793 37.2754L18.7393 37.1035C18.5584 36.2428 18.702 35.3429 19.1465 34.5791C19.6168 33.7711 20.3858 33.1807 21.2871 32.9346C21.9055 32.7328 22.4247 32.3035 22.7383 31.7334C23.0523 31.1622 23.1368 30.4927 22.9746 29.8613V29.8604C22.8527 29.409 22.8209 28.9383 22.8809 28.4746C22.9412 28.0081 23.093 27.5578 23.3281 27.1504C23.5633 26.743 23.8772 26.3862 24.251 26.1006C24.5781 25.8507 24.9454 25.6593 25.3369 25.5352L25.5059 25.4863L36.25 22.5264V17.2188L9.80176 24.3008ZM110.75 22.5244L121.371 25.3945C121.826 25.5144 122.253 25.7232 122.627 26.0088C123.001 26.2944 123.315 26.6512 123.55 27.0586C123.785 27.4659 123.937 27.9164 123.997 28.3828C124.057 28.8491 124.025 29.3227 123.901 29.7764L123.9 29.7773C123.811 30.1021 123.786 30.4421 123.828 30.7764C123.87 31.1104 123.978 31.433 124.145 31.7256C124.311 32.0182 124.534 32.2749 124.8 32.4814C125.065 32.6876 125.368 32.8397 125.692 32.9287C126.152 33.034 126.587 33.2293 126.971 33.5039C127.36 33.7827 127.689 34.1378 127.938 34.5469C128.188 34.9559 128.352 35.4108 128.422 35.8848C128.491 36.3589 128.464 36.8422 128.343 37.3057V37.3076L123.596 55.04C123.35 55.9559 122.751 56.7369 121.93 57.2109C121.108 57.685 120.132 57.8139 119.216 57.5684C118.3 57.3228 117.519 56.7234 117.045 55.9023C116.571 55.0811 116.443 54.1044 116.688 53.1885L120.704 38.2031C119.653 37.4051 118.769 36.4064 118.109 35.2607C117.45 34.1153 117.029 32.8503 116.866 31.541L110.75 29.8984V87.8848L122.066 80.4443C132.547 41.4652 135.968 28.7812 136.966 25.1074C137.059 24.7655 137.132 24.5006 137.188 24.2988L110.75 17.2188V22.5244ZM9.58301 70.4365L15.9922 74.6055L14.0889 67.4961L9.58301 70.4365ZM131.007 74.6055L137.416 70.4365L132.91 67.4961L131.007 74.6055ZM147.5 134.75C147.5 138.132 146.157 141.375 143.766 143.766C141.375 146.157 138.132 147.5 134.75 147.5H12.25C8.86849 147.5 5.62546 146.157 3.23438 143.766C0.843286 141.375 -0.5 138.132 -0.5 134.75C-0.5 100.895 -0.499766 84.8158 -0.488281 77.1055C-0.47683 69.4177 -0.454796 70.0331 -0.404297 69.6123L-0.401367 69.585L-0.394531 69.5576C-0.298433 69.1492 -0.198282 68.78 0.131836 68.3701C0.438309 67.9896 0.926989 67.5934 1.72754 67.0342C3.3086 65.9297 6.31402 64.0546 12.1318 60.2627L2.05859 22.7002V22.6992C1.93554 22.2463 1.90363 21.7731 1.96387 21.3076C2.02426 20.8413 2.1761 20.3916 2.41113 19.9844C2.64629 19.577 2.96022 19.2202 3.33398 18.9346C3.70721 18.6494 4.13281 18.4402 4.58691 18.3203L36.25 9.84473V3.0625C36.25 2.11767 36.6249 1.21107 37.293 0.542969C37.9611 -0.125129 38.8677 -0.5 39.8125 -0.5H107.188C108.132 -0.5 109.039 -0.125129 109.707 0.542969C110.375 1.21107 110.75 2.11767 110.75 3.0625V9.84473C127.791 14.4128 135.968 16.508 139.982 17.6494C141.987 18.2194 143.013 18.567 143.59 18.8877C143.897 19.0587 144.1 19.2338 144.259 19.4443C144.393 19.623 144.504 19.8498 144.587 19.9961C144.637 20.0844 144.679 20.1499 144.734 20.2402C144.786 20.3242 144.844 20.4232 144.894 20.5391C145 20.7872 145.046 21.0599 145.032 21.4326C145.007 22.134 144.763 23.3212 144.17 25.6709C142.981 30.3793 140.329 39.9766 134.928 60.2627C140.866 64.1442 143.907 66.0379 145.48 67.168C146.277 67.7401 146.76 68.1583 147.051 68.582C147.359 69.031 147.425 69.4513 147.494 69.9023L147.5 69.9404V134.75Z" fill="black" stroke="black"/>
<path d="M88.8125 11.75C89.7573 11.75 90.6639 12.1249 91.332 12.793C92.0001 13.4611 92.375 14.3677 92.375 15.3125C92.375 15.9921 92.6454 16.6435 93.126 17.124C93.6065 17.6046 94.2579 17.875 94.9375 17.875C95.8823 17.875 96.7889 18.2499 97.457 18.918C98.1251 19.5861 98.5 20.4927 98.5 21.4375V39.8125C98.5 40.7573 98.1251 41.6639 97.457 42.332C96.7889 43.0001 95.8823 43.375 94.9375 43.375C93.9927 43.375 93.0861 43.0001 92.418 42.332C91.7499 41.6639 91.375 40.7573 91.375 39.8125V24.3252C90.143 23.8385 89.0224 23.1045 88.084 22.166C87.1454 21.2275 86.4105 20.1071 85.9238 18.875H61.0762C60.5895 20.1071 59.8546 21.2275 58.916 22.166C57.9776 23.1045 56.857 23.8385 55.625 24.3252V39.8125C55.625 40.7573 55.2501 41.6639 54.582 42.332C53.9139 43.0001 53.0073 43.375 52.0625 43.375C51.1177 43.375 50.2111 43.0001 49.543 42.332C48.8749 41.6639 48.5 40.7573 48.5 39.8125V21.4375C48.5 20.4927 48.8749 19.5861 49.543 18.918C50.2111 18.2499 51.1177 17.875 52.0625 17.875C52.7421 17.875 53.3935 17.6046 53.874 17.124C54.3546 16.6435 54.625 15.9921 54.625 15.3125C54.625 14.3677 54.9999 13.4611 55.668 12.793C56.3361 12.1249 57.2427 11.75 58.1875 11.75H88.8125Z" fill="black" stroke="black"/>
<path d="M63.9326 44.2783C68.5007 42.3862 73.5275 41.8909 78.377 42.8555C83.2265 43.8201 87.6814 46.201 91.1777 49.6973C94.674 53.1936 97.0549 57.6485 98.0195 62.498C98.9841 67.3475 98.4888 72.3743 96.5967 76.9424C94.7045 81.5103 91.5007 85.4151 87.3896 88.1621C83.2784 90.9091 78.4445 92.375 73.5 92.375C66.8696 92.375 60.5107 89.7411 55.8223 85.0527C51.1339 80.3643 48.5 74.0054 48.5 67.375C48.5 62.4305 49.9659 57.5966 52.7129 53.4854C55.4599 49.3743 59.3647 46.1705 63.9326 44.2783ZM73.5 49.5C68.7593 49.5 64.2126 51.3831 60.8604 54.7354C57.5081 58.0876 55.625 62.6343 55.625 67.375C55.625 70.9103 56.6736 74.3661 58.6377 77.3057C60.6018 80.2451 63.393 82.5367 66.6592 83.8896C69.9254 85.2426 73.5199 85.596 76.9873 84.9062C80.4547 84.2165 83.6398 82.5145 86.1396 80.0146C88.6395 77.5148 90.3415 74.3297 91.0312 70.8623C91.721 67.3949 91.3676 63.8004 90.0146 60.5342C88.6617 57.268 86.3701 54.4768 83.4307 52.5127C80.4911 50.5486 77.0353 49.5 73.5 49.5Z" fill="black" stroke="black"/>
<path d="M72.1465 27.3453C72.6862 27.1236 73.272 27.0376 73.8525 27.0953C74.4331 27.1531 74.9911 27.3527 75.4766 27.6764C75.9618 28 76.3602 28.4382 76.6367 28.9518C76.9132 29.4655 77.0596 30.0393 77.0625 30.6227C77.0657 31.2689 76.8925 31.904 76.5625 32.4596C76.2325 33.0152 75.7575 33.4706 75.1885 33.777C74.6195 34.0833 73.9775 34.2293 73.332 34.1989C72.6866 34.1684 72.0611 33.9626 71.5234 33.6041C70.9859 33.2456 70.5556 32.7478 70.2793 32.1637C70.0029 31.5795 69.8911 30.9308 69.9551 30.2877C70.019 29.6446 70.2566 29.0307 70.6426 28.5123C71.0286 27.994 71.5487 27.5909 72.1465 27.3453Z" fill="black" stroke="black"/>
</g>
<defs>
<clipPath id="clip0_33_36">
<rect width="147" height="147" fill="white"/>
</clipPath>
</defs>
</svg>
