<svg width="147" height="147" viewBox="0 0 147 147" fill="none" xmlns="http://www.w3.org/2000/svg">
<g clip-path="url(#clip0_33_26)">
<path d="M142.693 112.26H103.646V90.7266C103.646 88.3481 101.718 86.4199 99.3398 86.4199H47.6602C45.2817 86.4199 43.3535 88.3481 43.3535 90.7266V103.646H4.30664C1.92823 103.646 0 105.575 0 107.953V142.693C0 145.072 1.92823 147 4.30664 147H142.693C145.072 147 147 145.072 147 142.693V116.566C147 114.188 145.072 112.26 142.693 112.26ZM69.1934 95.0332H77.8066V116.907C76.4302 116.485 74.9812 116.264 73.5 116.264C72.0188 116.264 70.5698 116.485 69.1934 116.907V95.0332ZM8.61328 112.26H43.3535V138.387H8.61328V112.26ZM51.9668 95.0332H60.5801V125.18C60.5801 127.077 61.8224 128.752 63.6387 129.301C65.4543 129.851 67.4173 129.148 68.4701 127.568C69.6105 125.858 71.4437 124.877 73.5 124.877C75.556 124.877 77.3895 125.858 78.5299 127.568C79.581 129.145 81.5414 129.852 83.3613 129.301C85.1776 128.752 86.4199 127.077 86.4199 125.18V95.0332H95.0332V138.387H51.9668V95.0332ZM138.387 138.387H103.646V120.873H138.387V138.387Z" fill="black"/>
<path d="M51.3977 50.2476L47.8026 71.8801C47.535 73.4894 48.1999 75.1115 49.5195 76.0705C50.8393 77.0294 52.5875 77.1601 54.0354 76.4084L73.5 66.3022L92.9646 76.4084C94.4182 77.1632 96.1658 77.0254 97.4805 76.0705C98.8004 75.1115 99.465 73.4894 99.1974 71.8801L95.6022 50.2476L111.224 34.8591C112.386 33.7144 112.801 32.0115 112.297 30.46C111.793 28.9088 110.456 27.7752 108.843 27.5324L87.2629 24.2814L77.4239 2.53173C76.7265 0.99024 75.1916 0 73.5 0C71.8083 0 70.2735 0.99024 69.5761 2.53173L59.7371 24.2814L38.1571 27.5324C36.5441 27.7752 35.2071 28.9088 34.7029 30.46C34.1987 32.0113 34.6145 33.7141 35.7764 34.8591L51.3977 50.2476ZM63.3372 32.4494C64.7816 32.2318 66.0173 31.2969 66.6194 29.9659L73.5 14.7557L80.3806 29.9659C80.9826 31.2969 82.2184 32.2318 83.6628 32.4494L99.0438 34.7666L87.9649 45.6803C86.9663 46.6639 86.5092 48.0719 86.7389 49.4543L89.2884 64.7946L75.4845 57.6274C74.2404 56.9815 72.7595 56.9815 71.5155 57.6274L57.7116 64.7946L60.2611 49.4543C60.4908 48.0716 60.0337 46.6639 59.0351 45.6803L47.9562 34.7666L63.3372 32.4494Z" fill="black"/>
</g>
<defs>
<clipPath id="clip0_33_26">
<rect width="147" height="147" fill="white"/>
</clipPath>
</defs>
</svg>
