<svg version="1.2" xmlns="http://www.w3.org/2000/svg" viewBox="0 0 34 31" width="34" height="31">
	<style>
		.s0 { fill: #ffc426 } 
	</style>
	<path id="referral-2-svgrepo-com" fill-rule="evenodd" class="s0" d="m0.49 24.4c0-3.3 2.67-5.97 5.97-5.97q0.83 0.01 1.61 0.24l4.64-7.95c-1.72-1.71-2.24-4.28-1.32-6.52 0.92-2.24 3.11-3.7 5.53-3.7 2.42 0 4.6 1.46 5.52 3.7 0.92 2.24 0.4 4.81-1.32 6.52l4.65 7.95c2.37-0.69 4.92 0.12 6.45 2.06 1.52 1.94 1.71 4.61 0.48 6.75-1.23 2.14-3.64 3.31-6.08 2.96-2.44-0.35-4.43-2.15-5.01-4.55h-9.39c-0.67 2.63-3.04 4.47-5.76 4.48-3.3 0-5.97-2.67-5.97-5.97zm23.89 0c0 1.65 1.34 2.99 2.99 2.99 1.65 0 2.98-1.34 2.98-2.99 0-1.65-1.33-2.99-2.98-2.99-1.65 0-2.99 1.34-2.99 2.99zm-10.45-17.92c0 1.65 1.34 2.99 2.99 2.99 1.64 0 2.98-1.34 2.98-2.99 0-1.65-1.34-2.99-2.98-2.99-1.65 0-2.99 1.34-2.99 2.99zm-3.26 13.68c0.75 0.76 1.29 1.71 1.55 2.75h9.39c0.26-1.05 0.81-2 1.57-2.76l-4.65-7.95q-0.79 0.24-1.61 0.25-0.83-0.01-1.61-0.24zm-7.19 4.23c0 1.65 1.33 2.99 2.98 2.99 1.65 0 2.99-1.34 2.99-2.99 0-1.65-1.34-2.98-2.99-2.98-1.65 0-2.98 1.33-2.98 2.98z"/>
</svg>