<svg width="147" height="147" viewBox="0 0 147 147" fill="none" xmlns="http://www.w3.org/2000/svg">
<g clip-path="url(#clip0_33_2)">
<path d="M73.5001 33.4092C82.7104 33.4092 90.2046 25.915 90.2046 16.7048C90.2046 7.4945 82.7104 0 73.5001 0C64.2898 0 56.7957 7.49419 56.7957 16.7045C56.7957 25.9147 64.2895 33.4092 73.5001 33.4092ZM73.5001 6.68172C79.027 6.68172 83.5228 11.1775 83.5228 16.7045C83.5228 22.2314 79.027 26.7272 73.5001 26.7272C67.9732 26.7272 63.4774 22.2314 63.4774 16.7045C63.4774 11.1775 67.9732 6.68172 73.5001 6.68172Z" fill="black" stroke="black" stroke-width="2"/>
<path d="M50.5901 66.8181H96.4103C100.358 66.8181 103.568 63.3531 103.568 59.0922V56.952C103.568 51.3696 100.805 46.2703 96.3514 43.6437C91.0171 40.4984 82.7236 36.7499 73.5002 36.7499C64.2768 36.7499 55.9833 40.4987 50.649 43.6437C46.1955 46.27 43.432 51.3696 43.432 56.952V59.0922C43.432 63.3534 46.6424 66.8181 50.5901 66.8181ZM50.1137 56.952C50.1137 53.771 51.6569 50.8084 54.042 49.3989C58.6587 46.6778 65.7843 43.4316 73.5002 43.4316C81.2161 43.4316 88.3417 46.6781 92.9584 49.3989C95.3435 50.8084 96.8867 53.7707 96.8867 56.952V59.0922C96.8867 59.7872 96.492 60.1361 96.4103 60.1361H50.5901C50.5087 60.1361 50.1137 59.7869 50.1137 59.0922V56.952Z" fill="black" stroke="black" stroke-width="2"/>
<path d="M30.0682 113.591C39.2785 113.591 46.7727 106.097 46.7727 96.8866C46.7727 87.6764 39.2785 80.1819 30.0682 80.1819C20.858 80.1819 13.3638 87.6761 13.3638 96.8863C13.3638 106.097 20.858 113.591 30.0682 113.591ZM30.0682 86.8636C35.5951 86.8636 40.091 91.3594 40.091 96.8863C40.091 102.413 35.5951 106.909 30.0682 106.909C24.5413 106.909 20.0455 102.413 20.0455 96.8863C20.0455 91.3594 24.5413 86.8636 30.0682 86.8636Z" fill="black" stroke="black" stroke-width="2"/>
<path d="M52.9194 123.826C47.5851 120.681 39.2916 116.932 30.0682 116.932C20.8448 116.932 12.5513 120.681 7.217 123.826C2.76346 126.452 0 131.552 0 137.134V139.274C0 143.535 3.21041 147 7.15811 147H52.9783C56.926 147 60.1364 143.535 60.1364 139.274V137.134C60.1364 131.552 57.3729 126.452 52.9194 123.826ZM53.4547 139.274C53.4547 139.969 53.06 140.318 52.9783 140.318H7.15811C7.07668 140.318 6.68172 139.969 6.68172 139.274V137.134C6.68172 133.953 8.22491 130.991 10.61 129.581C15.2267 126.86 22.3523 123.614 30.0682 123.614C37.7841 123.614 44.9097 126.86 49.5264 129.581C51.9115 130.991 53.4547 133.953 53.4547 137.134V139.274Z" fill="black" stroke="black" stroke-width="2"/>
<path d="M116.932 113.591C126.142 113.591 133.636 106.097 133.636 96.8866C133.636 87.6764 126.142 80.1819 116.932 80.1819C107.721 80.1819 100.227 87.6761 100.227 96.8863C100.227 106.097 107.721 113.591 116.932 113.591ZM116.932 86.8636C122.459 86.8636 126.954 91.3594 126.954 96.8863C126.954 102.413 122.459 106.909 116.932 106.909C111.405 106.909 106.909 102.413 106.909 96.8863C106.909 91.3594 111.405 86.8636 116.932 86.8636Z" fill="black" stroke="black" stroke-width="2"/>
<path d="M139.783 123.826C134.449 120.681 126.156 116.932 116.932 116.932C107.709 116.932 99.4152 120.681 94.0809 123.826C89.6273 126.452 86.8639 131.552 86.8639 137.134V139.274C86.8639 143.535 90.0743 147 94.022 147H139.842C143.79 147 147 143.535 147 139.274V137.134C147 131.552 144.237 126.452 139.783 123.826ZM140.318 139.274C140.318 139.969 139.924 140.318 139.842 140.318H94.0217C93.9403 140.318 93.5453 139.969 93.5453 139.274V137.134C93.5453 133.953 95.0885 130.991 97.4736 129.581C102.09 126.86 109.216 123.614 116.932 123.614C124.648 123.614 131.773 126.86 136.39 129.581C138.775 130.991 140.318 133.953 140.318 137.134V139.274Z" fill="black" stroke="black" stroke-width="2"/>
<path d="M90.2015 113.591C91.1834 113.591 92.1525 113.16 92.8149 112.338C93.9666 110.896 93.7317 108.795 92.2928 107.64L76.8412 95.2789V76.8412C76.8412 74.9945 75.3469 73.5002 73.5002 73.5002C71.6535 73.5002 70.1591 74.9942 70.1591 76.8409V95.2811L54.7075 107.64C53.2686 108.795 53.0337 110.896 54.1854 112.338C54.8479 113.16 55.8166 113.591 56.7988 113.591C57.5296 113.591 58.2672 113.353 58.8836 112.86L73.5002 101.167L88.1164 112.86C88.7332 113.353 89.4704 113.591 90.2015 113.591Z" fill="black" stroke="black" stroke-width="2"/>
</g>
<defs>
<clipPath id="clip0_33_2">
<rect width="147" height="147" fill="white"/>
</clipPath>
</defs>
</svg>
