<svg xmlns="http://www.w3.org/2000/svg" width="21.446" height="21.829" viewBox="0 0 21.446 21.829">
  <g id="trophy" transform="translate(-4 -3.5)">
    <path id="Path_118" data-name="Path 118" d="M22.294,6.181c.08-.969.092-1.765.088-2.3l0-.379H7.068l0,.379c0,.536.008,1.333.088,2.3H4v.383c0,3.653,2.922,5.415,4.565,6.116.157.406.329.812.521,1.21l.061.13A8.2,8.2,0,0,0,12.7,17.957a28.009,28.009,0,0,1-.931,3.159H10.594l-.383,1.532h-.85v2.681H20.084V22.648h-.85l-.383-1.532H17.676a28.008,28.008,0,0,1-.931-3.159A8.2,8.2,0,0,0,20.3,14.02l.061-.13c.191-.4.364-.8.521-1.21,1.643-.7,4.565-2.462,4.565-6.116V6.181ZM4.777,6.947H7.225c.011.126.027.253.042.383H5.18l.123.479a5.523,5.523,0,0,0,2.75,3.355c.05.169.1.333.153.5A5.826,5.826,0,0,1,4.777,6.947Zm2.979,3.11A4.591,4.591,0,0,1,6.2,8.1H7.374C7.47,8.724,7.6,9.382,7.757,10.056ZM19.318,24.563H10.127V23.414h9.191Zm-1.065-2.681.191.766H11l.191-.766Zm-1.394-.766H12.586a27.205,27.205,0,0,0,.835-2.876,4.438,4.438,0,0,0,2.6,0,27.207,27.207,0,0,0,.835,2.876ZM19.9,13.032c-.073.176-.153.352-.237.528l-.057.123a7.641,7.641,0,0,1-3.033,3.5,4.476,4.476,0,0,1-.716.306,3.684,3.684,0,0,1-2.275,0,4.476,4.476,0,0,1-.716-.306,7.641,7.641,0,0,1-3.033-3.5l-.057-.123c-.084-.176-.165-.352-.237-.528h0q-.2-.465-.368-.931c-.069-.18-.13-.364-.191-.544a22.162,22.162,0,0,1-.766-3.091c-.023-.126-.042-.249-.061-.371-.042-.264-.08-.517-.111-.766-.015-.13-.031-.257-.046-.383-.031-.264-.054-.521-.077-.766-.061-.758-.084-1.413-.088-1.915H21.616c0,.5-.027,1.157-.088,1.915-.023.245-.046.5-.077.766-.015.126-.031.253-.046.383-.031.249-.069.5-.111.766-.019.123-.038.245-.061.371a22.162,22.162,0,0,1-.766,3.091c-.061.18-.123.364-.191.548-.111.31-.234.62-.368.927ZM22.072,8.1h1.176a4.591,4.591,0,0,1-1.559,1.961C21.85,9.382,21.976,8.724,22.072,8.1Zm-.839,3.592c.057-.176.111-.348.161-.525a5.523,5.523,0,0,0,2.75-3.355l.123-.479H22.179c.015-.13.031-.257.042-.383h2.447a5.788,5.788,0,0,1-3.435,4.741Z" transform="translate(0 0)" fill="#ccbfd6"/>
    <path id="Path_119" data-name="Path 119" d="M29.305,14.438l-1.448-.2L27.2,12.906a.731.731,0,0,0-1.31,0l-.632,1.317-1.474.214a.728.728,0,0,0-.4,1.245l1.053,1.007-.249,1.467a.728.728,0,0,0,1,.8.387.387,0,0,0,.057-.027l.739-.4.548-.295.578.306.739.387a.386.386,0,0,0,.057.027.729.729,0,0,0,1-.8l-.26-1.436,1.065-1.038a.728.728,0,0,0-.4-1.245Zm-1.2,1.735a.722.722,0,0,0-.207.647l.237,1.394-.276-.146-.781-.41-.2-.1a.739.739,0,0,0-.682,0l-.2.1-.781.41-.276.146.241-1.4a.731.731,0,0,0-.211-.643l-1.015-.988,1.2-.176.2-.027a.719.719,0,0,0,.548-.4l.08-.165.536-1.126.559,1.126.08.165a.719.719,0,0,0,.548.4l.2.027,1.2.176Z" transform="translate(-11.821 -5.553)" fill="#ccbfd6"/>
  </g>
</svg>
