<?xml version="1.0" encoding="UTF-8"?>
<svg id="Layer_1" xmlns="http://www.w3.org/2000/svg" version="1.1" viewBox="0 0 200 200">
  <!-- Generator: Adobe Illustrator 29.4.0, SVG Export Plug-In . SVG Version: 2.1.0 Build 152)  -->
  <defs>
    <style>
      .st0, .st1 {
        fill: #3d44c1;
      }

      .st1 {
        fill-rule: evenodd;
      }
    </style>
  </defs>
  <g id="scratch-card-playable-icn">
    <path id="Path_4" class="st0" d="M160.5,32.4c2.4,2.4,2.3,6.3,0,8.6,0,0-.1,0-.2.2l-18.7,18.3c-2.7,2.1-6.6,1.7-8.8-1-1.9-2.4-1.8-5.7.2-8l18.7-18c2.4-2.4,6.3-2.4,8.8,0h0Z"/>
    <path id="Path_5" class="st0" d="M164.1,55.1c2.4,2.4,2.4,6.3,0,8.8l-9,8.8c-2.5,2.4-6.4,2.3-8.8-.2-2.3-2.4-2.3-6.2,0-8.6l8.8-8.8c2.5-2.4,6.5-2.4,9,0Z"/>
    <path id="Path_6" class="st0" d="M149.9,111.1c-2.4-2.3-6.2-2.4-8.8-.2l-.7.5c-2.2,2.1-2.3,5.6-.2,7.8l-13.3,4c-3.4,1.1-5.7,4.3-5.7,7.8v14.2l-10.9-5.2c-3.3-1.6-7.4-.7-9.7,2.1l-8.8,11.4-6.9-12.6c-1.7-3.1-5.1-4.7-8.5-4l-13.8,2.1,2.6-12.3c.7-3.2-.6-6.5-3.3-8.3l-12.1-8.1,10.4-8.1c2.8-2.2,3.9-5.9,2.6-9.3l-5-13.3,13.3,1.2c3.6.3,7-1.9,8.3-5.2l4.7-13.1c2.3,2.4,6.1,2.4,8.5,0h0l.2-.2c2.4-2.4,2.4-6.3,0-8.8l-4.7-4.7c-3.1-3.2-8.2-3.2-11.3,0-.9.8-1.5,1.9-1.9,3l-6.2,16.4-16.8-1.4c-4.4-.4-8.4,2.8-8.8,7.3,0,1.2,0,2.5.5,3.6l6.2,16.6-12.6,10c-3.5,2.8-4.1,7.9-1.3,11.4.5.6,1.1,1.2,1.8,1.6l14.5,9.7-3.1,15.9c-.9,4.5,2,8.8,6.5,9.7,1,.2,2,.2,3,0l17.1-3.1,8.3,15.7c2.2,4,7.2,5.4,11.2,3.1.9-.5,1.7-1.2,2.3-1.9l11.2-13.5,14,6.6c4.1,1.9,8.9.2,10.8-3.9.5-1.1.8-2.3.8-3.5v-18l17.1-5.2c4.3-1.3,6.7-5.8,5.4-10.1-.4-1.3-1.1-2.5-2.1-3.4l-4.8-4.3h0Z"/>
    <path id="Path_7" class="st1" d="M92.7,71c-9,12.6-6.1,30.2,6.6,39.2,6.8,4.9,15.5,6.4,23.6,4.3,8.2-2.4,15-8.3,18.5-16.1,6-14.4-.8-30.9-15.2-36.9-5.6-2.4-11.9-2.8-17.8-1.3-6.3,1.8-11.8,5.6-15.7,10.9h0ZM130.7,83.4c2.2,8.4-2.8,17-11.2,19.2-8.4,2.2-17-2.8-19.2-11.2-2.2-8.4,2.7-17,11.1-19.2s17,2.8,19.2,11.1h0Z"/>
  </g>
</svg>