<svg version="1.2" xmlns="http://www.w3.org/2000/svg" viewBox="0 0 28 28" width="100" height="100">
	<defs>
		<linearGradient id="g1" x2="1" gradientUnits="userSpaceOnUse" gradientTransform="matrix(0,25.947,-25.947,0,14,1.026)">
			<stop offset="0" stop-color="#290657"/>
			<stop offset="1" stop-color="#14003a"/>
		</linearGradient>
	</defs>
	<style>
		.s0 { fill: url(#g1);stroke: #3f0c6d;stroke-miterlimit:100;stroke-width: .8 } 
		.s1 { fill: none;stroke: #e3e3e3;stroke-miterlimit:100 } 
	</style>
	<g id="Icon akar-gear">
		<path id="Rectangle 153 copy" fill-rule="evenodd" class="s0" d="m4.73 1.03h18.54c2.04 0 3.7 1.66 3.7 3.7v18.54c0 2.04-1.66 3.7-3.7 3.7h-18.54c-2.04 0-3.7-1.66-3.7-3.7v-18.54c0-2.04 1.66-3.7 3.7-3.7z"/>
		<path id="Path 152" class="s1" d="m15.48 7.53c0-0.51-0.42-0.94-0.94-0.94h-1.08c-0.52 0-0.94 0.43-0.94 0.94 0 0.43-0.29 0.8-0.69 0.96q-0.1 0.03-0.19 0.08c-0.39 0.17-0.86 0.11-1.17-0.19-0.36-0.37-0.96-0.37-1.32 0l-0.77 0.77c-0.37 0.36-0.37 0.96 0 1.33 0.3 0.3 0.36 0.77 0.18 1.16q-0.04 0.09-0.07 0.19c-0.16 0.4-0.53 0.69-0.96 0.69-0.51 0-0.94 0.42-0.94 0.94v1.08c0 0.52 0.43 0.94 0.94 0.94 0.43 0 0.8 0.29 0.96 0.69q0.03 0.1 0.07 0.19c0.18 0.39 0.12 0.86-0.18 1.16-0.37 0.37-0.37 0.97 0 1.33l0.77 0.77c0.36 0.37 0.96 0.37 1.32 0 0.31-0.3 0.77-0.36 1.17-0.19q0.09 0.05 0.19 0.08c0.4 0.16 0.69 0.53 0.69 0.96 0 0.51 0.42 0.94 0.94 0.94h1.08c0.52 0 0.94-0.43 0.94-0.94 0-0.43 0.29-0.8 0.69-0.96q0.1-0.03 0.19-0.07c0.39-0.18 0.86-0.12 1.16 0.18 0.37 0.37 0.97 0.37 1.33 0l0.77-0.77c0.37-0.36 0.37-0.96 0-1.33-0.3-0.3-0.36-0.77-0.19-1.16q0.05-0.09 0.08-0.19c0.16-0.4 0.53-0.69 0.96-0.69 0.51 0 0.94-0.42 0.94-0.94v-1.08c0-0.52-0.43-0.94-0.94-0.94-0.43 0-0.8-0.29-0.96-0.69q-0.03-0.1-0.08-0.19c-0.17-0.39-0.11-0.86 0.19-1.16 0.37-0.37 0.37-0.97 0-1.33l-0.77-0.77c-0.36-0.37-0.96-0.37-1.33 0-0.3 0.31-0.77 0.36-1.16 0.19q-0.09-0.04-0.19-0.08c-0.4-0.16-0.69-0.53-0.69-0.96z"/>
		<path id="Path 153" fill-rule="evenodd" class="s1" d="m14 16.96c-1.64 0-2.96-1.32-2.96-2.96 0-1.64 1.32-2.96 2.96-2.96 1.64 0 2.96 1.32 2.96 2.96 0 1.64-1.32 2.96-2.96 2.96z"/>
	</g>
</svg>