<svg version="1.2" xmlns="http://www.w3.org/2000/svg" viewBox="0 0 34 35" width="100" height="103">
	<defs>
		<linearGradient id="g1" x2="1" gradientUnits="userSpaceOnUse" gradientTransform="matrix(5.097,31.533,-30.787,4.976,11.903,1.733)">
			<stop offset="0" stop-color="#491780"/>
			<stop offset="1" stop-color="#14003a"/>
		</linearGradient>
	</defs>
	<style>
		.s0 { fill: url(#g1);stroke: #984a71;stroke-miterlimit:100;stroke-width: .8 } 
		.s1 { fill: none;stroke: #cc8f22;stroke-linecap: round;stroke-miterlimit:100;stroke-width: 1.5 } 
	</style>
	<path id="Rectangle 152" fill-rule="evenodd" class="s0" d="m17 1.73c8.46 0 15.32 6.86 15.32 15.32v0.9c0 8.46-6.86 15.32-15.32 15.32-8.46 0-15.32-6.86-15.32-15.32v-0.9c0-8.46 6.86-15.32 15.32-15.32z"/>
	<g id="Icon feather-share-2">
		<path id="Path 148" fill-rule="evenodd" class="s1" d="m19.56 14.59c-1.26 0-2.27-1.01-2.27-2.26 0-1.25 1.01-2.26 2.27-2.26 1.25 0 2.26 1.01 2.26 2.26 0 1.25-1.01 2.26-2.26 2.26z"/>
		<path id="Path 149" fill-rule="evenodd" class="s1" d="m10.5 19.88c-1.25 0-2.26-1.02-2.26-2.27 0-1.25 1.01-2.26 2.26-2.26 1.25 0 2.27 1.01 2.27 2.26 0 1.25-1.02 2.27-2.27 2.27z"/>
		<path id="Path 150" fill-rule="evenodd" class="s1" d="m19.56 25.16c-1.26 0-2.27-1.01-2.27-2.27 0-1.25 1.01-2.26 2.27-2.26 1.25 0 2.26 1.01 2.26 2.26 0 1.26-1.01 2.27-2.26 2.27z"/>
		<path id="Path 151" fill-rule="evenodd" class="s1" d="m12.46 18.75l5.15 3.01"/>
		<path id="Path 151" fill-rule="evenodd" class="s1" d="m17.6 13.47l-5.14 3"/>
	</g>
</svg>