<?xml version="1.0" encoding="UTF-8"?>
<svg id="Layer_1" xmlns="http://www.w3.org/2000/svg" version="1.1" viewBox="0 0 200 200">
  <!-- Generator: Adobe Illustrator 29.5.0, SVG Export Plug-In . SVG Version: 2.1.0 Build 137)  -->
  <defs>
    <style>
      .st0, .st1 {
        fill: #3d44c1;
      }

      .st1 {
        fill-rule: evenodd;
      }
    </style>
  </defs>
  <g id="wheel-of-fortune-playable-icn">
    <path id="Path_1" class="st1" d="M82.2,47.9c-3.5-8.3,4.5-17.3,14.1-17.3h7.5c9.5,0,17.8,9.5,14.1,17.3l-11.5,21.3c-2.1,3.5-6.7,4.6-10.2,2.5-1.1-.7-2-1.6-2.6-2.7l-11.3-21.1h0ZM106.3,46.4l-6.3,10.8-6.3-10.8c-.8-1.4-.3-3.1,1.1-3.9.4-.3.9-.4,1.4-.4h7.5c1.6,0,2.8,1.3,2.8,2.9s0,1-.4,1.4h.2Z"/>
    <path id="Path_2" class="st0" d="M70.9,52.7c-30.2,16.1-41.7,53.6-25.6,83.8,16.1,30.2,53.6,41.7,83.8,25.6,30.2-16.1,41.7-53.6,25.6-83.8-5.8-10.9-14.7-19.8-25.6-25.6-1.6-.8-3.5-.2-4.5,1.3-2.3,3.8-4.3,7.3-6.3,10.8h0c-3,5.3-6.3,10.8-10.5,18.6-1.2,2.6-.2,5.6,2.3,7,2.4,1.7,5.8,1.1,7.5-1.3l12.8-22.1c10.8,8.1,17.9,20.2,19.6,33.6h-25.6c-3.1.3-5.4,2.9-5.3,6,0,2.8,2,5.1,4.8,5.3h26.4c-1.2,14.5-8.8,27.7-20.6,36.1l-13.3-22.8c-1.7-2.3-4.8-3-7.3-1.5-2.7,1.3-3.9,4.5-2.8,7.3l13.3,23.1c-12.7,5.4-27,5.4-39.7,0l13.3-23.1c1.2-3-.4-6.4-3.4-7.6-2.4-.9-5-.2-6.6,1.8l-13.3,23.1c-11.7-8.6-19.1-21.7-20.6-36.1h26.9c2.7-.2,4.8-2.5,4.8-5.3,0-3.1-2.2-5.7-5.3-6h-25.6c1.7-13.4,8.8-25.5,19.6-33.6l12.8,22.1c1.6,2.4,4.9,3,7.3,1.4,0,0,.2,0,.2-.2,2.6-1.3,3.6-4.4,2.3-6.9h0l-17.1-29.3c-.5-1.5-2.2-2.3-3.7-1.8-.2,0-.3,0-.5.2h-.1Z"/>
    <path id="Path_3" class="st0" d="M94.2,106.9c0-3.1,2.5-5.7,5.6-5.8h.5c3.2,0,5.8,2.6,5.8,5.8s-2.6,5.8-5.8,5.8h-.3c-3.2,0-5.7-2.6-5.8-5.8Z"/>
  </g>
</svg>