<svg xmlns="http://www.w3.org/2000/svg" version="1.1" xmlns:xlink="http://www.w3.org/1999/xlink" width="512" height="512" x="0" y="0" viewBox="0 0 24 24" style="enable-background:new 0 0 512 512" xml:space="preserve"><g><path d="M23 7a1 1 0 0 0-.55-.89l-10-5a1 1 0 0 0-.9 0l-10 5a1 1 0 0 0 0 1.78L4.76 9.5l-3.21 1.61a1 1 0 0 0 0 1.78l3.21 1.61-3.21 1.61a1 1 0 0 0 0 1.78l10 5a1 1 0 0 0 .9 0l10-5a1 1 0 0 0 0-1.78l-3.21-1.61 3.21-1.61a1 1 0 0 0 0-1.78L19.24 9.5l3.21-1.61A1 1 0 0 0 23 7zm-3.24 10L12 20.88 4.24 17 7 15.62l4.55 2.27a1 1 0 0 0 .9 0L17 15.62zm0-5L12 15.88 4.24 12 7 10.62l4.55 2.27a1 1 0 0 0 .9 0L17 10.62zM12 10.88 4.24 7 12 3.12 19.76 7z" fill="#88ddff" opacity="1" data-original="#000000"></path></g></svg>