<?xml version="1.0" encoding="UTF-8"?>
<svg id="Layer_1" xmlns="http://www.w3.org/2000/svg" version="1.1" viewBox="0 0 200 200">
  <!-- Generator: Adobe Illustrator 29.5.0, SVG Export Plug-In . SVG Version: 2.1.0 Build 137)  -->
  <defs>
    <style>
      .st0, .st1 {
        fill: none;
        stroke: #8df;
        stroke-miterlimit: 133.3;
        stroke-width: 8.1px;
      }

      .st1 {
        stroke-linecap: round;
      }
    </style>
  </defs>
  <g id="staking">
    <path id="Path_53" class="st1" d="M52.6,62.7c-13.4,5.3-19.5,8.1-19.5,10.9s6.5,5.7,19.5,10.9l18.7,7.3c13.4,5.3,19.5,8.1,27.6,8.1s15-2.8,27.6-8.1l18.7-7.3c13.4-5.3,19.5-8.1,19.5-10.9s-6.5-5.7-19.5-10.9l-18.7-7.3c-13.4-5.3-19.5-8.1-27.6-8.1s-13.8,1.6-19.9,4.9"/>
    <path id="Path_54" class="st0" d="M57.8,87l-5.3,2c-13.4,5.3-19.5,8.1-19.5,10.9s6.5,5.7,19.5,10.9l18.7,7.3c13.4,5.3,19.5,8.1,27.6,8.1s15-2.8,27.6-8.1l18.7-7.3c13.4-5.3,19.5-8.1,19.5-10.9s-6.5-5.7-19.5-10.9l-5.3-2"/>
    <path id="Path_55" class="st1" d="M145.4,115.8l-5.3-2M145.4,137.7c13.4-5.3,19.5-8.1,19.5-10.9s-6.5-5.7-19.5-10.9M57.8,113.4l-5.3,2c-13.4,5.3-19.5,8.1-19.5,10.9s6.5,5.7,19.5,10.9l18.7,7.3c13.4,5.3,19.5,8.1,27.6,8.1s13.8-1.6,19.9-4.9"/>
  </g>
</svg>