<svg xmlns="http://www.w3.org/2000/svg" width="21.997" height="21.997" viewBox="0 0 21.997 21.997">
  <g id="Icon_ion-ticket-outline" data-name="Icon ion-ticket-outline" transform="translate(-1.709 -1.709)">
    <path id="Path_122" data-name="Path 122" d="M17.845,7.572a2.18,2.18,0,0,1-.113-2.961.181.181,0,0,0-.01-.246L15.661,2.3a.182.182,0,0,0-.257,0L12.121,5.587a1.1,1.1,0,0,0-.267.431,1.1,1.1,0,0,1-.7.7,1.106,1.106,0,0,0-.432.267L2.3,15.4a.182.182,0,0,0,0,.257l2.06,2.06a.181.181,0,0,0,.246.01,2.18,2.18,0,0,1,3.074,3.074.181.181,0,0,0,.01.246l2.06,2.06a.182.182,0,0,0,.257,0l8.422-8.421a1.106,1.106,0,0,0,.267-.432,1.1,1.1,0,0,1,.7-.7,1.1,1.1,0,0,0,.431-.267l3.284-3.284a.182.182,0,0,0,0-.257l-2.06-2.06a.181.181,0,0,0-.246-.01,2.18,2.18,0,0,1-2.961-.108Z" transform="translate(0 0)" fill="none" stroke="#cbbfd7" stroke-miterlimit="10" stroke-width="1"/>
    <path id="Path_123" data-name="Path 123" d="M17.223,9.485l-.771-.771m2.826,2.826-.514-.514M21.333,13.6l-.514-.514m2.826,2.826-.771-.771" transform="translate(-4.773 -2.172)" fill="none" stroke="#cbbfd7" stroke-linecap="round" stroke-miterlimit="10" stroke-width="1"/>
  </g>
</svg>
