<svg version="1.2" xmlns="http://www.w3.org/2000/svg" viewBox="0 0 24 24" width="24" height="24">
	<title>toadyaffiliatebg</title>
	<style>
		.s0 { opacity: .25;fill: none;stroke: #000000;stroke-linecap: round;stroke-linejoin: round } 
	</style>
	<path fill-rule="evenodd" class="s0" d="m12 3.8c-0.9 0-1.6-0.7-1.6-1.6 0-0.9 0.7-1.6 1.6-1.6 0.9 0 1.6 0.7 1.6 1.6 0 0.9-0.7 1.6-1.6 1.6z"/>
	<path fill-rule="evenodd" class="s0" d="m21.9 8c-0.9 0-1.6-0.7-1.6-1.6 0-0.9 0.7-1.7 1.6-1.7 0.8 0 1.6 0.8 1.6 1.7 0 0.9-0.8 1.6-1.6 1.6z"/>
	<path fill-rule="evenodd" class="s0" d="m21.9 19.3c-0.9 0-1.6-0.7-1.6-1.6 0-0.9 0.7-1.6 1.6-1.6 0.8 0 1.6 0.7 1.6 1.6 0 0.9-0.8 1.6-1.6 1.6z"/>
	<path fill-rule="evenodd" class="s0" d="m2.1 8c-0.8 0-1.6-0.7-1.6-1.6 0-0.9 0.8-1.7 1.6-1.7 0.9 0 1.6 0.8 1.6 1.7 0 0.9-0.7 1.6-1.6 1.6z"/>
	<path fill-rule="evenodd" class="s0" d="m2.1 19.2c-0.8 0-1.6-0.7-1.6-1.6 0-0.9 0.8-1.6 1.6-1.6 0.9 0 1.6 0.7 1.6 1.6 0 0.9-0.7 1.6-1.6 1.6z"/>
	<path fill-rule="evenodd" class="s0" d="m12 23.4c-0.9 0-1.6-0.7-1.6-1.6 0-0.9 0.7-1.6 1.6-1.6 0.9 0 1.6 0.7 1.6 1.6 0 0.9-0.7 1.6-1.6 1.6z"/>
	<path fill-rule="evenodd" class="s0" d="m20.4 7.2l-2.8 1.6"/>
	<path fill-rule="evenodd" class="s0" d="m6.4 8.8l-2.8-1.6"/>
	<path fill-rule="evenodd" class="s0" d="m12 20.2v-1.7"/>
	<path fill-rule="evenodd" class="s0" d="m6.4 15.2l-2.8 1.6"/>
	<path fill-rule="evenodd" class="s0" d="m20.4 16.8l-2.8-1.6"/>
	<path fill-rule="evenodd" class="s0" d="m12 5.5v-1.7"/>
	<path fill-rule="evenodd" class="s0" d="m12 11.1c-0.9 0-1.6-0.8-1.6-1.7 0-0.8 0.7-1.6 1.6-1.6 0.9 0 1.6 0.8 1.6 1.6 0 0.9-0.7 1.7-1.6 1.7z"/>
	<path class="s0" d="m15.9 15c0-2.2-1.8-3.9-3.9-3.9-2.1 0-3.9 1.7-3.9 3.9z"/>
	<path fill-rule="evenodd" class="s0" d="m12 18.5c-3.6 0-6.5-2.9-6.5-6.5 0-3.6 2.9-6.5 6.5-6.5 3.6 0 6.5 2.9 6.5 6.5 0 3.6-2.9 6.5-6.5 6.5z"/>
</svg>