<svg width="204" height="204" viewBox="0 0 204 204" fill="none" xmlns="http://www.w3.org/2000/svg">
<path d="M86.4189 135.887C88.4562 134.769 90.7887 134.289 93.1016 134.478L93.5635 134.525L93.5762 134.527C96.0314 134.865 98.3316 135.925 100.127 137.675L100.455 138.001C102.064 139.664 103.136 141.79 103.535 144.065L103.536 144.067C103.962 146.537 103.578 149.05 102.472 151.263L97.6572 160.892L132.595 179.711L132.954 179.913C134.728 180.958 136.145 182.556 136.956 184.461H136.955C137.854 186.48 138.071 188.722 137.51 190.881C136.954 193.018 135.753 194.914 133.984 196.257L133.985 196.258C132.255 197.643 130.096 198.375 127.898 198.375H21.5625V190.5H59.8125V156.938H21.5625V149.063H62.7178L86.415 135.889L86.4189 135.887ZM92.5439 142.349C91.731 142.247 90.9408 142.385 90.2598 142.774L90.252 142.779L67.6875 155.314V190.5H127.898C128.343 190.5 128.805 190.349 129.132 190.077L129.146 190.064L129.162 190.052C129.493 189.804 129.763 189.395 129.883 188.945C129.99 188.541 129.946 188.076 129.755 187.594C129.583 187.197 129.27 186.858 128.878 186.662L128.867 186.657L128.857 186.651L90.5674 166.012V166.011C90.1121 165.78 89.7176 165.467 89.3906 165.075C89.0559 164.673 88.8191 164.217 88.6846 163.712V163.711C88.5334 163.241 88.4691 162.761 88.501 162.277L88.5186 162.081C88.5689 161.63 88.6945 161.198 88.8975 160.792H88.8984L95.4326 147.763C95.8042 147.02 95.9283 146.235 95.7676 145.463L95.7646 145.449L95.7617 145.433C95.6272 144.626 95.2614 143.902 94.6729 143.346L94.4521 143.156C93.9176 142.73 93.2418 142.436 92.5439 142.349Z" fill="black" stroke="black" stroke-width="1.5"/>
<mask id="path-2-outside-1_19_45" maskUnits="userSpaceOnUse" x="55.375" y="4.375" width="131" height="176" fill="black">
<rect fill="white" x="55.375" y="4.375" width="131" height="176"/>
<path d="M141.565 47.8125L143.039 46.3383C144.633 44.7445 146.067 43.0313 147.302 41.1984C148.538 39.3258 149.573 37.3734 150.45 35.3016C151.287 33.2695 151.924 31.118 152.362 28.9266C152.801 26.775 153 24.5437 153 22.3125C153 21.8875 152.92 21.4758 152.761 21.0773C152.602 20.7055 152.376 20.3602 152.084 20.0414C151.765 19.7492 151.42 19.5234 151.048 19.3641C150.649 19.2047 150.238 19.125 149.812 19.125H142.202L139.095 12.8695C138.616 11.8734 137.979 10.9969 137.262 10.2C136.545 9.40313 135.708 8.68594 134.752 8.12812C133.835 7.53047 132.839 7.09219 131.803 6.81328C130.767 6.53438 129.691 6.375 128.576 6.375C127.673 6.375 126.783 6.48125 125.906 6.69375C125.003 6.90625 124.153 7.21172 123.356 7.61016C122.533 8.03516 121.776 8.53984 121.085 9.12422C120.368 9.68203 119.744 10.3328 119.213 11.0766L116.145 15.1406C115.866 15.5391 115.507 15.8578 115.109 16.0969C114.67 16.3359 114.232 16.4953 113.754 16.575C113.316 16.6547 112.838 16.6547 112.359 16.575C111.881 16.4555 111.443 16.2961 111.045 16.0172L106.941 13.268C106.755 13.1352 106.542 13.0289 106.303 12.9492C106.091 12.8695 105.865 12.8164 105.626 12.7898C105.387 12.7633 105.134 12.75 104.869 12.75C104.63 12.7766 104.404 12.8297 104.191 12.9094L99.9281 14.3438C98.8523 14.7023 97.8164 15.2203 96.9 15.8977C95.9836 16.575 95.1867 17.3719 94.5094 18.3281C93.832 19.2445 93.3141 20.2805 92.9555 21.3562C92.5969 22.432 92.4375 23.5875 92.4375 24.743C92.4375 26.8148 92.6102 28.8734 92.9555 30.9187C93.3273 32.9906 93.8719 35.0094 94.5891 36.975C95.2797 38.9141 96.1562 40.7867 97.2188 42.593C98.2547 44.3992 99.4367 46.1125 100.765 47.7328L76.3406 72.157C73.3125 75.1453 70.643 78.4125 68.2523 81.9586C65.9016 85.4648 63.9094 89.2102 62.2758 93.1547C60.6422 97.0594 59.407 101.123 58.6102 105.307C57.7734 109.451 57.375 113.714 57.375 117.938C57.375 119.956 57.468 121.962 57.6539 123.954C57.8398 125.946 58.1188 127.925 58.4906 129.891C58.8625 131.856 59.3273 133.809 59.8852 135.748C60.443 137.66 61.0937 139.546 61.8375 141.405L67.7742 139.095C67.1102 137.395 66.5258 135.681 66.0211 133.955C65.5164 132.228 65.0914 130.475 64.7461 128.695C64.4273 126.916 64.175 125.136 63.9891 123.356C63.8297 121.55 63.75 119.744 63.75 117.938C63.75 114.112 64.1086 110.287 64.8656 106.542C65.5828 102.797 66.6984 99.1312 68.1727 95.5852C69.6469 92.0391 71.4398 88.6523 73.5516 85.5047C75.7031 82.3172 78.1336 79.3687 80.843 76.6594L106.502 51H113.435L113.037 51.3984C112.293 52.1422 111.629 52.9391 111.045 53.7891C110.46 54.6656 109.969 55.582 109.57 56.5383C109.172 57.5211 108.88 58.5172 108.694 59.5266C108.481 60.5625 108.375 61.6117 108.375 62.6742V70.125H114.75V62.6742C114.75 62.0367 114.816 61.4125 114.949 60.8016C115.055 60.1906 115.228 59.593 115.467 59.0086C115.706 58.4242 115.998 57.8664 116.344 57.3352C116.716 56.8305 117.114 56.3523 117.539 55.9008L121.125 52.3148L124.711 55.9008C125.136 56.3523 125.534 56.8305 125.906 57.3352C126.252 57.8664 126.544 58.4242 126.783 59.0086C127.022 59.593 127.195 60.1906 127.301 60.8016C127.434 61.4125 127.5 62.0367 127.5 62.6742V70.125H133.875V62.6742C133.875 61.6117 133.769 60.5625 133.556 59.5266C133.37 58.5172 133.078 57.5211 132.68 56.5383C132.281 55.582 131.79 54.6656 131.205 53.7891C130.621 52.9125 129.957 52.1156 129.213 51.3984L128.815 51H135.748L161.407 76.6594C164.116 79.3687 166.547 82.3172 168.698 85.5047C170.81 88.6523 172.603 92.0391 174.077 95.5852C175.552 99.1312 176.667 102.797 177.384 106.542C178.141 110.287 178.5 114.112 178.5 117.938C178.5 123.914 177.584 129.891 175.751 135.588C173.918 141.286 171.169 146.665 167.662 151.526C164.196 156.387 159.933 160.65 155.112 164.196C150.291 167.742 144.912 170.491 139.254 172.404L141.246 178.46C147.581 176.348 153.518 173.28 158.897 169.336C164.236 165.391 168.977 160.65 172.842 155.231C176.747 149.852 179.775 143.876 181.807 137.541C183.839 131.205 184.875 124.591 184.875 117.938C184.875 113.714 184.477 109.451 183.64 105.307C182.843 101.123 181.608 97.0594 179.974 93.1547C178.341 89.2102 176.348 85.4648 173.998 81.9586C171.607 78.4125 168.937 75.1453 165.909 72.157L141.565 47.8125ZM135.748 44.625H106.542C105.32 43.2703 104.218 41.8227 103.235 40.282C102.279 38.7414 101.469 37.1211 100.805 35.4211C100.141 33.6945 99.6359 31.9414 99.2906 30.1617C98.9719 28.3555 98.8125 26.5359 98.8125 24.7031C98.8125 24.225 98.8789 23.7602 99.0117 23.3086C99.1711 22.857 99.3969 22.432 99.6891 22.0336C99.9547 21.6352 100.287 21.3031 100.685 21.0375C101.057 20.7453 101.482 20.5195 101.96 20.3602L104.709 19.4437L107.498 21.3164C108.574 22.0336 109.77 22.5117 111.045 22.7906C112.28 23.0695 113.595 23.0695 114.83 22.8703C116.105 22.6711 117.3 22.193 118.416 21.5156C119.491 20.8781 120.487 20.0016 121.245 18.9656L124.273 14.9016C124.538 14.5563 124.83 14.2508 125.149 13.9852C125.468 13.7195 125.813 13.4938 126.185 13.3078C126.557 13.1219 126.942 12.9891 127.341 12.9094C127.766 12.8031 128.177 12.75 128.576 12.75C129.08 12.75 129.572 12.8164 130.05 12.9492C130.528 13.082 130.98 13.2812 131.405 13.5469C131.83 13.8125 132.215 14.1313 132.56 14.5031C132.879 14.875 133.158 15.2734 133.397 15.6984L137.381 23.7469C137.514 24.0125 137.687 24.2516 137.899 24.4641C138.085 24.6766 138.311 24.8625 138.577 25.0219C138.816 25.1812 139.081 25.3008 139.373 25.3805C139.666 25.4602 139.958 25.5 140.25 25.5H146.426C146.266 27.0406 145.974 28.5414 145.549 30.0023C145.098 31.4898 144.54 32.9375 143.876 34.3453C143.212 35.7266 142.428 37.0414 141.525 38.2898C140.622 39.5648 139.626 40.7469 138.537 41.8359L135.748 44.625Z"/>
</mask>
<path d="M141.565 47.8125L143.039 46.3383C144.633 44.7445 146.067 43.0313 147.302 41.1984C148.538 39.3258 149.573 37.3734 150.45 35.3016C151.287 33.2695 151.924 31.118 152.362 28.9266C152.801 26.775 153 24.5437 153 22.3125C153 21.8875 152.92 21.4758 152.761 21.0773C152.602 20.7055 152.376 20.3602 152.084 20.0414C151.765 19.7492 151.42 19.5234 151.048 19.3641C150.649 19.2047 150.238 19.125 149.812 19.125H142.202L139.095 12.8695C138.616 11.8734 137.979 10.9969 137.262 10.2C136.545 9.40313 135.708 8.68594 134.752 8.12812C133.835 7.53047 132.839 7.09219 131.803 6.81328C130.767 6.53438 129.691 6.375 128.576 6.375C127.673 6.375 126.783 6.48125 125.906 6.69375C125.003 6.90625 124.153 7.21172 123.356 7.61016C122.533 8.03516 121.776 8.53984 121.085 9.12422C120.368 9.68203 119.744 10.3328 119.213 11.0766L116.145 15.1406C115.866 15.5391 115.507 15.8578 115.109 16.0969C114.67 16.3359 114.232 16.4953 113.754 16.575C113.316 16.6547 112.838 16.6547 112.359 16.575C111.881 16.4555 111.443 16.2961 111.045 16.0172L106.941 13.268C106.755 13.1352 106.542 13.0289 106.303 12.9492C106.091 12.8695 105.865 12.8164 105.626 12.7898C105.387 12.7633 105.134 12.75 104.869 12.75C104.63 12.7766 104.404 12.8297 104.191 12.9094L99.9281 14.3438C98.8523 14.7023 97.8164 15.2203 96.9 15.8977C95.9836 16.575 95.1867 17.3719 94.5094 18.3281C93.832 19.2445 93.3141 20.2805 92.9555 21.3562C92.5969 22.432 92.4375 23.5875 92.4375 24.743C92.4375 26.8148 92.6102 28.8734 92.9555 30.9187C93.3273 32.9906 93.8719 35.0094 94.5891 36.975C95.2797 38.9141 96.1562 40.7867 97.2188 42.593C98.2547 44.3992 99.4367 46.1125 100.765 47.7328L76.3406 72.157C73.3125 75.1453 70.643 78.4125 68.2523 81.9586C65.9016 85.4648 63.9094 89.2102 62.2758 93.1547C60.6422 97.0594 59.407 101.123 58.6102 105.307C57.7734 109.451 57.375 113.714 57.375 117.938C57.375 119.956 57.468 121.962 57.6539 123.954C57.8398 125.946 58.1188 127.925 58.4906 129.891C58.8625 131.856 59.3273 133.809 59.8852 135.748C60.443 137.66 61.0937 139.546 61.8375 141.405L67.7742 139.095C67.1102 137.395 66.5258 135.681 66.0211 133.955C65.5164 132.228 65.0914 130.475 64.7461 128.695C64.4273 126.916 64.175 125.136 63.9891 123.356C63.8297 121.55 63.75 119.744 63.75 117.938C63.75 114.112 64.1086 110.287 64.8656 106.542C65.5828 102.797 66.6984 99.1312 68.1727 95.5852C69.6469 92.0391 71.4398 88.6523 73.5516 85.5047C75.7031 82.3172 78.1336 79.3687 80.843 76.6594L106.502 51H113.435L113.037 51.3984C112.293 52.1422 111.629 52.9391 111.045 53.7891C110.46 54.6656 109.969 55.582 109.57 56.5383C109.172 57.5211 108.88 58.5172 108.694 59.5266C108.481 60.5625 108.375 61.6117 108.375 62.6742V70.125H114.75V62.6742C114.75 62.0367 114.816 61.4125 114.949 60.8016C115.055 60.1906 115.228 59.593 115.467 59.0086C115.706 58.4242 115.998 57.8664 116.344 57.3352C116.716 56.8305 117.114 56.3523 117.539 55.9008L121.125 52.3148L124.711 55.9008C125.136 56.3523 125.534 56.8305 125.906 57.3352C126.252 57.8664 126.544 58.4242 126.783 59.0086C127.022 59.593 127.195 60.1906 127.301 60.8016C127.434 61.4125 127.5 62.0367 127.5 62.6742V70.125H133.875V62.6742C133.875 61.6117 133.769 60.5625 133.556 59.5266C133.37 58.5172 133.078 57.5211 132.68 56.5383C132.281 55.582 131.79 54.6656 131.205 53.7891C130.621 52.9125 129.957 52.1156 129.213 51.3984L128.815 51H135.748L161.407 76.6594C164.116 79.3687 166.547 82.3172 168.698 85.5047C170.81 88.6523 172.603 92.0391 174.077 95.5852C175.552 99.1312 176.667 102.797 177.384 106.542C178.141 110.287 178.5 114.112 178.5 117.938C178.5 123.914 177.584 129.891 175.751 135.588C173.918 141.286 171.169 146.665 167.662 151.526C164.196 156.387 159.933 160.65 155.112 164.196C150.291 167.742 144.912 170.491 139.254 172.404L141.246 178.46C147.581 176.348 153.518 173.28 158.897 169.336C164.236 165.391 168.977 160.65 172.842 155.231C176.747 149.852 179.775 143.876 181.807 137.541C183.839 131.205 184.875 124.591 184.875 117.938C184.875 113.714 184.477 109.451 183.64 105.307C182.843 101.123 181.608 97.0594 179.974 93.1547C178.341 89.2102 176.348 85.4648 173.998 81.9586C171.607 78.4125 168.937 75.1453 165.909 72.157L141.565 47.8125ZM135.748 44.625H106.542C105.32 43.2703 104.218 41.8227 103.235 40.282C102.279 38.7414 101.469 37.1211 100.805 35.4211C100.141 33.6945 99.6359 31.9414 99.2906 30.1617C98.9719 28.3555 98.8125 26.5359 98.8125 24.7031C98.8125 24.225 98.8789 23.7602 99.0117 23.3086C99.1711 22.857 99.3969 22.432 99.6891 22.0336C99.9547 21.6352 100.287 21.3031 100.685 21.0375C101.057 20.7453 101.482 20.5195 101.96 20.3602L104.709 19.4437L107.498 21.3164C108.574 22.0336 109.77 22.5117 111.045 22.7906C112.28 23.0695 113.595 23.0695 114.83 22.8703C116.105 22.6711 117.3 22.193 118.416 21.5156C119.491 20.8781 120.487 20.0016 121.245 18.9656L124.273 14.9016C124.538 14.5563 124.83 14.2508 125.149 13.9852C125.468 13.7195 125.813 13.4938 126.185 13.3078C126.557 13.1219 126.942 12.9891 127.341 12.9094C127.766 12.8031 128.177 12.75 128.576 12.75C129.08 12.75 129.572 12.8164 130.05 12.9492C130.528 13.082 130.98 13.2812 131.405 13.5469C131.83 13.8125 132.215 14.1313 132.56 14.5031C132.879 14.875 133.158 15.2734 133.397 15.6984L137.381 23.7469C137.514 24.0125 137.687 24.2516 137.899 24.4641C138.085 24.6766 138.311 24.8625 138.577 25.0219C138.816 25.1812 139.081 25.3008 139.373 25.3805C139.666 25.4602 139.958 25.5 140.25 25.5H146.426C146.266 27.0406 145.974 28.5414 145.549 30.0023C145.098 31.4898 144.54 32.9375 143.876 34.3453C143.212 35.7266 142.428 37.0414 141.525 38.2898C140.622 39.5648 139.626 40.7469 138.537 41.8359L135.748 44.625Z" fill="black"/>
<path d="M141.565 47.8125L143.039 46.3383C144.633 44.7445 146.067 43.0313 147.302 41.1984C148.538 39.3258 149.573 37.3734 150.45 35.3016C151.287 33.2695 151.924 31.118 152.362 28.9266C152.801 26.775 153 24.5437 153 22.3125C153 21.8875 152.92 21.4758 152.761 21.0773C152.602 20.7055 152.376 20.3602 152.084 20.0414C151.765 19.7492 151.42 19.5234 151.048 19.3641C150.649 19.2047 150.238 19.125 149.812 19.125H142.202L139.095 12.8695C138.616 11.8734 137.979 10.9969 137.262 10.2C136.545 9.40313 135.708 8.68594 134.752 8.12812C133.835 7.53047 132.839 7.09219 131.803 6.81328C130.767 6.53438 129.691 6.375 128.576 6.375C127.673 6.375 126.783 6.48125 125.906 6.69375C125.003 6.90625 124.153 7.21172 123.356 7.61016C122.533 8.03516 121.776 8.53984 121.085 9.12422C120.368 9.68203 119.744 10.3328 119.213 11.0766L116.145 15.1406C115.866 15.5391 115.507 15.8578 115.109 16.0969C114.67 16.3359 114.232 16.4953 113.754 16.575C113.316 16.6547 112.838 16.6547 112.359 16.575C111.881 16.4555 111.443 16.2961 111.045 16.0172L106.941 13.268C106.755 13.1352 106.542 13.0289 106.303 12.9492C106.091 12.8695 105.865 12.8164 105.626 12.7898C105.387 12.7633 105.134 12.75 104.869 12.75C104.63 12.7766 104.404 12.8297 104.191 12.9094L99.9281 14.3438C98.8523 14.7023 97.8164 15.2203 96.9 15.8977C95.9836 16.575 95.1867 17.3719 94.5094 18.3281C93.832 19.2445 93.3141 20.2805 92.9555 21.3562C92.5969 22.432 92.4375 23.5875 92.4375 24.743C92.4375 26.8148 92.6102 28.8734 92.9555 30.9187C93.3273 32.9906 93.8719 35.0094 94.5891 36.975C95.2797 38.9141 96.1562 40.7867 97.2188 42.593C98.2547 44.3992 99.4367 46.1125 100.765 47.7328L76.3406 72.157C73.3125 75.1453 70.643 78.4125 68.2523 81.9586C65.9016 85.4648 63.9094 89.2102 62.2758 93.1547C60.6422 97.0594 59.407 101.123 58.6102 105.307C57.7734 109.451 57.375 113.714 57.375 117.938C57.375 119.956 57.468 121.962 57.6539 123.954C57.8398 125.946 58.1188 127.925 58.4906 129.891C58.8625 131.856 59.3273 133.809 59.8852 135.748C60.443 137.66 61.0937 139.546 61.8375 141.405L67.7742 139.095C67.1102 137.395 66.5258 135.681 66.0211 133.955C65.5164 132.228 65.0914 130.475 64.7461 128.695C64.4273 126.916 64.175 125.136 63.9891 123.356C63.8297 121.55 63.75 119.744 63.75 117.938C63.75 114.112 64.1086 110.287 64.8656 106.542C65.5828 102.797 66.6984 99.1312 68.1727 95.5852C69.6469 92.0391 71.4398 88.6523 73.5516 85.5047C75.7031 82.3172 78.1336 79.3687 80.843 76.6594L106.502 51H113.435L113.037 51.3984C112.293 52.1422 111.629 52.9391 111.045 53.7891C110.46 54.6656 109.969 55.582 109.57 56.5383C109.172 57.5211 108.88 58.5172 108.694 59.5266C108.481 60.5625 108.375 61.6117 108.375 62.6742V70.125H114.75V62.6742C114.75 62.0367 114.816 61.4125 114.949 60.8016C115.055 60.1906 115.228 59.593 115.467 59.0086C115.706 58.4242 115.998 57.8664 116.344 57.3352C116.716 56.8305 117.114 56.3523 117.539 55.9008L121.125 52.3148L124.711 55.9008C125.136 56.3523 125.534 56.8305 125.906 57.3352C126.252 57.8664 126.544 58.4242 126.783 59.0086C127.022 59.593 127.195 60.1906 127.301 60.8016C127.434 61.4125 127.5 62.0367 127.5 62.6742V70.125H133.875V62.6742C133.875 61.6117 133.769 60.5625 133.556 59.5266C133.37 58.5172 133.078 57.5211 132.68 56.5383C132.281 55.582 131.79 54.6656 131.205 53.7891C130.621 52.9125 129.957 52.1156 129.213 51.3984L128.815 51H135.748L161.407 76.6594C164.116 79.3687 166.547 82.3172 168.698 85.5047C170.81 88.6523 172.603 92.0391 174.077 95.5852C175.552 99.1312 176.667 102.797 177.384 106.542C178.141 110.287 178.5 114.112 178.5 117.938C178.5 123.914 177.584 129.891 175.751 135.588C173.918 141.286 171.169 146.665 167.662 151.526C164.196 156.387 159.933 160.65 155.112 164.196C150.291 167.742 144.912 170.491 139.254 172.404L141.246 178.46C147.581 176.348 153.518 173.28 158.897 169.336C164.236 165.391 168.977 160.65 172.842 155.231C176.747 149.852 179.775 143.876 181.807 137.541C183.839 131.205 184.875 124.591 184.875 117.938C184.875 113.714 184.477 109.451 183.64 105.307C182.843 101.123 181.608 97.0594 179.974 93.1547C178.341 89.2102 176.348 85.4648 173.998 81.9586C171.607 78.4125 168.937 75.1453 165.909 72.157L141.565 47.8125ZM135.748 44.625H106.542C105.32 43.2703 104.218 41.8227 103.235 40.282C102.279 38.7414 101.469 37.1211 100.805 35.4211C100.141 33.6945 99.6359 31.9414 99.2906 30.1617C98.9719 28.3555 98.8125 26.5359 98.8125 24.7031C98.8125 24.225 98.8789 23.7602 99.0117 23.3086C99.1711 22.857 99.3969 22.432 99.6891 22.0336C99.9547 21.6352 100.287 21.3031 100.685 21.0375C101.057 20.7453 101.482 20.5195 101.96 20.3602L104.709 19.4437L107.498 21.3164C108.574 22.0336 109.77 22.5117 111.045 22.7906C112.28 23.0695 113.595 23.0695 114.83 22.8703C116.105 22.6711 117.3 22.193 118.416 21.5156C119.491 20.8781 120.487 20.0016 121.245 18.9656L124.273 14.9016C124.538 14.5563 124.83 14.2508 125.149 13.9852C125.468 13.7195 125.813 13.4938 126.185 13.3078C126.557 13.1219 126.942 12.9891 127.341 12.9094C127.766 12.8031 128.177 12.75 128.576 12.75C129.08 12.75 129.572 12.8164 130.05 12.9492C130.528 13.082 130.98 13.2812 131.405 13.5469C131.83 13.8125 132.215 14.1313 132.56 14.5031C132.879 14.875 133.158 15.2734 133.397 15.6984L137.381 23.7469C137.514 24.0125 137.687 24.2516 137.899 24.4641C138.085 24.6766 138.311 24.8625 138.577 25.0219C138.816 25.1812 139.081 25.3008 139.373 25.3805C139.666 25.4602 139.958 25.5 140.25 25.5H146.426C146.266 27.0406 145.974 28.5414 145.549 30.0023C145.098 31.4898 144.54 32.9375 143.876 34.3453C143.212 35.7266 142.428 37.0414 141.525 38.2898C140.622 39.5648 139.626 40.7469 138.537 41.8359L135.748 44.625Z" stroke="black" stroke-width="3" mask="url(#path-2-outside-1_19_45)"/>
<path d="M113.985 76.3981C126.044 74.3217 138.417 77.5915 147.856 85.3171L148.303 85.6882L148.305 85.6891C157.795 93.7194 163.313 105.523 163.313 117.937C163.313 124.67 161.689 131.322 158.567 137.325L158.568 137.326C155.484 143.332 150.98 148.484 145.464 152.378C139.948 156.271 133.62 158.786 126.926 159.719C120.233 160.652 113.419 159.963 107.051 157.732L106.339 157.482L106.593 156.772L108.745 150.756L108.996 150.051L109.702 150.3C124.789 155.642 141.556 149.794 150.095 136.263C158.633 122.695 156.645 105.073 145.338 93.7263L144.802 93.2028C133.441 82.3579 116.155 80.5629 102.798 88.9684L102.797 88.9675C89.2674 97.5071 83.4211 114.273 88.7621 129.361L89.0111 130.066L88.307 130.318L82.2904 132.469L81.5814 132.723L81.3314 132.013C77.1937 120.29 78.4512 107.309 84.7386 96.6003C91.0267 85.8903 101.736 78.5074 113.985 76.3981Z" fill="black" stroke="black" stroke-width="1.5"/>
<path d="M121.125 94.875C121.48 94.875 121.825 94.9244 122.158 95.0225L122.159 95.0205C122.417 95.0909 122.663 95.181 122.896 95.291L123.123 95.4072L123.134 95.4141L123.145 95.4199L139.082 104.982L139.098 104.992L139.112 105.002C139.389 105.186 139.64 105.389 139.864 105.613C140.121 105.87 140.337 106.151 140.507 106.457C140.674 106.759 140.793 107.079 140.862 107.416C140.952 107.731 141 108.051 141 108.375V127.5C141 127.819 140.953 128.134 140.866 128.444L140.805 128.697C140.734 128.948 140.634 129.188 140.507 129.418C140.337 129.724 140.121 130.005 139.864 130.262C139.64 130.486 139.389 130.689 139.112 130.873L139.098 130.883L139.082 130.893L123.145 140.455L123.134 140.461L123.123 140.468C122.826 140.633 122.503 140.761 122.159 140.854L122.158 140.853C121.825 140.951 121.48 141 121.125 141C120.77 141 120.425 140.951 120.091 140.853V140.854C119.747 140.761 119.424 140.633 119.127 140.468L119.116 140.461L119.105 140.455L103.168 130.893L103.152 130.883L103.138 130.873C102.861 130.689 102.61 130.486 102.386 130.262C102.129 130.005 101.913 129.724 101.743 129.418C101.616 129.188 101.516 128.948 101.445 128.697L101.384 128.444C101.297 128.134 101.25 127.819 101.25 127.5V108.375C101.25 108.051 101.298 107.731 101.388 107.416C101.457 107.079 101.576 106.759 101.743 106.457C101.913 106.151 102.129 105.87 102.386 105.613C102.61 105.389 102.861 105.186 103.138 105.002L103.152 104.992L103.168 104.982L109.543 101.157L110.188 100.771L110.573 101.418L113.841 106.916L114.224 107.561L113.58 107.943L109.125 110.594V125.281L121.125 132.481L133.125 125.281V110.593L121.127 103.394L117.85 105.39L117.202 105.784L116.814 105.133L113.548 99.6338L113.166 98.9922L113.806 98.6084L119.104 95.4209L119.116 95.4141L119.127 95.4072C119.424 95.2422 119.747 95.1144 120.091 95.0205V95.0225C120.425 94.9242 120.77 94.875 121.125 94.875Z" fill="black" stroke="black" stroke-width="1.5"/>
</svg>
