<svg xmlns="http://www.w3.org/2000/svg" width="27" height="30" viewBox="0 0 27 30">
  <metadata><?xpacket begin="﻿" id="W5M0MpCehiHzreSzNTczkc9d"?>
<x:xmpmeta xmlns:x="adobe:ns:meta/" x:xmptk="Adobe XMP Core 5.6-c142 79.160924, 2017/07/13-01:06:39        ">
   <rdf:RDF xmlns:rdf="http://www.w3.org/1999/02/22-rdf-syntax-ns#">
      <rdf:Description rdf:about=""/>
   </rdf:RDF>
</x:xmpmeta>
                                                                                                    
                                                                                                    
                                                                                                    
                                                                                                    
                                                                                                    
                                                                                                    
                                                                                                    
                                                                                                    
                                                                                                    
                                                                                                    
                                                                                                    
                                                                                                    
                                                                                                    
                                                                                                    
                                                                                                    
                                                                                                    
                                                                                                    
                                                                                                    
                                                                                                    
                                                                                                    
                           
<?xpacket end="w"?></metadata>
<defs>
    <style>
      .cls-1 {
        fill: #ffc426;
        fill-rule: evenodd;
      }
    </style>
  </defs>
  <path id="Icon_material-outline-token" data-name="Icon material-outline-token" class="cls-1" d="M27.5,8L14,0.5,0.5,8V23L14,30.5,27.5,23V8ZM14,3.935l8.865,4.92-4.515,2.5a6.017,6.017,0,0,0-8.7,0l-4.515-2.5ZM12.5,26.24l-9-4.995V11.39L8.195,14A5.41,5.41,0,0,0,8,15.5a5.987,5.987,0,0,0,4.5,5.8V26.24ZM11,15.5a3,3,0,1,1,3,3A3.009,3.009,0,0,1,11,15.5Zm4.5,10.74V21.32a5.987,5.987,0,0,0,4.5-5.8,5.594,5.594,0,0,0-.2-1.515l4.7-2.61v9.855Z" transform="translate(-0.5 -0.5)"/>
</svg>
