<svg xmlns="http://www.w3.org/2000/svg" version="1.1" xmlns:xlink="http://www.w3.org/1999/xlink" width="512" height="512" x="0" y="0" viewBox="0 0 682.667 682.667" style="enable-background:new 0 0 512 512" xml:space="preserve"><g><defs><clipPath id="a" clipPathUnits="userSpaceOnUse"><path d="M0 512h512V0H0Z" fill="#ffc428" opacity="1" data-original="#000000"></path></clipPath></defs><g clip-path="url(#a)" transform="matrix(1.33333 0 0 -1.33333 0 682.667)"><path d="M0 0h-487.527a5 5 0 0 0-5 5v23.916a5 5 0 0 0 5 5H0a5 5 0 0 0 5-5V5a5 5 0 0 0-5-5Z" style="stroke-width:15;stroke-linecap:round;stroke-linejoin:round;stroke-miterlimit:10;stroke-dasharray:none;stroke-opacity:1" transform="translate(499.764 8.334)" fill="none" stroke="#ffc428" stroke-width="15" stroke-linecap="round" stroke-linejoin="round" stroke-miterlimit="10" stroke-dasharray="none" stroke-opacity="" data-original="#000000" opacity="1"></path><path d="M0 0v33.539a5 5 0 0 0 5 5h76.239a5 5 0 0 0 5-5V-78.752H0v43.875" style="stroke-width:15;stroke-linecap:round;stroke-linejoin:round;stroke-miterlimit:10;stroke-dasharray:none;stroke-opacity:1" transform="translate(63.88 121.002)" fill="none" stroke="#ffc428" stroke-width="15" stroke-linecap="round" stroke-linejoin="round" stroke-miterlimit="10" stroke-dasharray="none" stroke-opacity="" data-original="#000000" opacity="1"></path><path d="M0 0h-86.24v194.318a5 5 0 0 0 5 5H-5a5 5 0 0 0 5-5z" style="stroke-width:15;stroke-linecap:round;stroke-linejoin:round;stroke-miterlimit:10;stroke-dasharray:none;stroke-opacity:1" transform="translate(299.12 42.25)" fill="none" stroke="#ffc428" stroke-width="15" stroke-linecap="round" stroke-linejoin="round" stroke-miterlimit="10" stroke-dasharray="none" stroke-opacity="" data-original="#000000" opacity="1"></path><path d="M0 0h28.521c2.76 0 5-2.239 5-5v-289.271H-52.72V-5c0 2.761 2.24 5 5 5h12.453" style="stroke-width:15;stroke-linecap:round;stroke-linejoin:round;stroke-miterlimit:10;stroke-dasharray:none;stroke-opacity:1" transform="translate(414.6 336.52)" fill="none" stroke="#ffc428" stroke-width="15" stroke-linecap="round" stroke-linejoin="round" stroke-miterlimit="10" stroke-dasharray="none" stroke-opacity="" data-original="#000000" opacity="1"></path><path d="m0 0 11.746-23.8a5.29 5.29 0 0 1 3.984-2.894l26.265-3.817c8.986-1.305 12.574-12.349 6.072-18.687L29.061-67.725a5.286 5.286 0 0 1-1.521-4.682l4.486-26.159c1.535-8.951-7.859-15.776-15.896-11.55l-23.492 12.35a5.289 5.289 0 0 1-4.925 0l-23.492-12.35c-8.037-4.226-17.431 2.599-15.896 11.55l4.486 26.159a5.288 5.288 0 0 1-1.521 4.682l-19.006 18.527c-6.503 6.338-2.914 17.382 6.071 18.687l26.266 3.817a5.292 5.292 0 0 1 3.984 2.894L-19.649 0C-15.63 8.144-4.019 8.144 0 0Z" style="stroke-width:15;stroke-linecap:round;stroke-linejoin:round;stroke-miterlimit:10;stroke-dasharray:none;stroke-opacity:1" transform="translate(116.824 308.812)" fill="none" stroke="#ffc428" stroke-width="15" stroke-linecap="round" stroke-linejoin="round" stroke-miterlimit="10" stroke-dasharray="none" stroke-opacity="" data-original="#000000" opacity="1"></path><path d="m0 0 11.746-23.801a5.296 5.296 0 0 1 3.984-2.894l26.265-3.817c8.986-1.305 12.575-12.348 6.072-18.687L29.062-67.725a5.288 5.288 0 0 1-1.522-4.683l4.486-26.159c1.536-8.95-7.858-15.775-15.896-11.549l-23.492 12.35a5.289 5.289 0 0 1-4.925 0l-23.492-12.35c-8.037-4.226-17.431 2.599-15.896 11.549l4.487 26.159a5.29 5.29 0 0 1-1.522 4.683l-19.006 18.526c-6.502 6.339-2.914 17.382 6.072 18.687l26.265 3.817a5.293 5.293 0 0 1 3.984 2.894L-19.648 0C-15.63 8.143-4.019 8.143 0 0Z" style="stroke-width:15;stroke-linecap:round;stroke-linejoin:round;stroke-miterlimit:10;stroke-dasharray:none;stroke-opacity:1" transform="translate(265.823 400.063)" fill="none" stroke="#ffc428" stroke-width="15" stroke-linecap="round" stroke-linejoin="round" stroke-miterlimit="10" stroke-dasharray="none" stroke-opacity="" data-original="#000000" opacity="1"></path><path d="m0 0 11.746-23.8a5.292 5.292 0 0 1 3.984-2.894l26.265-3.818c8.986-1.305 12.575-12.348 6.072-18.686L29.062-67.725a5.288 5.288 0 0 1-1.522-4.683l4.486-26.158c1.536-8.951-7.858-15.776-15.896-11.55l-23.492 12.35a5.287 5.287 0 0 1-4.924 0l-23.492-12.35c-8.038-4.226-17.432 2.599-15.897 11.55l4.487 26.158a5.29 5.29 0 0 1-1.522 4.683l-19.006 18.527c-6.502 6.338-2.914 17.381 6.072 18.686l26.265 3.818a5.287 5.287 0 0 1 3.984 2.894L-19.648 0C-15.63 8.143-4.019 8.143 0 0Z" style="stroke-width:15;stroke-linecap:round;stroke-linejoin:round;stroke-miterlimit:10;stroke-dasharray:none;stroke-opacity:1" transform="translate(414.823 497.559)" fill="none" stroke="#ffc428" stroke-width="15" stroke-linecap="round" stroke-linejoin="round" stroke-miterlimit="10" stroke-dasharray="none" stroke-opacity="" data-original="#000000" opacity="1"></path></g></g></svg>