<svg version="1.2" xmlns="http://www.w3.org/2000/svg" viewBox="0 0 65 66" width="65" height="66">
	<title>totalaffiliatebg</title>
	<style>
		.s0 { opacity: .25;fill: #000000 } 
	</style>
	<path class="s0" d="m56.7 1c-4.3 0-7.8 3.5-7.8 7.8 0 1.4 0.4 2.8 1.1 3.9l-11.3 11.2c-1.7-1.2-3.9-1.9-6.2-1.9-2.1 0-4.1 0.6-5.8 1.7l-3.2-3.5c0.8-1.2 1.3-2.7 1.3-4.2 0-4.3-3.5-7.8-7.8-7.8-4.3 0-7.8 3.5-7.8 7.8 0 4.3 3.5 7.8 7.8 7.8q2 0 3.6-0.9l3.2 3.5c-1.4 1.9-2.3 4.2-2.3 6.7 0 0.9 0.1 1.8 0.3 2.6l-7.5 3.3c-1.4-1.8-3.6-2.9-6.1-2.9-4.3 0-7.8 3.5-7.8 7.8 0 4.3 3.5 7.8 7.8 7.8 4.3 0 7.8-3.5 7.8-7.8 0-0.4 0-0.8-0.1-1.2l7.5-3.3c2 2.9 5.3 4.8 9.1 4.8 1 0 1.9-0.1 2.8-0.4l3.6 7.6c-1.7 1.4-2.8 3.6-2.8 6 0 4.3 3.5 7.8 7.8 7.8 4.3 0 7.8-3.5 7.8-7.8 0-4.3-3.5-7.8-7.8-7.8-0.5 0-0.9 0-1.4 0.1l-3.6-7.6c2.8-2 4.6-5.3 4.6-8.9 0-2.3-0.7-4.5-1.9-6.2l11.2-11.2c1.1 0.7 2.5 1.1 3.9 1.1 4.3 0 7.8-3.5 7.8-7.8 0-4.3-3.5-8.1-7.8-8.1zm-48.4 46.6c-2.1 0-3.8-1.7-3.8-3.8 0-2.1 1.7-3.8 3.8-3.8 2.1 0 3.8 1.7 3.8 3.8 0 2.1-1.7 3.8-3.8 3.8zm39.3 9.6c0 2.1-1.7 3.8-3.8 3.8-2.1 0-3.8-1.7-3.8-3.8 0-2.1 1.7-3.8 3.8-3.8 2.1 0 3.8 1.7 3.8 3.8zm-34.4-41.3c0-2.1 1.7-3.8 3.8-3.8 2.1 0 3.8 1.7 3.8 3.8 0 2.1-1.7 3.8-3.8 3.8-2.1 0-3.8-1.7-3.8-3.8zm19.3 24.1c-3.9 0-7-3.1-7-7 0-3.9 3.1-7 7-7 3.9 0 7 3.1 7 7 0 3.9-3.1 7-7 7zm24.2-27.4c-2.1 0-3.8-1.7-3.8-3.8 0-2.1 1.7-3.8 3.8-3.8 2.1 0 3.8 1.7 3.8 3.8 0 2.1-1.7 3.8-3.8 3.8z"/>
</svg>