<svg version="1.2" xmlns="http://www.w3.org/2000/svg" viewBox="0 0 128 128" width="128" height="128">
	<title>totalstakingbg</title>
	<style>
		.s0 { opacity: .25;fill: #000000 } 
	</style>
	<path class="s0" d="m107 64h-2c-0.5 0-1 0.2-1.4 0.6-0.4 0.4-0.6 0.9-0.6 1.4 0 0.5 0.2 1 0.6 1.4 0.4 0.4 0.9 0.6 1.4 0.6h2q0.2 0 0.4 0.1 0.2 0.1 0.3 0.2 0.1 0.1 0.2 0.3 0.1 0.2 0.1 0.4v34q0 0.2-0.1 0.4-0.1 0.2-0.2 0.3-0.1 0.1-0.3 0.2-0.2 0.1-0.4 0.1h-86q-0.2 0-0.4-0.1-0.2-0.1-0.3-0.2-0.1-0.1-0.2-0.3-0.1-0.2-0.1-0.4v-34q0-0.2 0.1-0.4 0.1-0.2 0.2-0.3 0.1-0.1 0.3-0.2 0.2-0.1 0.4-0.1h1c0.5 0 1-0.2 1.4-0.6 0.4-0.4 0.6-0.9 0.6-1.4 0-0.5-0.2-1-0.6-1.4-0.4-0.4-0.9-0.6-1.4-0.6h-1q-1 0-1.9 0.4-0.9 0.4-1.6 1.1-0.7 0.7-1.1 1.6-0.4 0.9-0.4 1.9v34q0 1 0.4 1.9 0.4 0.9 1.1 1.6 0.7 0.7 1.6 1.1 0.9 0.4 1.9 0.4h86q1 0 1.9-0.4 0.9-0.4 1.6-1.1 0.7-0.7 1.1-1.6 0.4-0.9 0.4-1.9v-34q0-1-0.4-1.9-0.4-0.9-1.1-1.6-0.7-0.7-1.6-1.1-0.9-0.4-1.9-0.4z"/>
	<path class="s0" d="m28 86q0 0.4 0.2 0.8 0.1 0.3 0.4 0.6 0.3 0.3 0.6 0.4 0.4 0.2 0.8 0.2h68c0.5 0 1-0.2 1.4-0.6 0.4-0.4 0.6-0.9 0.6-1.4 0-0.5-0.2-1-0.6-1.4-0.4-0.4-0.9-0.6-1.4-0.6h-19.6q1.2-1.1 2.2-2.3 1.1-1.2 2-2.5 0.9-1.3 1.7-2.7 0.8-1.4 1.4-2.9c9.2-3.8 15.8-12.1 17.8-21.9 1.9-9.8-1.2-19.9-8.3-26.9-7-7.1-17.2-10.2-27-8.3-9.8 2-18 8.6-21.8 17.8-4.7 2-8.7 5.1-11.8 9-3.2 3.9-5.3 8.5-6.1 13.5-0.9 4.9-0.5 10 1.1 14.8 1.5 4.7 4.3 9 8 12.4h-7.6q-0.4 0-0.8 0.2-0.3 0.1-0.6 0.4-0.3 0.3-0.4 0.6-0.2 0.4-0.2 0.8zm46-66c5.7 0 11.2 1.9 15.8 5.3 4.5 3.5 7.8 8.3 9.3 13.8 1.5 5.5 1.1 11.3-1 16.6-2.1 5.3-5.9 9.7-10.8 12.6 1.1-4.9 0.9-10-0.5-14.8-1.4-4.8-4-9.2-7.6-12.7-3.5-3.6-7.9-6.2-12.7-7.6-4.8-1.4-9.9-1.6-14.8-0.5q1.7-2.9 4.1-5.3 2.4-2.4 5.3-4 3-1.7 6.3-2.6 3.2-0.8 6.6-0.8zm-42 42c0-9.2 4.9-17.7 12.8-22.4 7.9-4.7 17.7-4.8 25.8-0.4 8 4.5 13.1 12.9 13.4 22.1 0.3 9.1-4.4 17.8-12.2 22.7h-27.7q-2.7-1.7-5-4.1-2.3-2.4-3.9-5.3-1.6-2.9-2.4-6.1-0.8-3.2-0.8-6.5z"/>
	<path class="s0" d="m71.4 60.6l-12-12q-0.3-0.3-0.6-0.4-0.4-0.2-0.8-0.2-0.4 0-0.8 0.2-0.3 0.1-0.6 0.4l-12 12q-0.3 0.3-0.4 0.6-0.2 0.4-0.2 0.8 0 0.4 0.2 0.8 0.1 0.3 0.4 0.6l12 12q0.3 0.3 0.6 0.4 0.4 0.2 0.8 0.2 0.4 0 0.8-0.2 0.3-0.1 0.6-0.4l12-12q0.3-0.3 0.4-0.6 0.2-0.4 0.2-0.8 0-0.4-0.2-0.8-0.1-0.3-0.4-0.6zm-13.4 10.6l-9.2-9.2 9.2-9.2 9.2 9.2z"/>
</svg>