<svg width="204" height="204" viewBox="0 0 204 204" fill="none" xmlns="http://www.w3.org/2000/svg">
<path d="M35.0625 101C36.1329 101 37.1819 101.43 38.001 102.249C38.82 103.068 39.25 104.117 39.25 105.188C39.25 106.258 38.82 107.307 38.001 108.126C37.1819 108.945 36.1329 109.375 35.0625 109.375H33.4688C33.429 109.375 33.3685 109.384 33.2783 109.429C33.2011 109.467 33.1456 109.5 33.1074 109.525C33.078 109.545 33.0639 109.558 33.0605 109.561C33.0576 109.564 33.045 109.578 33.0254 109.607C33 109.646 32.9673 109.701 32.9287 109.778C32.8836 109.869 32.875 109.929 32.875 109.969V164.156C32.875 164.196 32.8836 164.256 32.9287 164.347C32.9673 164.424 33 164.479 33.0254 164.518C33.045 164.547 33.0576 164.561 33.0605 164.564C33.0639 164.567 33.078 164.58 33.1074 164.6C33.1456 164.625 33.2011 164.658 33.2783 164.696C33.3685 164.741 33.429 164.75 33.4688 164.75H170.531C170.571 164.75 170.631 164.741 170.722 164.696C170.799 164.658 170.854 164.625 170.893 164.6C170.922 164.58 170.936 164.567 170.939 164.564C170.942 164.561 170.955 164.547 170.975 164.518C171 164.479 171.033 164.424 171.071 164.347C171.116 164.256 171.125 164.196 171.125 164.156V109.969C171.125 109.929 171.116 109.869 171.071 109.778C171.033 109.701 171 109.646 170.975 109.607C170.955 109.578 170.942 109.564 170.939 109.561C170.936 109.558 170.922 109.545 170.893 109.525C170.854 109.5 170.799 109.467 170.722 109.429C170.631 109.384 170.571 109.375 170.531 109.375H167.344C166.273 109.375 165.224 108.945 164.405 108.126C163.586 107.307 163.156 106.258 163.156 105.188C163.156 104.117 163.586 103.068 164.405 102.249C165.224 101.43 166.273 101 167.344 101H170.531C171.731 101 172.88 101.241 173.966 101.724C175.035 102.199 175.986 102.854 176.816 103.684C177.646 104.514 178.301 105.465 178.776 106.534C179.259 107.62 179.5 108.769 179.5 109.969V164.156C179.5 165.356 179.259 166.505 178.776 167.591C178.301 168.66 177.646 169.611 176.816 170.441C175.986 171.271 175.035 171.926 173.966 172.401C172.88 172.884 171.731 173.125 170.531 173.125H33.4688C32.2685 173.125 31.1203 172.884 30.0342 172.401C28.9653 171.926 28.0136 171.271 27.1836 170.441C26.3536 169.611 25.6987 168.66 25.2236 167.591C24.7409 166.505 24.5 165.356 24.5 164.156V109.969C24.5 108.769 24.7409 107.62 25.2236 106.534C25.6987 105.465 26.3536 104.514 27.1836 103.684C28.0136 102.854 28.9653 102.199 30.0342 101.724C31.1203 101.241 32.2685 101 33.4688 101H35.0625Z" fill="black" stroke="black" stroke-width="2"/>
<path d="M108.503 25.3152C124.446 22.2242 141.043 27.2656 152.438 38.823H152.437C163.985 50.2156 169.025 66.6472 165.935 82.5876L165.933 82.5964C162.71 98.3872 152.135 111.798 137.354 118.059C136.735 119.558 136.025 121.011 135.222 122.418C134.358 123.93 133.439 125.389 132.466 126.795C131.486 128.21 130.398 129.57 129.203 130.874C128.634 131.556 128.035 132.223 127.407 132.875H156.188C157.258 132.875 158.307 133.305 159.126 134.124C159.945 134.943 160.375 135.992 160.375 137.062C160.375 138.133 159.945 139.182 159.126 140.001C158.307 140.82 157.258 141.25 156.188 141.25H47.8125C47.2312 141.25 46.6696 141.107 46.1357 140.847C45.6637 140.672 45.2443 140.371 44.874 140.001C44.5003 139.627 44.1969 139.204 44.0225 138.726C43.7668 138.196 43.625 137.639 43.625 137.062C43.625 136.485 43.7673 135.928 44.0234 135.397C44.198 134.921 44.5007 134.497 44.874 134.124C45.2472 133.751 45.6699 133.447 46.1465 133.272C46.6771 133.016 47.2351 132.875 47.8125 132.875H57.4561C52.3233 127.646 48.4194 121.3 46.2227 114.417V114.416C43.6251 106.616 42.9732 98.3223 44.4385 90.3445C45.7447 82.2061 49.1657 74.7188 54.3711 68.3748C59.3288 62.1417 65.7035 57.1642 73.1836 53.908C79.4379 39.1244 92.6942 28.5416 108.494 25.3171L108.503 25.3152ZM112.027 63.3464C99.4232 56.5059 84.1869 56.6682 71.9111 63.9714C59.6195 71.2842 52.0001 84.5072 52 98.8123C52 102.237 52.415 105.609 53.2451 108.929C54.074 112.245 55.3172 115.405 56.9756 118.411C58.6335 121.416 60.6542 124.162 63.0381 126.649C65.3588 129.071 67.8723 131.144 70.5771 132.875H114.14C126.132 125.223 133.339 111.776 132.876 97.7302V97.7292C132.409 83.4159 124.473 70.3467 112.028 63.3464H112.027ZM117.938 32.8748C114.411 32.8748 110.993 33.2877 107.681 34.114L107.682 34.115C104.256 35.0492 100.987 36.3983 97.8711 38.1638L97.8613 38.1697C94.8644 39.8231 92.1239 41.8906 89.6387 44.3757C87.6931 46.3213 85.97 48.4245 84.4688 50.6853C91.7357 49.4289 99.2018 49.8929 106.265 51.9529C114.075 54.2311 121.24 58.4628 126.942 64.3279H126.941C132.796 70.027 137.022 77.184 139.298 84.9861C141.356 92.0437 141.82 99.5036 140.567 106.765C147.25 102.283 152.436 95.9259 155.417 88.4031C158.688 80.1483 159.307 71.1263 156.976 62.5789C154.645 54.0346 149.518 46.5673 142.512 41.116C135.346 35.8239 126.792 32.8748 117.938 32.8748Z" fill="black" stroke="black" stroke-width="2"/>
<path d="M92.4375 75.5C93.0158 75.5 93.5741 75.6425 94.1055 75.8994C94.5811 76.0741 95.0033 76.3764 95.376 76.749L114.501 95.874C114.873 96.2464 115.176 96.6683 115.351 97.1436C115.608 97.6751 115.75 98.2339 115.75 98.8125C115.75 99.3908 115.608 99.9491 115.351 100.48C115.176 100.956 114.874 101.378 114.501 101.751L95.376 120.876C95.0034 121.249 94.5811 121.551 94.1055 121.726C93.5741 121.983 93.0158 122.125 92.4375 122.125C91.8589 122.125 91.3001 121.983 90.7686 121.726C90.2933 121.551 89.8714 121.248 89.499 120.876L70.374 101.751C70.0014 101.378 69.6991 100.956 69.5244 100.48C69.2675 99.9491 69.125 99.3908 69.125 98.8125C69.125 98.2339 69.2672 97.6751 69.5244 97.1436C69.6992 96.6683 70.0016 96.2464 70.374 95.874L89.499 76.749C89.8714 76.3766 90.2933 76.0742 90.7686 75.8994C91.3001 75.6422 91.8589 75.5 92.4375 75.5ZM79.1895 98.8125L92.4375 112.061L105.686 98.8125L92.4375 85.5645L79.1895 98.8125Z" fill="black" stroke="black" stroke-width="2"/>
</svg>
