<svg width="204" height="204" viewBox="0 0 204 204" fill="none" xmlns="http://www.w3.org/2000/svg">
<path d="M177.951 3.09091C164.455 3.09091 153.471 13.9091 153.471 27.2C153.471 31.5273 154.726 35.8545 156.923 39.2545L121.458 73.8727C116.123 70.1636 109.218 68 102 68C95.4092 68 89.1323 69.8545 83.7969 73.2545L73.7538 62.4364C76.2646 58.7273 77.8338 54.0909 77.8338 49.4545C77.8338 36.1636 66.8492 25.3455 53.3538 25.3455C39.8584 25.3455 28.8738 36.1636 28.8738 49.4545C28.8738 62.7455 39.8584 73.5636 53.3538 73.5636C57.5385 73.5636 61.3046 72.6364 64.6523 70.7818L74.6954 81.6C70.3015 87.4727 67.4769 94.5818 67.4769 102.309C67.4769 105.091 67.7908 107.873 68.4184 110.345L44.88 120.545C40.4861 114.982 33.5815 111.582 25.7354 111.582C12.24 111.582 1.25537 122.4 1.25537 135.691C1.25537 148.982 12.24 159.8 25.7354 159.8C39.2308 159.8 50.2154 148.982 50.2154 135.691C50.2154 134.455 50.2154 133.218 49.9015 131.982L73.44 121.782C79.7169 130.745 90.0738 136.618 102 136.618C105.138 136.618 107.963 136.309 110.788 135.382L122.086 158.873C116.751 163.2 113.298 170 113.298 177.418C113.298 190.709 124.283 201.527 137.778 201.527C151.274 201.527 162.258 190.709 162.258 177.418C162.258 164.127 151.274 153.309 137.778 153.309C136.209 153.309 134.954 153.309 133.385 153.618L122.086 130.127C130.874 123.945 136.523 113.745 136.523 102.618C136.523 95.5091 134.326 88.7091 130.56 83.4545L165.711 48.8364C169.163 51 173.557 52.2364 177.951 52.2364C191.446 52.2364 202.431 41.4182 202.431 28.1273C202.431 14.8364 191.446 3.09091 177.951 3.09091ZM26.0492 147.127C19.4584 147.127 14.1231 141.873 14.1231 135.382C14.1231 128.891 19.4584 123.636 26.0492 123.636C32.64 123.636 37.9754 128.891 37.9754 135.382C37.9754 141.873 32.64 147.127 26.0492 147.127ZM149.391 176.8C149.391 183.291 144.055 188.545 137.465 188.545C130.874 188.545 125.538 183.291 125.538 176.8C125.538 170.309 130.874 165.055 137.465 165.055C144.055 165.055 149.391 170.309 149.391 176.8ZM41.4277 49.1455C41.4277 42.6545 46.7631 37.4 53.3538 37.4C59.9446 37.4 65.28 42.6545 65.28 49.1455C65.28 55.6364 59.9446 60.8909 53.3538 60.8909C46.7631 60.8909 41.4277 55.6364 41.4277 49.1455ZM102 123.636C89.76 123.636 80.0308 114.055 80.0308 102C80.0308 89.9454 89.76 80.3636 102 80.3636C114.24 80.3636 123.969 89.9454 123.969 102C123.969 114.055 114.24 123.636 102 123.636ZM177.951 38.9455C171.36 38.9455 166.025 33.6909 166.025 27.2C166.025 20.7091 171.36 15.4545 177.951 15.4545C184.542 15.4545 189.877 20.7091 189.877 27.2C189.877 33.6909 184.542 38.9455 177.951 38.9455Z" fill="black"/>
</svg>
