<svg version="1.2" xmlns="http://www.w3.org/2000/svg" viewBox="0 0 34 26" width="34" height="26">
	<style>
		.s0 { fill: #ffc428 } 
	</style>
	<path id="transaction-svgrepo-com" class="s0" d="m25.05 14.74c0.89 0 1.61 0.72 1.61 1.61 0 0.82-0.63 1.5-1.43 1.59l-0.18 0.02h-18.64l5.29 5.29c0.58 0.58 0.63 1.5 0.14 2.13l-0.14 0.15c-0.58 0.58-1.49 0.62-2.12 0.13l-0.15-0.13-8.05-8.05c-0.97-0.97-0.35-2.59 0.96-2.73l0.18-0.01zm-0.63-14.15l0.16 0.14 8.04 8.04c0.97 0.97 0.36 2.6-0.95 2.74l-0.19 0.01h-22.52c-0.89 0-1.61-0.72-1.61-1.61 0-0.83 0.62-1.51 1.42-1.6l0.19-0.01h18.64l-5.3-5.3c-0.58-0.58-0.62-1.49-0.13-2.12l0.13-0.15c0.58-0.58 1.49-0.63 2.12-0.14z"/>
</svg>