<svg version="1.2" xmlns="http://www.w3.org/2000/svg" viewBox="0 0 45 45" width="45" height="45">
	<defs>
		<clipPath clipPathUnits="userSpaceOnUse" id="cp1">
			<path d="m13.82 15.35h18.08v16.65h-18.08z"/>
		</clipPath>
	</defs>
	<style>
		.s0 { fill: #656565 } 
		.s1 { fill: #ffffff } 
	</style>
	<path id="Ellipse 19" fill-rule="evenodd" class="s0" d="m22.5 45c-12.44 0-22.5-10.06-22.5-22.5 0-12.44 10.06-22.5 22.5-22.5 12.44 0 22.5 10.06 22.5 22.5 0 12.44-10.06 22.5-22.5 22.5z"/>
	<g id="Group 22" clip-path="url(#cp1)">
		<path id="Path 47" fill-rule="evenodd" class="s1" d="m31.9 22.92c0 0.98-3.09 1.79-7.2 1.98v7.1h-3.66v-7.09c-4.12-0.19-7.22-1.01-7.22-1.99 0-0.97 3.1-1.79 7.22-1.98v-2.21h-5.07v-3.38h13.79v3.38h-5.06v2.21c4.11 0.19 7.2 1.01 7.2 1.98zm-0.86-0.17c0-0.75-2.71-1.39-6.34-1.55v2.47c-0.11 0.01-0.67 0.06-1.8 0.06-0.94 0-1.63-0.04-1.86-0.06v-2.47c-3.64 0.16-6.36 0.79-6.36 1.55 0 0.76 2.72 1.39 6.36 1.55 0.23 0.01 0.9 0.04 1.84 0.04 1.18 0 1.72-0.03 1.82-0.04 3.63-0.16 6.34-0.79 6.34-1.55z"/>
	</g>
</svg>