<svg version="1.2" xmlns="http://www.w3.org/2000/svg" viewBox="0 0 18 17" width="100" height="94">
	<defs>
		<clipPath clipPathUnits="userSpaceOnUse" id="cp1">
			<path d="m0.86 0.34h16.28v16.16h-16.28z"/>
		</clipPath>
		<clipPath clipPathUnits="userSpaceOnUse" id="cp2">
			<path d="m0.86 0.34h16.28v16.16h-16.28z"/>
		</clipPath>
		<clipPath clipPathUnits="userSpaceOnUse" id="cp3">
			<path d="m1.86 1.72h11.2v5.66h-11.2z"/>
		</clipPath>
		<clipPath clipPathUnits="userSpaceOnUse" id="cp4">
			<path d="m5.41 5.88h11.61v10.5h-11.61z"/>
		</clipPath>
		<clipPath clipPathUnits="userSpaceOnUse" id="cp5">
			<path d="m12.98 2.42h2.26v3.7h-2.26z"/>
		</clipPath>
		<clipPath clipPathUnits="userSpaceOnUse" id="cp6">
			<path d="m2.47 2.51h10.82v4.9h-10.82z"/>
		</clipPath>
		<clipPath clipPathUnits="userSpaceOnUse" id="cp7">
			<path d="m1.06 1.25h11.15v15.13h-11.15z"/>
		</clipPath>
		<clipPath clipPathUnits="userSpaceOnUse" id="cp8">
			<path d="m4.78 3.19h2.81v2.75h-2.81z"/>
		</clipPath>
		<clipPath clipPathUnits="userSpaceOnUse" id="cp9">
			<path d="m4.96 0.46h6.22v3.21h-6.22z"/>
		</clipPath>
		<clipPath clipPathUnits="userSpaceOnUse" id="cp10">
			<path d="m0.98 1.19h5.13v4.62h-5.13z"/>
		</clipPath>
		<clipPath clipPathUnits="userSpaceOnUse" id="cp11">
			<path d="m12.79 7.3h1.11v1.11h-1.11z"/>
		</clipPath>
		<clipPath clipPathUnits="userSpaceOnUse" id="cp12">
			<path d="m12.07 5.47h4.31v3.58h-4.31z"/>
		</clipPath>
		<clipPath clipPathUnits="userSpaceOnUse" id="cp13">
			<path d="m12.01 5.37h3.55v3.47h-3.55z"/>
		</clipPath>
		<clipPath clipPathUnits="userSpaceOnUse" id="cp14">
			<path d="m4.53 8.23h2.99v3.15h-2.99z"/>
		</clipPath>
		<clipPath clipPathUnits="userSpaceOnUse" id="cp15">
			<path d="m6.13 11.54h2.36v1.73h-2.36z"/>
		</clipPath>
		<clipPath clipPathUnits="userSpaceOnUse" id="cp16">
			<path d="m12.87 7.42h0.35v0.39h-0.35z"/>
		</clipPath>
	</defs>
	<style>
		.s0 { fill: #e77e23 } 
		.s1 { fill: #650000 } 
		.s2 { fill: #ffffff } 
		.s3 { fill: #29b860 } 
		.s4 { fill: #4fec91 } 
		.s5 { fill: #1fbc61 } 
	</style>
	<g id="Group 545">
		<g id="Group 544" clip-path="url(#cp1)">
			<g id="Group 543">
				<g id="Group 542" clip-path="url(#cp2)">
					<path id="Path 185" class="s0" d="m16.45 11.02l-9.52 5.18c-0.73 0.4-1.66 0.11-2.04-0.64l-3.67-7.26c-0.36-0.66-0.11-1.63 0.65-2.12l8.37-4.24 1.13-0.57c0.55-0.28 1.23-0.04 1.48 0.53l0.26 0.57c0.38 0.04 0.72 0.27 0.89 0.64l2.93 6.51c0.23 0.52 0.02 1.12-0.48 1.4z"/>
					<g id="Group 502" style="opacity: .3">
						<g id="Group 501">
							<g id="Group 500" clip-path="url(#cp3)">
								<path id="Path 186" class="s1" d="m3.45 7.1c-0.48 0.47-2.51 0.38-1.1-0.58l8.19-4.16 1.03-0.52c0.56-0.28 1.23-0.04 1.49 0.52"/>
							</g>
						</g>
					</g>
					<g id="Group 505" style="opacity: .3">
						<g id="Group 504">
							<g id="Group 503" clip-path="url(#cp4)">
								<path id="Path 187" class="s1" d="m16.45 11.02l-9.52 5.18c-0.49 0.27-1.08 0.23-1.52-0.06q0.43 0.04 0.85-0.18l9.52-5.18c0.5-0.27 0.7-0.88 0.47-1.4l-0.43-0.96-1.72 0.89c-0.63 0.33-1.42 0.06-1.72-0.59q-0.12-0.26-0.12-0.53c0-0.46 0.25-0.9 0.69-1.12l1.83-0.95 0.46-0.24 1.04 2.3 0.65 1.44c0.23 0.52 0.02 1.12-0.48 1.4z"/>
							</g>
						</g>
					</g>
					<g id="Group 508" style="opacity: .3">
						<g id="Group 507">
							<g id="Group 506" clip-path="url(#cp5)">
								<path id="Path 188" class="s1" d="m15.24 5.88l-0.46 0.24-1.46-3.25q-0.12-0.26-0.34-0.42 0.05-0.02 0.11-0.03l0.02 0.05c0.38 0.04 0.72 0.27 0.89 0.64z"/>
							</g>
						</g>
					</g>
					<g id="Group 511" style="opacity: .6">
						<g id="Group 510">
							<g id="Group 509" clip-path="url(#cp6)">
								<path id="Path 189" class="s2" d="m13.29 2.51q-0.53 0.18-1.04 0.44l-8.26 4.24q-0.38 0.19-0.8 0.22-0.29 0.01-0.72-0.03 0.72-0.03 1.3-0.3c0 0 8.62-4.43 8.64-4.44 0.02-0.01 0.88-0.13 0.88-0.13z"/>
							</g>
						</g>
					</g>
					<g id="Group 514" style="opacity: .6">
						<g id="Group 513">
							<g id="Group 512" clip-path="url(#cp7)">
								<path id="Path 190" class="s2" d="m12.21 1.31q-0.24 0-0.47 0.12l-1.13 0.57-8.37 4.24c-0.77 0.49-1.01 1.46-0.65 2.12l3.67 7.26c0.2 0.39 0.53 0.65 0.91 0.76-0.52-0.02-1.02-0.31-1.28-0.82l-3.67-7.26c-0.36-0.66-0.11-1.63 0.65-2.12l8.37-4.24 1.13-0.57c0.27-0.14 0.58-0.15 0.84-0.06z"/>
							</g>
						</g>
					</g>
					<path id="Path 191" class="s3" d="m7.59 5.08l-1.7 0.86-2.37 1.19-1.12-0.64-1.42-0.82 2.58-4.48 2.55 1.46 0.33 0.54z"/>
					<path id="Path 192" class="s4" d="m5.61 3.01l-1.38-0.79c-0.15 0.25-0.47 0.34-0.73 0.19l-1.49 2.6c0.26 0.14 0.34 0.47 0.2 0.72l0.78 0.45 1.13 0.65 2.43-1.18-1.21-1.72-0.06-0.13-0.26-0.34z"/>
					<path id="Path 193" class="s5" d="m5.41 5.03c0 0.36-0.3 0.66-0.66 0.66-0.37 0-0.67-0.3-0.67-0.66 0-0.37 0.3-0.66 0.67-0.66 0.36 0 0.66 0.29 0.66 0.66z"/>
					<g id="Group 517" style="opacity: .3">
						<g id="Group 516">
							<g id="Group 515" clip-path="url(#cp8)">
								<path id="Path 194" class="s1" d="m7.59 5.08l-1.7 0.86-0.21-0.3-0.3-0.42-0.6-0.84 1.14-0.82 0.52-0.37z"/>
							</g>
						</g>
					</g>
					<path id="Path 195" class="s3" d="m11.18 3.26l-0.64-0.9-0.3-0.42-1.06-1.48-3.07 2.19-1.15 0.82 0.61 0.84 0.29 0.42 0.65 0.9"/>
					<path id="Path 196" class="s4" d="m10.67 3.52l-0.64-0.9-0.67-0.95c-0.24 0.17-0.58 0.12-0.75-0.12l-2.43 1.74c0.17 0.24 0.11 0.57-0.13 0.74l0.32 0.44 0.64 0.9"/>
					<g id="Group 520" style="opacity: .6">
						<g id="Group 519">
							<g id="Group 518" clip-path="url(#cp9)">
								<path id="Path 197" class="s2" d="m11.18 3.26l-0.22 0.11-0.47-0.67-0.3-0.42-1.06-1.49-3.07 2.2-0.95 0.68-0.15-0.2 1.15-0.82 3.07-2.19 1.06 1.48 0.3 0.42z"/>
							</g>
						</g>
					</g>
					<g id="Group 523" style="opacity: .55">
						<g id="Group 522">
							<g id="Group 521" clip-path="url(#cp10)">
								<path id="Path 198" class="s2" d="m6.11 2.65l-0.24 0.17-2.2-1.27-2.45 4.26-0.24-0.14 2.58-4.48z"/>
							</g>
						</g>
					</g>
					<path id="Path 199" class="s5" d="m9.21 3.86c0 0.37-0.3 0.67-0.66 0.67-0.37 0-0.67-0.3-0.67-0.67 0-0.36 0.3-0.66 0.67-0.66 0.36 0 0.66 0.3 0.66 0.66z"/>
					<path id="Path 200" class="s1" d="m6.22 16.5q-0.24 0-0.48-0.07c-0.41-0.13-0.75-0.42-0.95-0.81l-3.68-7.26q-0.04-0.1 0.05-0.16 0.11-0.04 0.16 0.05l3.68 7.26c0.17 0.34 0.46 0.58 0.81 0.69 0.36 0.11 0.74 0.08 1.07-0.1l9.52-5.19c0.44-0.24 0.62-0.79 0.42-1.24l-2.93-6.51c-0.14-0.32-0.44-0.54-0.79-0.57q-0.28-0.03-0.53 0.1l-8.87 4.49q-0.07 0.04-0.13 0.06c-0.79 0.35-1.58 0.34-1.77-0.03-0.06-0.11-0.13-0.43 0.54-0.82q0.09-0.05 0.16 0.04 0.04 0.1-0.04 0.16c-0.38 0.22-0.5 0.42-0.45 0.52 0.08 0.16 0.66 0.27 1.46-0.08q0.06-0.03 0.12-0.06l8.87-4.49q0.32-0.16 0.66-0.12c0.43 0.04 0.81 0.31 0.99 0.7l2.92 6.51c0.26 0.57 0.03 1.25-0.52 1.55l-9.52 5.18q-0.36 0.2-0.77 0.2z"/>
					<path id="Path 201" class="s1" d="m10.54 2.48q-0.07 0-0.11-0.06-0.04-0.1 0.05-0.16l1.04-0.53q0.46-0.22 0.95-0.06 0.48 0.18 0.69 0.64 0.04 0.11-0.06 0.16-0.1 0.03-0.15-0.06-0.18-0.37-0.56-0.52-0.39-0.13-0.76 0.05l-1.04 0.53q-0.03 0.01-0.05 0.01z"/>
					<path id="Path 202" class="s1" d="m2.15 8.33q-0.01 0-0.01 0-0.21-0.03-0.33-0.12-0.05-0.05-0.02-0.11 0.05-0.06 0.12-0.02 0.09 0.06 0.25 0.09 0.07 0.02 0.07 0.09-0.02 0.06-0.08 0.07z"/>
					<path id="Path 203" class="s1" d="m6.39 15.76q-0.06 0-0.08-0.06 0-0.08 0.07-0.1 0.25-0.04 0.51-0.18l0.05-0.03q0.07-0.03 0.11 0.03 0.03 0.07-0.03 0.11l-0.05 0.03q-0.29 0.15-0.56 0.2-0.01 0-0.02 0zm1.14-0.51q-0.05-0.01-0.07-0.05-0.03-0.06 0.03-0.11l0.55-0.29q0.07-0.03 0.11 0.03 0.03 0.07-0.03 0.11l-0.55 0.3q-0.02 0.01-0.04 0.01zm1.11-0.6q-0.05 0-0.08-0.04-0.02-0.07 0.04-0.11l0.55-0.29q0.07-0.03 0.11 0.03 0.03 0.07-0.03 0.11l-0.56 0.29q-0.01 0.01-0.03 0.01zm1.1-0.59q-0.04 0-0.07-0.04-0.03-0.07 0.03-0.11l0.56-0.3q0.06-0.02 0.1 0.04 0.03 0.07-0.03 0.11l-0.55 0.29q-0.02 0.01-0.04 0.01zm1.11-0.59q-0.05 0-0.07-0.04-0.03-0.07 0.03-0.11l0.55-0.3q0.07-0.03 0.11 0.04 0.03 0.06-0.03 0.1l-0.56 0.3q-0.01 0.01-0.03 0.01zm1.1-0.59q-0.04 0-0.07-0.04-0.03-0.07 0.03-0.11l0.56-0.3q0.07-0.03 0.11 0.03 0.02 0.07-0.04 0.11l-0.55 0.3q-0.02 0.01-0.04 0.01zm1.11-0.59q-0.05-0.01-0.07-0.05-0.03-0.06 0.03-0.11l0.55-0.29q0.07-0.03 0.11 0.03 0.03 0.07-0.03 0.11l-0.55 0.3q-0.02 0.01-0.04 0.01zm1.1-0.6q-0.04 0-0.07-0.04-0.03-0.07 0.04-0.11l0.55-0.29q0.07-0.03 0.11 0.03 0.03 0.07-0.04 0.11l-0.55 0.29q-0.02 0.01-0.04 0.01zm1.11-0.59q-0.05 0-0.07-0.04-0.03-0.07 0.03-0.11l0.49-0.26q0.03-0.02 0.06-0.03 0.06-0.04 0.11 0.02 0.03 0.07-0.03 0.11-0.03 0.02-0.06 0.04l-0.49 0.26q-0.02 0.01-0.04 0.01zm0.96-0.76q-0.02 0-0.03-0.01-0.07-0.04-0.04-0.1 0.09-0.21 0.09-0.43 0-0.07-0.01-0.14-0.01-0.07 0.07-0.09 0.07-0.01 0.09 0.07 0.01 0.08 0.01 0.16 0 0.26-0.11 0.49-0.02 0.05-0.07 0.05zm-0.13-1.2q-0.05 0-0.08-0.04l-0.26-0.57q-0.02-0.07 0.04-0.11 0.07-0.02 0.11 0.04l0.26 0.57q0.02 0.07-0.04 0.11-0.02 0-0.03 0zm-13.33-0.84q-0.06-0.01-0.08-0.07-0.01-0.07 0.07-0.09 0.28-0.06 0.57-0.19 0.07-0.02 0.11 0.04 0.02 0.07-0.04 0.11-0.31 0.13-0.61 0.2-0.01 0-0.02 0zm12.81-0.3q-0.05 0-0.08-0.04l-0.26-0.57q-0.02-0.07 0.04-0.11 0.07-0.03 0.11 0.04l0.26 0.57q0.02 0.07-0.04 0.1-0.02 0.01-0.03 0.01zm-11.65-0.17q-0.05 0-0.07-0.05-0.03-0.06 0.03-0.1l0.56-0.29q0.07-0.02 0.11 0.04 0.03 0.07-0.04 0.11l-0.56 0.28q-0.01 0.01-0.03 0.01zm1.12-0.57q-0.05 0-0.07-0.04-0.03-0.07 0.03-0.11l0.56-0.28q0.07-0.03 0.11 0.03 0.03 0.07-0.04 0.11l-0.56 0.28q-0.01 0.01-0.03 0.01zm10-0.4q-0.05 0-0.07-0.05l-0.26-0.57q-0.02-0.07 0.04-0.1 0.07-0.03 0.11 0.04l0.26 0.57q0.02 0.07-0.04 0.1-0.02 0.01-0.04 0.01zm-8.88-0.17q-0.05 0-0.08-0.04-0.02-0.07 0.04-0.11l0.56-0.28q0.07-0.03 0.11 0.03 0.02 0.07-0.04 0.11l-0.56 0.29q-0.02 0-0.03 0zm1.11-0.56q-0.04 0-0.07-0.05-0.02-0.07 0.04-0.1l0.56-0.29q0.07-0.03 0.11 0.04 0.02 0.07-0.04 0.1l-0.56 0.29q-0.02 0.01-0.04 0.01zm7.25-0.41q-0.05 0-0.07-0.05l-0.26-0.57q-0.03-0.07 0.04-0.1 0.07-0.03 0.1 0.04l0.27 0.57q0.02 0.07-0.04 0.1-0.02 0.01-0.04 0.01zm-6.13-0.16q-0.04 0-0.07-0.04-0.03-0.07 0.04-0.11l0.56-0.29q0.06-0.02 0.1 0.04 0.03 0.07-0.03 0.11l-0.56 0.28q-0.02 0.01-0.04 0.01zm1.12-0.57q-0.05 0-0.07-0.04-0.03-0.07 0.04-0.11l0.55-0.28q0.07-0.03 0.11 0.03 0.03 0.07-0.03 0.11l-0.56 0.28q-0.02 0.01-0.04 0.01zm4.49-0.41q-0.05 0-0.07-0.05l-0.26-0.57q-0.03-0.07 0.04-0.1 0.07-0.03 0.1 0.04l0.26 0.57q0.03 0.07-0.04 0.1-0.01 0.01-0.03 0.01zm-3.37-0.15q-0.05-0.01-0.07-0.05-0.03-0.07 0.03-0.11l0.56-0.28q0.07-0.03 0.11 0.04 0.03 0.06-0.03 0.1l-0.56 0.29q-0.02 0.01-0.04 0.01zm1.12-0.57q-0.05 0-0.07-0.05-0.03-0.06 0.03-0.1l0.56-0.29q0.07-0.02 0.11 0.04 0.03 0.07-0.04 0.11l-0.56 0.28q-0.01 0.01-0.03 0.01zm1.7-0.4q-0.03 0-0.06-0.03-0.15-0.14-0.36-0.15-0.07 0-0.14 0.02-0.07 0.01-0.1-0.06-0.01-0.07 0.06-0.1 0.09-0.02 0.18-0.02 0.28 0.01 0.48 0.2 0.04 0.06 0 0.12-0.03 0.02-0.06 0.02z"/>
					<path id="Path 204" class="s1" d="m5.77 15.71q-0.01 0-0.02 0-0.16-0.06-0.29-0.17-0.06-0.05-0.02-0.11 0.05-0.05 0.12-0.02 0.11 0.09 0.24 0.15 0.07 0.03 0.05 0.1-0.02 0.05-0.08 0.05z"/>
					<path id="Path 205" class="s1" d="m13.11 2.59q-0.07 0-0.11-0.07l-0.26-0.58q-0.17-0.37-0.56-0.51-0.39-0.14-0.76 0.05l-1.13 0.57q-0.1 0.04-0.16-0.05-0.04-0.1 0.05-0.16l1.14-0.57q0.46-0.23 0.94-0.07 0.48 0.18 0.7 0.65l0.26 0.57q0.03 0.11-0.06 0.16-0.02 0.01-0.05 0.01z"/>
					<path id="Path 206" class="s1" d="m1.22 8.42q-0.07 0-0.11-0.06c-0.4-0.75-0.09-1.77 0.69-2.27q0.1-0.05 0.17 0.03 0.05 0.1-0.04 0.16c-0.68 0.44-0.95 1.32-0.61 1.97q0.04 0.1-0.05 0.16-0.02 0.01-0.05 0.01z"/>
					<path id="Path 207" class="s1" d="m6.51 5.74q-0.06 0-0.1-0.04l-1.54-2.16q-0.03-0.04-0.02-0.09 0.01-0.05 0.05-0.08l4.21-3.01q0.04-0.03 0.09-0.02 0.04 0.01 0.07 0.05l2 2.8q0.06 0.1-0.02 0.17-0.1 0.05-0.17-0.03l-1.93-2.71-4.02 2.87 1.47 2.07q0.06 0.09-0.02 0.16-0.04 0.03-0.07 0.02z"/>
					<path id="Path 208" class="s1" d="m7.01 5.47q-0.05 0-0.08-0.04l-0.96-1.34q-0.05-0.08 0.02-0.14c0.2-0.14 0.24-0.41 0.1-0.6q-0.02-0.04-0.01-0.08 0-0.04 0.04-0.07l2.43-1.73q0.08-0.05 0.15 0.02c0.13 0.19 0.4 0.24 0.6 0.1q0.03-0.03 0.07-0.02 0.05 0.01 0.07 0.04l1.32 1.85q0.05 0.08-0.03 0.14-0.08 0.05-0.14-0.02l-1.26-1.77c-0.25 0.12-0.54 0.07-0.73-0.12l-2.28 1.63c0.12 0.24 0.07 0.54-0.13 0.73l0.91 1.26q0.04 0.08-0.03 0.15-0.03 0.01-0.06 0.01z"/>
					<path id="Path 209" class="s1" d="m3.52 7.25q-0.03 0-0.06-0.01l-2.54-1.46q-0.09-0.07-0.04-0.16l2.58-4.49q0.06-0.09 0.16-0.05l2.55 1.47q0.08 0.06 0.04 0.16-0.06 0.09-0.16 0.04l-2.45-1.4-2.46 4.28 2.44 1.4q0.09 0.06 0.04 0.16-0.04 0.06-0.1 0.06z"/>
					<path id="Path 210" class="s1" d="m4.12 6.94q-0.03 0-0.05-0.02l-1.91-1.1q-0.08-0.05-0.04-0.14c0.12-0.2 0.04-0.47-0.16-0.58q-0.08-0.06-0.04-0.15l1.49-2.59q0.02-0.03 0.06-0.05 0.05-0.01 0.08 0.01c0.21 0.12 0.47 0.05 0.59-0.15q0.05-0.08 0.14-0.04l1.38 0.79q0.07 0.05 0.04 0.14-0.06 0.08-0.15 0.04l-1.29-0.75q-0.13 0.16-0.33 0.22-0.2 0.05-0.39-0.02l-1.39 2.43c0.21 0.17 0.29 0.46 0.19 0.71l1.83 1.06q0.08 0.05 0.04 0.14-0.03 0.05-0.09 0.05z"/>
					<path id="Path 211" class="s0" d="m16.21 7.69l-2.36 1.22c-0.64 0.33-1.43 0.06-1.73-0.59-0.28-0.61-0.03-1.34 0.57-1.65l2.44-1.26c0.16-0.08 0.35-0.02 0.43 0.14l0.79 1.74c0.07 0.15 0.01 0.32-0.14 0.4z"/>
					<g id="Group 526" style="opacity: .6">
						<g id="Group 525">
							<g id="Group 524" clip-path="url(#cp11)">
								<path id="Path 212" class="s2" d="m13.9 7.86c0 0.31-0.25 0.55-0.56 0.55-0.3 0-0.55-0.24-0.55-0.55 0-0.31 0.25-0.56 0.55-0.56 0.31 0 0.56 0.25 0.56 0.56z"/>
							</g>
						</g>
					</g>
					<g id="Group 529" style="opacity: .3">
						<g id="Group 528">
							<g id="Group 527" clip-path="url(#cp12)">
								<path id="Path 213" class="s1" d="m16.21 7.69l-2.36 1.22c-0.64 0.33-1.43 0.06-1.73-0.59q-0.03-0.07-0.05-0.14c0.36 0.49 1.03 0.66 1.59 0.37l2.37-1.22c0.14-0.08 0.2-0.26 0.13-0.41l-0.66-1.45q0.03 0.03 0.06 0.08l0.79 1.74c0.07 0.15 0.01 0.32-0.14 0.4z"/>
							</g>
						</g>
					</g>
					<g id="Group 532" style="opacity: .6">
						<g id="Group 531">
							<g id="Group 530" clip-path="url(#cp13)">
								<path id="Path 214" class="s2" d="m15.56 5.55q-0.11-0.02-0.22 0.03l-2.45 1.26c-0.43 0.23-0.68 0.67-0.68 1.12q0 0.27 0.12 0.53 0.09 0.2 0.24 0.35-0.29-0.19-0.45-0.52-0.11-0.26-0.11-0.53c0-0.45 0.25-0.89 0.68-1.12l2.44-1.26c0.16-0.08 0.35-0.02 0.43 0.14z"/>
							</g>
						</g>
					</g>
					<path id="Path 215" fill-rule="evenodd" class="s1" d="m13.27 9.17q-0.23 0-0.45-0.07c-0.36-0.13-0.64-0.39-0.8-0.73-0.31-0.67-0.04-1.46 0.62-1.8l2.44-1.27q0.16-0.08 0.33-0.02 0.18 0.06 0.25 0.23l0.8 1.73c0.09 0.21 0.01 0.45-0.19 0.55l-2.37 1.23q-0.3 0.15-0.63 0.15zm2.01-3.68q-0.05 0-0.09 0.02l-2.45 1.27c-0.54 0.28-0.76 0.93-0.51 1.49q0.21 0.44 0.67 0.6 0.46 0.16 0.89-0.06l2.37-1.22c0.09-0.05 0.13-0.16 0.08-0.25l-0.79-1.74q-0.04-0.07-0.11-0.1-0.03-0.01-0.06-0.01z"/>
					<path id="Path 216" class="s1" d="m13.8 7.79c0 0.31-0.25 0.56-0.55 0.56-0.31 0-0.56-0.25-0.56-0.56 0-0.3 0.25-0.55 0.56-0.55 0.3 0 0.55 0.25 0.55 0.55z"/>
					<g id="Group 535" style="opacity: .19">
						<g id="Group 534">
							<g id="Group 533" clip-path="url(#cp14)">
								<path id="Path 217" class="s2" d="m7.25 10.69l-1.25 0.64c-0.25 0.12-0.55 0.02-0.68-0.23l-0.74-1.53c-0.12-0.24-0.02-0.54 0.22-0.66l1.25-0.63c0.24-0.12 0.54-0.02 0.66 0.22l0.76 1.53c0.12 0.24 0.02 0.53-0.22 0.66z"/>
							</g>
						</g>
					</g>
					<g id="Group 538" style="opacity: .19">
						<g id="Group 537">
							<g id="Group 536" clip-path="url(#cp15)">
								<path id="Path 218" class="s2" d="m8.3 12.47l-1.57 0.77c-0.16 0.08-0.36 0.01-0.44-0.15l-0.13-0.27c-0.07-0.16-0.01-0.35 0.15-0.43l1.55-0.81c0.16-0.08 0.36-0.02 0.44 0.15l0.15 0.3c0.08 0.16 0.02 0.36-0.15 0.44z"/>
							</g>
						</g>
					</g>
					<g id="Group 541" style="opacity: .19">
						<g id="Group 540">
							<g id="Group 539" clip-path="url(#cp16)">
								<path id="Path 219" class="s2" d="m13.19 7.43c0.06 0.05 0.04 0.17-0.04 0.27-0.09 0.09-0.2 0.14-0.25 0.09-0.06-0.04-0.03-0.16 0.05-0.26 0.08-0.1 0.19-0.14 0.24-0.1z"/>
							</g>
						</g>
					</g>
				</g>
			</g>
		</g>
	</g>
</svg>