<?xml version="1.0" encoding="UTF-8"?>
<svg id="Layer_1" xmlns="http://www.w3.org/2000/svg" version="1.1" viewBox="0 0 200 200">
  <!-- Generator: Adobe Illustrator 29.5.0, SVG Export Plug-In . SVG Version: 2.1.0 Build 137)  -->
  <defs>
    <style>
      .st0 {
        fill: #fff;
      }
    </style>
  </defs>
  <g id="Icon_ion-wallet-outline">
    <path class="st0" d="M149.9,162H50.1c-10.8,0-19.5-8.7-19.5-19.5v-59.9c0-10.8,8.7-19.5,19.5-19.5h99.8c10.8,0,19.5,8.7,19.5,19.5v59.9c0,10.8-8.7,19.5-19.5,19.5ZM50.1,72.1c-5.8,0-10.5,4.7-10.5,10.5v59.9c0,5.8,4.7,10.5,10.5,10.5h99.8c5.8,0,10.5-4.7,10.5-10.5v-59.9c0-5.8-4.7-10.5-10.5-10.5H50.1Z"/>
    <path class="st0" d="M39.6,87.5h-9v-15.3c0-9.6,6.9-17.9,16.4-19.7l78.7-13.4c.8-.6,2-1,3.7-1,.7,0,1.8,0,3.5,0,11.1,0,20.1,9,20.1,20.1v9.4h-9v-9.4c0-6.1-5-11.1-11.1-11.1h-1.3c-.1,0-.2,0-.3.1-.2,0-.4,0-.5.1l-82.2,14c-5.2,1-9,5.6-9,10.9v15.3Z"/>
    <path id="Path_17" class="st0" d="M134.9,122.5c-5.5,0-10-4.5-10-10s4.5-10,10-10,10,4.5,10,10-4.5,10-10,10h0Z"/>
  </g>
</svg>