<svg version="1.2" xmlns="http://www.w3.org/2000/svg" viewBox="0 0 42 49" width="100" height="117">
	<defs>
		<clipPath clipPathUnits="userSpaceOnUse" id="cp1">
			<path d="m18.36 5.66q-0.32 0.4-0.61 0.81c-2.61 3.86-4.16 8.1-4.48 12.77q-0.19 2.71 0.31 5.38 0.87 4.73 3.63 8.67c2.82 4.02 6.55 6.95 10.93 9.1q0.11 0.06 0.23 0.1c0.16 0.04 0.3-0.02 0.36-0.15 0.07-0.13 0.04-0.27-0.09-0.37q-0.15-0.11-0.31-0.19-1.91-0.99-3.68-2.19c-2.68-1.83-5.03-4-6.89-6.67q-5.13-7.32-3.73-16.16c0.35-2.24 1.05-4.39 1.98-6.47 0.68-1.54 1.52-3 2.36-4.45 0.04-0.08 0.11-0.15 0.12-0.24q-0.02-0.01-0.04-0.01-0.07 0.01-0.09 0.07z"/>
		</clipPath>
		<clipPath clipPathUnits="userSpaceOnUse" id="cp2">
			<path d="m12.65 37q-0.19 0.08-0.34 0.21-0.24 0.22-0.02 0.46 0.18 0.17 0.4 0.27c1.16 0.56 2.35 1.02 3.66 1.11 0.95 0.06 1.86-0.05 2.73-0.42q0.71-0.29 1.26-0.9c-0.52-0.34-1.03-0.61-1.58-0.8q-1.06-0.36-2.16-0.53-0.48-0.06-0.95-0.06-1.55 0.01-3 0.66z"/>
		</clipPath>
		<clipPath clipPathUnits="userSpaceOnUse" id="cp3">
			<path d="m9.46 26.91q0.02 0.09 0.05 0.19 0.25 0.78 0.66 1.49 0.67 1.21 1.92 1.8c0.79 0.37 1.64 0.53 2.51 0.57q0.08 0 0.17 0c0.12 0 0.24 0 0.36-0.05 0.13-0.06 0.13-0.09 0.06-0.24-0.33-0.69-0.8-1.29-1.3-1.87q-1.18-1.35-2.88-1.94-0.6-0.21-1.23-0.29-0.06-0.01-0.1-0.01-0.29 0-0.22 0.35z"/>
		</clipPath>
		<clipPath clipPathUnits="userSpaceOnUse" id="cp4">
			<path d="m11.52 32.03q-0.28 0-0.55 0.09c-0.19 0.08-0.24 0.18-0.18 0.38q0.07 0.22 0.22 0.39 0.43 0.54 0.94 1.01 0.6 0.56 1.38 0.79 1.83 0.51 3.71 0.23c0.25-0.03 0.51-0.05 0.76-0.23-0.11-0.08-0.2-0.12-0.28-0.19-1.11-0.98-2.4-1.66-3.81-2.12-0.66-0.21-1.32-0.36-2.02-0.36q-0.08 0-0.17 0.01z"/>
		</clipPath>
		<clipPath clipPathUnits="userSpaceOnUse" id="cp5">
			<path d="m18.34 21.38q-0.66 0.33-1.28 0.75c-0.37 0.25-0.73 0.53-1.01 0.89q-1.06 1.36-1.15 3.08 0 0.1 0 0.2c0 0.18 0.04 0.22 0.2 0.2q0.2-0.02 0.39-0.06 0.84-0.13 1.5-0.66c1.34-1.05 1.88-2.46 1.86-4.12q-0.01-0.36-0.25-0.36-0.11 0-0.26 0.08z"/>
		</clipPath>
		<clipPath clipPathUnits="userSpaceOnUse" id="cp6">
			<path d="m19.36 25.01q-0.05 0.02-0.1 0.06c-0.36 0.26-0.74 0.51-1.07 0.81-1.06 0.97-1.66 2.16-1.71 3.66-0.03 0.22 0.09 0.47 0.06 0.73-0.01 0.08 0.06 0.09 0.11 0.1q0.11 0.02 0.22-0.02 0.59-0.13 1.07-0.48c1.15-0.84 1.9-1.93 2.03-3.39q0.06-0.67-0.16-1.3-0.08-0.25-0.23-0.24-0.09 0-0.22 0.07z"/>
		</clipPath>
		<clipPath clipPathUnits="userSpaceOnUse" id="cp7">
			<path d="m9 21.11q0 0.01 0 0.04 0 0.04 0 0.13c0-0.01 0 0.05 0.01 0.11q0.51 3.05 3.14 4.67 0.44 0.29 0.96 0.41 0.16 0.05 0.33 0.01c0.08-0.03 0.12-0.06 0.1-0.18-0.14-0.73-0.41-1.4-0.76-2.05-0.62-1.14-1.45-2.1-2.55-2.79q-0.46-0.3-0.98-0.51-0.06-0.02-0.11-0.02-0.12 0-0.14 0.18z"/>
		</clipPath>
		<clipPath clipPathUnits="userSpaceOnUse" id="cp8">
			<path d="m23 31.12q-0.18 0.21-0.3 0.47c-0.6 1.11-0.99 2.29-1 3.56 0 0.66 0.03 1.32 0.29 1.94 0.03 0.05 0.01 0.1 0.03 0.18q0.31-0.05 0.48-0.29c0.47-0.6 0.91-1.22 1.25-1.9q0.82-1.68 0.25-3.47-0.07-0.24-0.22-0.46-0.18-0.26-0.39-0.26-0.19 0-0.39 0.23z"/>
		</clipPath>
		<clipPath clipPathUnits="userSpaceOnUse" id="cp9">
			<path d="m21.66 28.27q-0.12 0.05-0.22 0.12-0.66 0.42-1.16 1.03-0.69 0.88-1.07 1.93c-0.27 0.71-0.42 1.46-0.59 2.2q-0.01 0.08 0.05 0.11 0.1 0.05 0.22 0.05 0.54 0.02 0.98-0.3 0.72-0.48 1.2-1.21c0.65-1.02 0.93-2.16 1.05-3.34q0.01-0.19-0.03-0.37-0.06-0.27-0.25-0.27-0.08 0-0.18 0.05z"/>
		</clipPath>
		<clipPath clipPathUnits="userSpaceOnUse" id="cp10">
			<path d="m9.51 16.17q-0.05 0.18-0.07 0.36c-0.14 1.1 0.14 2.1 0.68 3.04q0.55 0.97 1.53 1.49 0.35 0.19 0.74 0.26c0.23 0.04 0.26 0.02 0.26-0.22q-0.01-0.12-0.02-0.25c-0.06-0.66-0.27-1.28-0.49-1.9q-0.6-1.64-1.99-2.71-0.14-0.11-0.3-0.2-0.09-0.06-0.16-0.06-0.12 0-0.18 0.19z"/>
		</clipPath>
		<clipPath clipPathUnits="userSpaceOnUse" id="cp11">
			<path d="m17.95 17.84q-0.22 0.03-0.44 0.09c-0.83 0.2-1.59 0.55-2.19 1.19q-0.85 0.91-1.19 2.11c-0.07 0.23-0.05 0.27 0.18 0.31q0.27 0.05 0.53 0.04 0.35 0.02 0.67-0.08 2.2-0.71 2.62-2.98c0.03-0.17 0.06-0.33 0.05-0.5q-0.02-0.19-0.17-0.19-0.03 0-0.06 0.01z"/>
		</clipPath>
		<clipPath clipPathUnits="userSpaceOnUse" id="cp12">
			<path d="m17.86 14.48c-0.16 0.02-0.34 0-0.52 0.04q-0.72 0.16-1.3 0.62-0.86 0.7-1.47 1.62-0.23 0.32-0.38 0.69c-0.08 0.17-0.04 0.26 0.14 0.31q0.11 0.03 0.22 0.04 0.74 0.07 1.45-0.13c1.01-0.31 1.67-1 2.12-1.92q0.23-0.49 0.34-1.01c0.04-0.19 0-0.24-0.19-0.26q-0.07 0-0.15 0-0.12 0-0.26 0z"/>
		</clipPath>
		<clipPath clipPathUnits="userSpaceOnUse" id="cp13">
			<path d="m10.62 12.03q-0.18 0.84-0.05 1.68c0.14 0.94 0.47 1.79 1.1 2.52q0.55 0.64 1.36 1.02 0.02-0.11 0.03-0.17c0.06-1.2-0.12-2.36-0.62-3.45q-0.37-0.83-1.05-1.42-0.21-0.2-0.48-0.33-0.11-0.04-0.16-0.04-0.1-0.01-0.13 0.19z"/>
		</clipPath>
		<clipPath clipPathUnits="userSpaceOnUse" id="cp14">
			<path d="m17.19 40.33q-0.1 0.05-0.18 0.13-0.22 0.23 0.03 0.43 0.18 0.11 0.39 0.16 0.87 0.23 1.78 0.27c1.33 0.06 2.58-0.27 3.75-0.9 0.08-0.04 0.17-0.08 0.22-0.19q-0.22-0.15-0.47-0.24-1.19-0.47-2.36-0.47-1.6 0.01-3.16 0.81z"/>
		</clipPath>
		<clipPath clipPathUnits="userSpaceOnUse" id="cp15">
			<path d="m16.65 12.24q-0.94 0.63-1.6 1.56c-0.15 0.21-0.16 0.23 0.06 0.36 0.3 0.18 0.64 0.21 0.91 0.22 0.95-0.03 1.77-0.36 2.42-0.94q0.66-0.61 0.76-1.5c0.02-0.22-0.01-0.24-0.22-0.27q-0.23-0.03-0.45-0.03-1.01 0.01-1.88 0.6z"/>
		</clipPath>
		<clipPath clipPathUnits="userSpaceOnUse" id="cp16">
			<path d="m20.07 8.55c-0.02 0-0.04 0-0.13 0-1.19 0.11-2.31 0.56-3.27 1.4q-0.3 0.27-0.53 0.62-0.06 0.08-0.1 0.17-0.08 0.17 0.1 0.24 0.08 0.03 0.16 0.06 1.83 0.53 3.29-0.7 0.63-0.53 0.83-1.34c0.1-0.38 0.07-0.46-0.27-0.46q-0.04 0-0.08 0.01z"/>
		</clipPath>
		<clipPath clipPathUnits="userSpaceOnUse" id="cp17">
			<path d="m25.46 34.35q-0.21 0.12-0.34 0.33-0.36 0.51-0.62 1.07-0.38 0.83-0.4 1.74c-0.02 0.56 0.09 1.1 0.26 1.63q0.12 0 0.17-0.07 0.42-0.35 0.8-0.75 0.56-0.63 0.75-1.46c0.17-0.68 0.12-1.36 0-2.04q-0.02-0.17-0.11-0.32-0.13-0.19-0.31-0.19-0.09 0-0.2 0.06z"/>
		</clipPath>
		<clipPath clipPathUnits="userSpaceOnUse" id="cp18">
			<path d="m14.35 5.65q-0.33 0.44-0.56 0.94-0.24 0.48-0.28 1.02c-0.05 1.07 0.43 1.88 1.22 2.54q0.14 0.12 0.32 0.17c0.1 0.02 0.16 0.01 0.2-0.12 0.12-0.52 0.13-1.04 0.16-1.52q0-0.67-0.11-1.25-0.15-0.91-0.53-1.74-0.1-0.24-0.19-0.24-0.08 0-0.23 0.2z"/>
		</clipPath>
		<clipPath clipPathUnits="userSpaceOnUse" id="cp19">
			<path d="m12.61 8.7q-0.04 0.07-0.07 0.15c-0.32 0.79-0.44 1.61-0.27 2.46 0.14 0.71 0.44 1.35 0.96 1.87q0.25 0.26 0.59 0.39 0.18 0.08 0.18-0.12c0.02-0.34 0.09-0.69 0.05-1.02 0.03-0.36-0.01-0.69-0.05-1.03q-0.13-1.31-0.89-2.4-0.13-0.19-0.29-0.34-0.05-0.04-0.1-0.04-0.07-0.01-0.11 0.08z"/>
		</clipPath>
		<clipPath clipPathUnits="userSpaceOnUse" id="cp20">
			<path d="m21.42 5.56c-0.77 0.11-1.52 0.33-2.2 0.73q-1.15 0.68-1.88 1.87 0.41 0.06 0.77 0.05 2.24-0.06 3.43-1.96 0.1-0.17 0.17-0.35 0.11-0.35-0.2-0.35-0.04 0-0.09 0.01z"/>
		</clipPath>
		<clipPath clipPathUnits="userSpaceOnUse" id="cp21">
			<path d="m16.74 2.76q-0.2 0.36-0.39 0.72c-0.43 0.85-0.57 1.76-0.47 2.71 0.04 0.47 0.17 0.92 0.46 1.3 0.23 0.3 0.28 0.3 0.45-0.03q0.04-0.07 0.07-0.15c0.37-0.86 0.55-1.77 0.58-2.77-0.02-0.14-0.03-0.35-0.05-0.55q-0.07-0.62-0.29-1.2c-0.03-0.09-0.05-0.21-0.15-0.22q-0.01 0-0.02 0c-0.11 0-0.15 0.11-0.19 0.19z"/>
		</clipPath>
		<clipPath clipPathUnits="userSpaceOnUse" id="cp22">
			<path d="m21.28 1.24c-0.07 0.01-0.13 0.07-0.18 0.11q-0.29 0.19-0.57 0.41c-0.95 0.78-1.66 1.7-1.81 2.97-0.02 0.15-0.1 0.34 0.02 0.42 0.12 0.08 0.28-0.04 0.41-0.12q0.77-0.46 1.32-1.16 0.82-1.03 0.94-2.35c-0.02-0.09 0.04-0.2-0.06-0.26q-0.04-0.02-0.07-0.02z"/>
		</clipPath>
	</defs>
	<style>
		.s0 { fill: #ffcd38 } 
	</style>
	<g id="Group 490">
		<g id="Group 447">
			<g id="Group 446" clip-path="url(#cp1)">
				<path id="Rectangle 184" fill-rule="evenodd" class="s0" d="m0.22 10.81l26.36-10.69 15.09 37.19-26.36 10.69z"/>
			</g>
		</g>
		<g id="Group 449">
			<g id="Group 448" clip-path="url(#cp2)">
				<path id="Rectangle 185" fill-rule="evenodd" class="s0" d="m11.18 36.73l8-3.25 2.13 5.24-8.01 3.24z"/>
			</g>
		</g>
		<g id="Group 451">
			<g id="Group 450" clip-path="url(#cp3)">
				<path id="Rectangle 186" fill-rule="evenodd" class="s0" d="m7.88 27.18l6.56-2.66 2.36 5.82-6.56 2.66z"/>
			</g>
		</g>
		<g id="Group 453">
			<g id="Group 452" clip-path="url(#cp4)">
				<path id="Rectangle 187" fill-rule="evenodd" class="s0" d="m9.66 32.46l7.14-2.9 2.07 5.11-7.14 2.9z"/>
			</g>
		</g>
		<g id="Group 455">
			<g id="Group 454" clip-path="url(#cp5)">
				<path id="Rectangle 188" fill-rule="evenodd" class="s0" d="m13.08 22.04l5.23-2.12 2.38 5.86-5.23 2.12z"/>
			</g>
		</g>
		<g id="Group 457">
			<g id="Group 456" clip-path="url(#cp6)">
				<path id="Rectangle 189" fill-rule="evenodd" class="s0" d="m14.55 25.71l4.95-2.01 2.41 5.92-4.96 2.01z"/>
			</g>
		</g>
		<g id="Group 459">
			<g id="Group 458" clip-path="url(#cp7)">
				<path id="Rectangle 190" fill-rule="evenodd" class="s0" d="m7.05 21.72l5.86-2.38 2.6 6.38-5.87 2.38z"/>
			</g>
		</g>
		<g id="Group 461">
			<g id="Group 460" clip-path="url(#cp8)">
				<path id="Rectangle 191" fill-rule="evenodd" class="s0" d="m19.48 31.79l4.51-1.83 2.6 6.41-4.51 1.83z"/>
			</g>
		</g>
		<g id="Group 463">
			<g id="Group 462" clip-path="url(#cp9)">
				<path id="Rectangle 192" fill-rule="evenodd" class="s0" d="m16.69 29l4.94-2 2.42 5.95-4.94 2.01z"/>
			</g>
		</g>
		<g id="Group 465">
			<g id="Group 464" clip-path="url(#cp10)">
				<path id="Rectangle 193" fill-rule="evenodd" class="s0" d="m7.42 16.74l4.76-1.92 2.35 5.78-4.76 1.93z"/>
			</g>
		</g>
		<g id="Group 467">
			<g id="Group 466" clip-path="url(#cp11)">
				<path id="Rectangle 194" fill-rule="evenodd" class="s0" d="m12.75 18.36l4.86-1.97 1.9 4.67-4.86 1.97z"/>
			</g>
		</g>
		<g id="Group 469">
			<g id="Group 468" clip-path="url(#cp12)">
				<path id="Rectangle 195" fill-rule="evenodd" class="s0" d="m12.94 14.95l4.94-2 1.79 4.41-4.94 2.01z"/>
			</g>
		</g>
		<g id="Group 471">
			<g id="Group 470" clip-path="url(#cp13)">
				<path id="Rectangle 196" fill-rule="evenodd" class="s0" d="m8.6 12.6l4.15-1.68 2.26 5.57-4.15 1.68z"/>
			</g>
		</g>
		<g id="Group 473">
			<g id="Group 472" clip-path="url(#cp14)">
				<path id="Rectangle 197" fill-rule="evenodd" class="s0" d="m16.21 39.79l6.07-2.47 1.54 3.8-6.07 2.46z"/>
			</g>
		</g>
		<g id="Group 475">
			<g id="Group 474" clip-path="url(#cp15)">
				<path id="Rectangle 198" fill-rule="evenodd" class="s0" d="m13.94 12.03l4.67-1.9 1.57 3.86-4.68 1.9z"/>
			</g>
		</g>
		<g id="Group 477">
			<g id="Group 476" clip-path="url(#cp16)">
				<path id="Rectangle 199" fill-rule="evenodd" class="s0" d="m15 8.95l4.88-1.98 1.64 4.03-4.88 1.98z"/>
			</g>
		</g>
		<g id="Group 479">
			<g id="Group 478" clip-path="url(#cp17)">
				<path id="Rectangle 200" fill-rule="evenodd" class="s0" d="m22.39 34.97l3.55-1.44 1.99 4.91-3.55 1.44z"/>
			</g>
		</g>
		<g id="Group 481">
			<g id="Group 480" clip-path="url(#cp18)">
				<path id="Rectangle 201" fill-rule="evenodd" class="s0" d="m11.75 6.14l3.39-1.37 1.98 4.88-3.39 1.37z"/>
			</g>
		</g>
		<g id="Group 483">
			<g id="Group 482" clip-path="url(#cp19)">
				<path id="Rectangle 202" fill-rule="evenodd" class="s0" d="m10.36 9.32l3.45-1.4 2.03 4.99-3.46 1.4z"/>
			</g>
		</g>
		<g id="Group 485">
			<g id="Group 484" clip-path="url(#cp20)">
				<path id="Rectangle 203" fill-rule="evenodd" class="s0" d="m16.41 5.92l4.74-1.92 1.56 3.84-4.75 1.92z"/>
			</g>
		</g>
		<g id="Group 487">
			<g id="Group 486" clip-path="url(#cp21)">
				<path id="Rectangle 204" fill-rule="evenodd" class="s0" d="m13.96 3.3l3.24-1.31 2.06 5.06-3.24 1.31z"/>
			</g>
		</g>
		<g id="Group 489">
			<g id="Group 488" clip-path="url(#cp22)">
				<path id="Rectangle 205" fill-rule="evenodd" class="s0" d="m17.23 1.81l3.82-1.55 1.79 4.41-3.82 1.55z"/>
			</g>
		</g>
	</g>
</svg>