<svg version="1.2" xmlns="http://www.w3.org/2000/svg" viewBox="0 0 42 49" width="100" height="117">
	<defs>
		<clipPath clipPathUnits="userSpaceOnUse" id="cp1">
			<path d="m23.41 5.66q0.31 0.4 0.6 0.81c2.62 3.86 4.17 8.1 4.49 12.77q0.18 2.71-0.31 5.38-0.88 4.73-3.64 8.67c-2.81 4.02-6.54 6.95-10.92 9.1q-0.11 0.06-0.23 0.1c-0.16 0.04-0.3-0.02-0.37-0.15-0.06-0.13-0.03-0.27 0.1-0.37q0.14-0.11 0.31-0.19 1.9-0.99 3.68-2.19c2.67-1.83 5.03-4 6.89-6.67q5.13-7.32 3.73-16.16c-0.36-2.24-1.06-4.39-1.98-6.47-0.69-1.54-1.52-3-2.36-4.45-0.05-0.08-0.11-0.15-0.12-0.24q0.02-0.01 0.04-0.01 0.06 0.01 0.09 0.07z"/>
		</clipPath>
		<clipPath clipPathUnits="userSpaceOnUse" id="cp2">
			<path d="m29.12 37q0.18 0.08 0.33 0.21 0.25 0.22 0.02 0.46-0.17 0.17-0.39 0.27c-1.17 0.56-2.36 1.02-3.67 1.11-0.94 0.06-1.85-0.05-2.73-0.42q-0.7-0.29-1.25-0.9c0.52-0.34 1.03-0.61 1.58-0.8q1.05-0.36 2.16-0.53 0.48-0.06 0.95-0.06 1.55 0.01 3 0.66z"/>
		</clipPath>
		<clipPath clipPathUnits="userSpaceOnUse" id="cp3">
			<path d="m32.3 26.91q-0.01 0.09-0.04 0.19-0.26 0.78-0.66 1.49-0.67 1.21-1.92 1.8c-0.8 0.37-1.64 0.53-2.51 0.57q-0.09 0-0.17 0c-0.12 0-0.25 0-0.36-0.05-0.14-0.06-0.14-0.09-0.07-0.24 0.34-0.69 0.81-1.29 1.3-1.87q1.19-1.35 2.89-1.94 0.6-0.21 1.23-0.29 0.05-0.01 0.1-0.01 0.29 0 0.21 0.35z"/>
		</clipPath>
		<clipPath clipPathUnits="userSpaceOnUse" id="cp4">
			<path d="m30.24 32.03q0.29 0 0.55 0.09c0.2 0.08 0.24 0.18 0.19 0.38q-0.08 0.22-0.23 0.39-0.42 0.54-0.94 1.01-0.59 0.56-1.38 0.79-1.83 0.51-3.71 0.23c-0.25-0.03-0.5-0.05-0.75-0.23 0.1-0.08 0.2-0.12 0.27-0.19 1.12-0.98 2.41-1.66 3.82-2.12 0.65-0.21 1.32-0.36 2.01-0.36q0.09 0 0.17 0.01z"/>
		</clipPath>
		<clipPath clipPathUnits="userSpaceOnUse" id="cp5">
			<path d="m23.42 21.38q0.67 0.33 1.29 0.75c0.37 0.25 0.73 0.53 1.01 0.89q1.06 1.36 1.15 3.08 0 0.1 0 0.2c-0.01 0.18-0.04 0.22-0.21 0.2q-0.19-0.02-0.38-0.06-0.84-0.13-1.51-0.66c-1.34-1.05-1.88-2.46-1.86-4.12q0.01-0.36 0.26-0.36 0.11 0 0.25 0.08z"/>
		</clipPath>
		<clipPath clipPathUnits="userSpaceOnUse" id="cp6">
			<path d="m22.41 25.01q0.05 0.02 0.09 0.06c0.37 0.26 0.74 0.51 1.08 0.81 1.06 0.97 1.66 2.16 1.7 3.66 0.04 0.22-0.08 0.47-0.06 0.73 0.01 0.08-0.05 0.09-0.1 0.1q-0.12 0.02-0.22-0.02-0.59-0.13-1.08-0.48c-1.14-0.84-1.89-1.93-2.02-3.39q-0.07-0.67 0.15-1.3 0.09-0.25 0.24-0.24 0.09 0 0.22 0.07z"/>
		</clipPath>
		<clipPath clipPathUnits="userSpaceOnUse" id="cp7">
			<path d="m32.76 21.11q0.01 0.01 0.01 0.04 0 0.04-0.01 0.13c0-0.01 0.01 0.05 0 0.11q-0.52 3.05-3.15 4.67-0.44 0.29-0.95 0.41-0.17 0.05-0.33 0.01c-0.09-0.03-0.12-0.06-0.1-0.18 0.14-0.73 0.41-1.4 0.76-2.05 0.62-1.14 1.44-2.1 2.55-2.79q0.46-0.3 0.97-0.51 0.07-0.02 0.12-0.02 0.11 0 0.13 0.18z"/>
		</clipPath>
		<clipPath clipPathUnits="userSpaceOnUse" id="cp8">
			<path d="m18.76 31.12q0.18 0.21 0.31 0.47c0.59 1.11 0.99 2.29 0.99 3.56 0.01 0.66-0.02 1.32-0.29 1.94-0.02 0.05 0 0.1-0.02 0.18q-0.31-0.05-0.49-0.29c-0.46-0.6-0.9-1.22-1.24-1.9q-0.83-1.68-0.25-3.47 0.07-0.24 0.21-0.46 0.19-0.26 0.39-0.26 0.2 0 0.39 0.23z"/>
		</clipPath>
		<clipPath clipPathUnits="userSpaceOnUse" id="cp9">
			<path d="m20.11 28.27q0.11 0.05 0.22 0.12 0.66 0.42 1.15 1.03 0.7 0.88 1.08 1.93c0.27 0.71 0.42 1.46 0.58 2.2q0.02 0.08-0.05 0.11-0.1 0.05-0.21 0.05-0.54 0.02-0.98-0.3-0.72-0.48-1.2-1.21c-0.66-1.02-0.93-2.16-1.06-3.34q0-0.19 0.04-0.37 0.06-0.27 0.25-0.27 0.07 0 0.18 0.05z"/>
		</clipPath>
		<clipPath clipPathUnits="userSpaceOnUse" id="cp10">
			<path d="m32.26 16.17q0.05 0.18 0.07 0.36c0.14 1.1-0.14 2.1-0.68 3.04q-0.55 0.97-1.54 1.49-0.35 0.19-0.74 0.26c-0.23 0.04-0.25 0.02-0.26-0.22q0.02-0.12 0.03-0.25c0.06-0.66 0.26-1.28 0.49-1.9q0.6-1.64 1.98-2.71 0.15-0.11 0.3-0.2 0.1-0.06 0.16-0.06 0.12 0 0.19 0.19z"/>
		</clipPath>
		<clipPath clipPathUnits="userSpaceOnUse" id="cp11">
			<path d="m23.81 17.84q0.22 0.03 0.44 0.09c0.84 0.2 1.59 0.55 2.2 1.19q0.85 0.91 1.19 2.11c0.06 0.23 0.04 0.27-0.19 0.31q-0.26 0.05-0.53 0.04-0.34 0.02-0.66-0.08-2.2-0.71-2.62-2.98c-0.03-0.17-0.07-0.33-0.05-0.5q0.01-0.19 0.17-0.19 0.02 0 0.05 0.01z"/>
		</clipPath>
		<clipPath clipPathUnits="userSpaceOnUse" id="cp12">
			<path d="m23.9 14.48c0.17 0.02 0.34 0 0.52 0.04q0.73 0.16 1.31 0.62 0.86 0.7 1.47 1.62 0.22 0.32 0.38 0.69c0.07 0.17 0.03 0.26-0.15 0.31q-0.1 0.03-0.22 0.04-0.73 0.07-1.44-0.13c-1.01-0.31-1.67-1-2.13-1.92q-0.23-0.49-0.33-1.01c-0.04-0.19-0.01-0.24 0.19-0.26q0.07 0 0.15 0 0.12 0 0.25 0z"/>
		</clipPath>
		<clipPath clipPathUnits="userSpaceOnUse" id="cp13">
			<path d="m31.15 12.03q0.17 0.84 0.05 1.68c-0.15 0.94-0.48 1.79-1.1 2.52q-0.55 0.64-1.36 1.02-0.02-0.11-0.03-0.17c-0.07-1.2 0.11-2.36 0.62-3.45q0.36-0.83 1.04-1.42 0.22-0.2 0.49-0.33 0.1-0.04 0.16-0.04 0.09-0.01 0.13 0.19z"/>
		</clipPath>
		<clipPath clipPathUnits="userSpaceOnUse" id="cp14">
			<path d="m24.58 40.33q0.1 0.05 0.18 0.13 0.22 0.23-0.03 0.43-0.18 0.11-0.39 0.16-0.88 0.23-1.78 0.27c-1.34 0.06-2.58-0.27-3.76-0.9-0.08-0.04-0.17-0.08-0.21-0.19q0.22-0.15 0.46-0.24 1.2-0.47 2.36-0.47 1.61 0.01 3.17 0.81z"/>
		</clipPath>
		<clipPath clipPathUnits="userSpaceOnUse" id="cp15">
			<path d="m25.11 12.24q0.95 0.63 1.61 1.56c0.15 0.21 0.15 0.23-0.06 0.36-0.3 0.18-0.64 0.21-0.91 0.22-0.95-0.03-1.78-0.36-2.43-0.94q-0.66-0.61-0.75-1.5c-0.03-0.22 0-0.24 0.21-0.27q0.23-0.03 0.45-0.03 1.01 0.01 1.88 0.6z"/>
		</clipPath>
		<clipPath clipPathUnits="userSpaceOnUse" id="cp16">
			<path d="m21.7 8.55c0.02 0 0.04 0 0.12 0 1.2 0.11 2.32 0.56 3.27 1.4q0.31 0.27 0.54 0.62 0.05 0.08 0.09 0.17 0.08 0.17-0.09 0.24-0.08 0.03-0.16 0.06-1.84 0.53-3.29-0.7-0.63-0.53-0.84-1.34c-0.1-0.38-0.07-0.46 0.27-0.46q0.04 0 0.09 0.01z"/>
		</clipPath>
		<clipPath clipPathUnits="userSpaceOnUse" id="cp17">
			<path d="m16.31 34.35q0.21 0.12 0.34 0.33 0.35 0.51 0.61 1.07 0.39 0.83 0.41 1.74c0.02 0.56-0.09 1.1-0.26 1.63q-0.12 0-0.17-0.07-0.42-0.35-0.8-0.75-0.56-0.63-0.76-1.46c-0.16-0.68-0.11-1.36 0-2.04q0.03-0.17 0.12-0.32 0.12-0.19 0.3-0.19 0.1 0 0.21 0.06z"/>
		</clipPath>
		<clipPath clipPathUnits="userSpaceOnUse" id="cp18">
			<path d="m27.41 5.65q0.33 0.44 0.57 0.94 0.24 0.48 0.27 1.02c0.06 1.07-0.42 1.88-1.21 2.54q-0.14 0.12-0.32 0.17c-0.11 0.02-0.17 0.01-0.2-0.12-0.12-0.52-0.13-1.04-0.17-1.52q0.01-0.67 0.11-1.25 0.16-0.91 0.54-1.74 0.1-0.24 0.19-0.24 0.08 0 0.22 0.2z"/>
		</clipPath>
		<clipPath clipPathUnits="userSpaceOnUse" id="cp19">
			<path d="m29.16 8.7q0.04 0.07 0.07 0.15c0.31 0.79 0.43 1.61 0.26 2.46-0.14 0.71-0.43 1.35-0.95 1.87q-0.26 0.26-0.59 0.39-0.18 0.08-0.18-0.12c-0.02-0.34-0.1-0.69-0.06-1.02-0.03-0.36 0.02-0.69 0.05-1.03q0.14-1.31 0.89-2.4 0.13-0.19 0.3-0.34 0.05-0.04 0.1-0.04 0.06-0.01 0.11 0.08z"/>
		</clipPath>
		<clipPath clipPathUnits="userSpaceOnUse" id="cp20">
			<path d="m20.35 5.56c0.77 0.11 1.51 0.33 2.19 0.73q1.15 0.68 1.89 1.87-0.41 0.06-0.77 0.05-2.24-0.06-3.43-1.96-0.11-0.17-0.17-0.35-0.11-0.35 0.19-0.35 0.05 0 0.1 0.01z"/>
		</clipPath>
		<clipPath clipPathUnits="userSpaceOnUse" id="cp21">
			<path d="m25.03 2.76q0.2 0.36 0.38 0.72c0.43 0.85 0.57 1.76 0.48 2.71-0.05 0.47-0.17 0.92-0.47 1.3-0.23 0.3-0.28 0.3-0.44-0.03q-0.04-0.07-0.07-0.15c-0.37-0.86-0.55-1.77-0.58-2.77 0.01-0.14 0.02-0.35 0.05-0.55q0.07-0.62 0.28-1.2c0.04-0.09 0.05-0.21 0.16-0.22q0.01 0 0.02 0c0.1 0 0.15 0.11 0.19 0.19z"/>
		</clipPath>
		<clipPath clipPathUnits="userSpaceOnUse" id="cp22">
			<path d="m20.49 1.24c0.06 0.01 0.12 0.07 0.18 0.11q0.29 0.19 0.57 0.41c0.94 0.78 1.66 1.7 1.81 2.97 0.01 0.15 0.1 0.34-0.02 0.42-0.12 0.08-0.28-0.04-0.41-0.12q-0.77-0.46-1.33-1.16-0.82-1.03-0.93-2.35c0.01-0.09-0.04-0.2 0.06-0.26q0.03-0.02 0.06-0.02z"/>
		</clipPath>
	</defs>
	<style>
		.s0 { fill: #ffcd38 } 
	</style>
	<g id="Group 491">
		<g id="Group 447">
			<g id="Group 446" clip-path="url(#cp1)">
				<path id="Rectangle 184" fill-rule="evenodd" class="s0" d="m26.45 48l-26.35-10.69 15.09-37.19 26.35 10.69z"/>
			</g>
		</g>
		<g id="Group 449">
			<g id="Group 448" clip-path="url(#cp2)">
				<path id="Rectangle 185" fill-rule="evenodd" class="s0" d="m28.46 41.96l-8-3.24 2.12-5.24 8.01 3.25z"/>
			</g>
		</g>
		<g id="Group 451">
			<g id="Group 450" clip-path="url(#cp3)">
				<path id="Rectangle 186" fill-rule="evenodd" class="s0" d="m31.52 33l-6.55-2.66 2.36-5.82 6.55 2.66z"/>
			</g>
		</g>
		<g id="Group 453">
			<g id="Group 452" clip-path="url(#cp4)">
				<path id="Rectangle 187" fill-rule="evenodd" class="s0" d="m30.03 37.57l-7.14-2.9 2.07-5.11 7.15 2.9z"/>
			</g>
		</g>
		<g id="Group 455">
			<g id="Group 454" clip-path="url(#cp5)">
				<path id="Rectangle 188" fill-rule="evenodd" class="s0" d="m26.31 27.9l-5.23-2.12 2.37-5.86 5.23 2.12z"/>
			</g>
		</g>
		<g id="Group 457">
			<g id="Group 456" clip-path="url(#cp6)">
				<path id="Rectangle 189" fill-rule="evenodd" class="s0" d="m24.82 31.63l-4.96-2.01 2.4-5.92 4.96 2.01z"/>
			</g>
		</g>
		<g id="Group 459">
			<g id="Group 458" clip-path="url(#cp7)">
				<path id="Rectangle 190" fill-rule="evenodd" class="s0" d="m32.12 28.1l-5.86-2.38 2.59-6.38 5.86 2.38z"/>
			</g>
		</g>
		<g id="Group 461">
			<g id="Group 460" clip-path="url(#cp8)">
				<path id="Rectangle 191" fill-rule="evenodd" class="s0" d="m19.69 38.2l-4.52-1.83 2.6-6.41 4.52 1.83z"/>
			</g>
		</g>
		<g id="Group 463">
			<g id="Group 462" clip-path="url(#cp9)">
				<path id="Rectangle 192" fill-rule="evenodd" class="s0" d="m22.66 34.96l-4.94-2.01 2.42-5.95 4.94 2z"/>
			</g>
		</g>
		<g id="Group 465">
			<g id="Group 464" clip-path="url(#cp10)">
				<path id="Rectangle 193" fill-rule="evenodd" class="s0" d="m31.99 22.53l-4.75-1.93 2.35-5.78 4.75 1.92z"/>
			</g>
		</g>
		<g id="Group 467">
			<g id="Group 466" clip-path="url(#cp11)">
				<path id="Rectangle 194" fill-rule="evenodd" class="s0" d="m27.12 23.03l-4.86-1.97 1.9-4.67 4.85 1.97z"/>
			</g>
		</g>
		<g id="Group 469">
			<g id="Group 468" clip-path="url(#cp12)">
				<path id="Rectangle 195" fill-rule="evenodd" class="s0" d="m27.03 19.37l-4.94-2.01 1.8-4.41 4.93 2z"/>
			</g>
		</g>
		<g id="Group 471">
			<g id="Group 470" clip-path="url(#cp13)">
				<path id="Rectangle 196" fill-rule="evenodd" class="s0" d="m30.91 18.17l-4.15-1.68 2.26-5.57 4.15 1.68z"/>
			</g>
		</g>
		<g id="Group 473">
			<g id="Group 472" clip-path="url(#cp14)">
				<path id="Rectangle 197" fill-rule="evenodd" class="s0" d="m24.01 43.58l-6.07-2.46 1.54-3.8 6.08 2.47z"/>
			</g>
		</g>
		<g id="Group 475">
			<g id="Group 474" clip-path="url(#cp15)">
				<path id="Rectangle 198" fill-rule="evenodd" class="s0" d="m26.26 15.89l-4.67-1.9 1.56-3.86 4.68 1.9z"/>
			</g>
		</g>
		<g id="Group 477">
			<g id="Group 476" clip-path="url(#cp16)">
				<path id="Rectangle 199" fill-rule="evenodd" class="s0" d="m25.13 12.98l-4.88-1.98 1.63-4.03 4.89 1.98z"/>
			</g>
		</g>
		<g id="Group 479">
			<g id="Group 478" clip-path="url(#cp17)">
				<path id="Rectangle 200" fill-rule="evenodd" class="s0" d="m17.38 39.88l-3.55-1.44 2-4.91 3.54 1.44z"/>
			</g>
		</g>
		<g id="Group 481">
			<g id="Group 480" clip-path="url(#cp18)">
				<path id="Rectangle 201" fill-rule="evenodd" class="s0" d="m28.03 11.02l-3.38-1.37 1.98-4.88 3.38 1.37z"/>
			</g>
		</g>
		<g id="Group 483">
			<g id="Group 482" clip-path="url(#cp19)">
				<path id="Rectangle 202" fill-rule="evenodd" class="s0" d="m29.38 14.31l-3.45-1.4 2.02-4.99 3.46 1.4z"/>
			</g>
		</g>
		<g id="Group 485">
			<g id="Group 484" clip-path="url(#cp20)">
				<path id="Rectangle 203" fill-rule="evenodd" class="s0" d="m23.8 9.76l-4.75-1.92 1.56-3.84 4.75 1.92z"/>
			</g>
		</g>
		<g id="Group 487">
			<g id="Group 486" clip-path="url(#cp21)">
				<path id="Rectangle 204" fill-rule="evenodd" class="s0" d="m25.75 8.36l-3.24-1.31 2.05-5.06 3.24 1.31z"/>
			</g>
		</g>
		<g id="Group 489">
			<g id="Group 488" clip-path="url(#cp22)">
				<path id="Rectangle 205" fill-rule="evenodd" class="s0" d="m22.75 6.22l-3.82-1.55 1.79-4.41 3.82 1.55z"/>
			</g>
		</g>
	</g>
</svg>