<svg version="1.2" xmlns="http://www.w3.org/2000/svg" viewBox="0 0 30 30" width="30" height="30">
	<style>
		.s0 { fill: #ffc428 } 
	</style>
	<g id="withdraw-svgrepo-com">
		<path id="Path 36" fill-rule="evenodd" class="s0" d="m30 25.91c0 2.26-1.83 4.09-4.09 4.09h-21.82c-2.26 0-4.09-1.83-4.09-4.09v-13.64c0-2.26 1.83-4.09 4.09-4.09h1.36c0.76 0 1.37 0.61 1.37 1.37 0 0.75-0.61 1.36-1.37 1.36h-1.36c-0.75 0-1.36 0.61-1.36 1.36v8.18h24.54v-8.18c0-0.75-0.61-1.36-1.36-1.36h-1.36c-0.76 0-1.37-0.61-1.37-1.36 0-0.76 0.61-1.37 1.37-1.37h1.36c2.26 0 4.09 1.83 4.09 4.09zm-27.27-2.72v2.72c0 0.76 0.61 1.37 1.36 1.37h21.82c0.75 0 1.36-0.61 1.36-1.37v-2.72z"/>
		<path id="Path 37" class="s0" d="m16.36 1.36c0-0.75-0.61-1.36-1.36-1.36-0.75 0-1.36 0.61-1.36 1.36v7.63l-1.77-1.76c-0.53-0.53-1.39-0.53-1.93 0-0.53 0.53-0.53 1.39 0 1.93l4.09 4.08c0.54 0.53 1.4 0.53 1.93 0l4.09-4.09c0.53-0.54 0.53-1.4 0-1.93-0.53-0.53-1.39-0.53-1.93 0l-1.76 1.76z"/>
	</g>
</svg>