<svg xmlns="http://www.w3.org/2000/svg" version="1.1" xmlns:xlink="http://www.w3.org/1999/xlink" width="512" height="512" x="0" y="0" viewBox="0 0 32 32" style="enable-background:new 0 0 512 512" xml:space="preserve" class=""><g><path d="M26 15h-3a1 1 0 0 1 0-2h3a1 1 0 0 0 1-1V6a1 1 0 0 0-1-1H6a1 1 0 0 0-1 1v6a1 1 0 0 0 1 1h3a1 1 0 0 1 0 2H6a3 3 0 0 1-3-3V6a3 3 0 0 1 3-3h20a3 3 0 0 1 3 3v6a3 3 0 0 1-3 3z" fill="#88ddff" opacity="1" data-original="#000000" class=""></path><path d="M25 10H7a1 1 0 0 1 0-2h18a1 1 0 0 1 0 2z" fill="#88ddff" opacity="1" data-original="#000000" class=""></path><path d="M21 29H11a3 3 0 0 1-3-3V9a1 1 0 0 1 1-1h14a1 1 0 0 1 1 1v17a3 3 0 0 1-3 3zM10 10v16a1 1 0 0 0 1 1h10a1 1 0 0 0 1-1V10z" fill="#88ddff" opacity="1" data-original="#000000" class=""></path><path d="M16 22a1 1 0 0 1-1-1v-6a1 1 0 0 1 2 0v6a1 1 0 0 1-1 1z" fill="#88ddff" opacity="1" data-original="#000000" class=""></path><path d="M16 23a1 1 0 0 1-.707-.293l-3-3a1 1 0 0 1 1.414-1.414L16 20.586l2.293-2.293a1 1 0 0 1 1.414 1.414l-3 3A1 1 0 0 1 16 23z" fill="#88ddff" opacity="1" data-original="#000000" class=""></path></g></svg>